RecursiveMonoVar-CasualExtraBold.ufo
<glyph name="exclam" format="1">
  <advance width="600"/>
  <unicode hex="0021"/>
  <outline>
    <contour>
      <point x="360" y="290" type="line"/>
      <point x="376" y="355"/>
      <point x="390" y="463"/>
      <point x="390" y="529" type="curve"/>
      <point x="390" y="641" type="line" smooth="yes"/>
      <point x="390" y="689"/>
      <point x="334" y="710"/>
      <point x="264" y="710" type="curve" smooth="yes"/>
      <point x="239" y="710"/>
      <point x="220" y="709"/>
      <point x="197" y="703" type="curve"/>
      <point x="206" y="667"/>
      <point x="210" y="630"/>
      <point x="210" y="590" type="curve" smooth="yes"/>
      <point x="210" y="535" type="line"/>
      <point x="210" y="456"/>
      <point x="223" y="343"/>
      <point x="245" y="321" type="curve" smooth="yes"/>
      <point x="264" y="302"/>
      <point x="297" y="290"/>
      <point x="345" y="290" type="curve"/>
    </contour>
    <contour>
      <point x="404" y="-5" type="curve"/>
      <point x="404" y="134" type="line" smooth="yes"/>
      <point x="404" y="197"/>
      <point x="335" y="206"/>
      <point x="274" y="206" type="curve" smooth="yes"/>
      <point x="251" y="206"/>
      <point x="221" y="204"/>
      <point x="196" y="200" type="curve"/>
      <point x="196" y="61" type="line" smooth="yes"/>
      <point x="196" y="-2"/>
      <point x="265" y="-11"/>
      <point x="326" y="-11" type="curve" smooth="yes"/>
      <point x="349" y="-11"/>
      <point x="379" y="-9"/>
    </contour>
  </outline>
</glyph>
<glyph name="asterisk" format="1">
  <advance width="600"/>
  <unicode hex="002A"/>
  <outline>
    <contour>
      <point x="219" y="568" type="curve"/>
      <point x="230" y="538"/>
      <point x="239" y="511"/>
      <point x="246" y="468" type="curve" smooth="yes"/>
      <point x="273" y="309" type="line"/>
      <point x="235" y="158" type="line" smooth="yes"/>
      <point x="217" y="85"/>
      <point x="248" y="41"/>
      <point x="323" y="41" type="curve"/>
      <point x="342" y="41"/>
      <point x="363" y="44"/>
      <point x="381" y="51" type="curve"/>
      <point x="371" y="81"/>
      <point x="361" y="108"/>
      <point x="354" y="151" type="curve" smooth="yes"/>
      <point x="328" y="309" type="line"/>
      <point x="365" y="461" type="line" smooth="yes"/>
      <point x="383" y="535"/>
      <point x="352" y="578"/>
      <point x="277" y="578" type="curve" smooth="yes"/>
      <point x="259" y="578"/>
      <point x="238" y="575"/>
    </contour>
    <contour>
      <point x="495" y="497" type="curve"/>
      <point x="281" y="335" type="line"/>
      <point x="91" y="264" type="line" smooth="yes"/>
      <point x="55" y="251"/>
      <point x="51" y="210"/>
      <point x="75" y="167" type="curve"/>
      <point x="84" y="151"/>
      <point x="96" y="138"/>
      <point x="107" y="127" type="curve"/>
      <point x="319" y="289" type="line"/>
      <point x="510" y="360" type="line" smooth="yes"/>
      <point x="547" y="374"/>
      <point x="552" y="412"/>
      <point x="525" y="458" type="curve" smooth="yes"/>
      <point x="518" y="470"/>
      <point x="510" y="480"/>
    </contour>
    <contour>
      <point x="558" y="236" type="curve"/>
      <point x="319" y="335" type="line"/>
      <point x="154" y="469" type="line" smooth="yes"/>
      <point x="123" y="494"/>
      <point x="89" y="478"/>
      <point x="62" y="434" type="curve"/>
      <point x="53" y="419"/>
      <point x="48" y="402"/>
      <point x="43" y="387" type="curve"/>
      <point x="281" y="289" type="line"/>
      <point x="447" y="154" type="line" smooth="yes"/>
      <point x="478" y="129"/>
      <point x="513" y="144"/>
      <point x="539" y="190" type="curve"/>
      <point x="546" y="202"/>
      <point x="552" y="215"/>
    </contour>
  </outline>
</glyph>
<glyph name="plus" format="1">
  <advance width="600"/>
  <unicode hex="002B"/>
  <outline>
    <contour>
      <point x="49" y="375" type="line"/>
      <point x="49" y="369"/>
      <point x="49" y="363"/>
      <point x="49" y="356" type="curve" smooth="yes"/>
      <point x="49" y="297"/>
      <point x="57" y="263"/>
      <point x="75" y="245" type="curve" smooth="yes"/>
      <point x="90" y="230"/>
      <point x="110" y="225"/>
      <point x="156" y="225" type="curve"/>
      <point x="554" y="225" type="line"/>
      <point x="558" y="246"/>
      <point x="561" y="269"/>
      <point x="561" y="288" type="curve" smooth="yes"/>
      <point x="561" y="354"/>
      <point x="544" y="375"/>
      <point x="488" y="375" type="curve"/>
    </contour>
    <contour>
      <point x="376" y="56" type="curve"/>
      <point x="376" y="433" type="line" smooth="yes"/>
      <point x="376" y="485"/>
      <point x="369" y="501"/>
      <point x="349" y="521" type="curve" smooth="yes"/>
      <point x="327" y="543"/>
      <point x="287" y="550"/>
      <point x="255" y="550" type="curve" smooth="yes"/>
      <point x="241" y="550"/>
      <point x="227" y="549"/>
      <point x="213" y="546" type="curve"/>
      <point x="222" y="510"/>
      <point x="226" y="479"/>
      <point x="226" y="440" type="curve" smooth="yes"/>
      <point x="226" y="112" type="line" smooth="yes"/>
      <point x="226" y="58"/>
      <point x="261" y="50"/>
      <point x="318" y="50" type="curve" smooth="yes"/>
      <point x="341" y="50"/>
      <point x="361" y="52"/>
    </contour>
  </outline>
</glyph>
<glyph name="three" format="1">
  <advance width="600"/>
  <unicode hex="0033"/>
  <outline>
    <contour>
      <point x="279" y="570" type="curve" smooth="yes"/>
      <point x="385" y="570"/>
      <point x="451" y="518"/>
      <point x="451" y="450" type="curve" smooth="yes"/>
      <point x="451" y="439"/>
      <point x="450" y="430"/>
      <point x="448" y="421" type="curve"/>
      <point x="486" y="423"/>
      <point x="540" y="497"/>
      <point x="540" y="526" type="curve" smooth="yes"/>
      <point x="540" y="541" type="line" smooth="yes"/>
      <point x="540" y="640"/>
      <point x="450" y="720"/>
      <point x="300" y="720" type="curve" smooth="yes"/>
      <point x="214" y="720"/>
      <point x="138" y="695"/>
      <point x="107" y="664" type="curve" smooth="yes"/>
      <point x="81" y="638"/>
      <point x="72" y="612"/>
      <point x="72" y="554" type="curve" smooth="yes"/>
      <point x="72" y="527"/>
      <point x="74" y="509"/>
      <point x="80" y="488" type="curve"/>
      <point x="84" y="488" type="line"/>
      <point x="145" y="547"/>
      <point x="197" y="570"/>
    </contour>
    <contour>
      <point x="216" y="320" type="curve" smooth="yes"/>
      <point x="421" y="320"/>
      <point x="539" y="436"/>
      <point x="539" y="526" type="curve" smooth="yes"/>
      <point x="539" y="563"/>
      <point x="454" y="604"/>
      <point x="410" y="604" type="curve"/>
      <point x="410" y="601"/>
      <point x="410" y="597"/>
      <point x="410" y="594" type="curve" smooth="yes"/>
      <point x="410" y="450"/>
      <point x="319" y="404"/>
      <point x="172" y="404" type="curve"/>
      <point x="168" y="386"/>
      <point x="167" y="376"/>
      <point x="167" y="351" type="curve" smooth="yes"/>
      <point x="167" y="326"/>
      <point x="205" y="320"/>
    </contour>
    <contour>
      <point x="216" y="271" type="curve" smooth="yes"/>
      <point x="325" y="262"/>
      <point x="421" y="215"/>
      <point x="421" y="146" type="curve" smooth="yes"/>
      <point x="421" y="143"/>
      <point x="421" y="139"/>
      <point x="421" y="136" type="curve"/>
      <point x="478" y="136"/>
      <point x="550" y="156"/>
      <point x="550" y="174" type="curve" smooth="yes"/>
      <point x="550" y="313"/>
      <point x="370" y="364"/>
      <point x="173" y="364" type="curve"/>
      <point x="171" y="357"/>
      <point x="167" y="356"/>
      <point x="167" y="351" type="curve" smooth="yes"/>
      <point x="167" y="295"/>
      <point x="180" y="274"/>
    </contour>
    <contour>
      <point x="279" y="130" type="curve" smooth="yes"/>
      <point x="189" y="130"/>
      <point x="128" y="150"/>
      <point x="64" y="212" type="curve"/>
      <point x="60" y="212" type="line"/>
      <point x="54" y="191"/>
      <point x="52" y="173"/>
      <point x="52" y="146" type="curve" smooth="yes"/>
      <point x="52" y="88"/>
      <point x="61" y="62"/>
      <point x="87" y="36" type="curve" smooth="yes"/>
      <point x="119" y="4"/>
      <point x="205" y="-20"/>
      <point x="300" y="-20" type="curve" smooth="yes"/>
      <point x="456" y="-20"/>
      <point x="550" y="60"/>
      <point x="550" y="159" type="curve" smooth="yes"/>
      <point x="550" y="174" type="line" smooth="yes"/>
      <point x="550" y="201"/>
      <point x="490" y="267"/>
      <point x="448" y="269" type="curve"/>
      <point x="450" y="260"/>
      <point x="451" y="251"/>
      <point x="451" y="240" type="curve" smooth="yes"/>
      <point x="451" y="168"/>
      <point x="395" y="130"/>
    </contour>
  </outline>
</glyph>
<glyph name="four" format="1">
  <advance width="600"/>
  <unicode hex="0034"/>
  <outline>
    <contour>
      <point x="160" y="245" type="curve"/>
      <point x="246" y="409"/>
      <point x="390" y="572"/>
      <point x="550" y="663" type="curve"/>
      <point x="550" y="667" type="line"/>
      <point x="526" y="693"/>
      <point x="473" y="710"/>
      <point x="400" y="710" type="curve" smooth="yes"/>
      <point x="353" y="710"/>
      <point x="323" y="697"/>
      <point x="272" y="646" type="curve" smooth="yes"/>
      <point x="156" y="530"/>
      <point x="40" y="366"/>
      <point x="40" y="280" type="curve" smooth="yes"/>
      <point x="40" y="258"/>
      <point x="107" y="245"/>
    </contour>
    <contour>
      <point x="565" y="150" type="line"/>
      <point x="569" y="165"/>
      <point x="571" y="182"/>
      <point x="571" y="197" type="curve" smooth="yes"/>
      <point x="571" y="242"/>
      <point x="561" y="300"/>
      <point x="526" y="300" type="curve" smooth="yes"/>
      <point x="346" y="300" type="line"/>
      <point x="263" y="300"/>
      <point x="133" y="294"/>
      <point x="40" y="280" type="curve"/>
      <point x="40" y="265" type="line" smooth="yes"/>
      <point x="40" y="217"/>
      <point x="52" y="184"/>
      <point x="72" y="164" type="curve" smooth="yes"/>
      <point x="83" y="153"/>
      <point x="92" y="150"/>
      <point x="117" y="150" type="curve" smooth="yes"/>
    </contour>
    <contour>
      <point x="510" y="-1" type="curve"/>
      <point x="503" y="33"/>
      <point x="500" y="61"/>
      <point x="500" y="96" type="curve" smooth="yes"/>
      <point x="500" y="365" type="line" smooth="yes"/>
      <point x="500" y="394"/>
      <point x="450" y="420"/>
      <point x="404" y="420" type="curve" smooth="yes"/>
      <point x="400" y="420" type="line"/>
      <point x="370" y="360"/>
      <point x="340" y="262"/>
      <point x="340" y="200" type="curve"/>
      <point x="340" y="46" type="line" smooth="yes"/>
      <point x="340" y="8"/>
      <point x="404" y="-6"/>
      <point x="459" y="-6" type="curve" smooth="yes"/>
      <point x="478" y="-6"/>
      <point x="496" y="-4"/>
    </contour>
  </outline>
</glyph>
<glyph name="six" format="1">
  <advance width="600"/>
  <unicode hex="0036"/>
  <outline>
    <contour>
      <point x="144" y="176" type="curve"/>
      <point x="108" y="96"/>
      <point x="209" y="-20"/>
      <point x="310" y="-20" type="curve"/>
      <point x="452" y="-20"/>
      <point x="550" y="69"/>
      <point x="550" y="200" type="curve" smooth="yes"/>
      <point x="550" y="205" type="line" smooth="yes"/>
      <point x="550" y="334"/>
      <point x="433" y="378"/>
      <point x="376" y="326" type="curve"/>
      <point x="393" y="299"/>
      <point x="400" y="257"/>
      <point x="400" y="213" type="curve" smooth="yes"/>
      <point x="400" y="210" type="line" smooth="yes"/>
      <point x="400" y="164"/>
      <point x="365" y="130"/>
      <point x="296" y="130" type="curve" smooth="yes"/>
      <point x="236" y="130"/>
      <point x="181" y="147"/>
    </contour>
    <contour>
      <point x="185" y="502" type="curve"/>
      <point x="236" y="547"/>
      <point x="298" y="570"/>
      <point x="366" y="570" type="curve" smooth="yes"/>
      <point x="423" y="570"/>
      <point x="461" y="560"/>
      <point x="511" y="536" type="curve"/>
      <point x="515" y="536" type="line"/>
      <point x="518" y="551"/>
      <point x="520" y="567"/>
      <point x="520" y="590" type="curve" smooth="yes"/>
      <point x="520" y="648"/>
      <point x="502" y="673"/>
      <point x="488" y="687" type="curve" smooth="yes"/>
      <point x="474" y="701"/>
      <point x="443" y="720"/>
      <point x="356" y="720" type="curve" smooth="yes"/>
      <point x="220" y="720"/>
      <point x="123" y="624"/>
    </contour>
    <contour>
      <point x="50" y="304" type="curve" smooth="yes"/>
      <point x="50" y="297" type="line" smooth="yes"/>
      <point x="50" y="85"/>
      <point x="160" y="-20"/>
      <point x="310" y="-20" type="curve" smooth="yes"/>
      <point x="317" y="-20"/>
      <point x="341" y="-15"/>
      <point x="341" y="44" type="curve"/>
      <point x="235" y="73"/>
      <point x="204" y="153"/>
      <point x="204" y="289" type="curve" smooth="yes"/>
      <point x="204" y="296" type="line" smooth="yes"/>
      <point x="204" y="506"/>
      <point x="240" y="583"/>
      <point x="400" y="659" type="curve"/>
      <point x="400" y="695"/>
      <point x="385" y="720"/>
      <point x="356" y="720" type="curve" smooth="yes"/>
      <point x="199" y="720"/>
      <point x="50" y="611"/>
    </contour>
    <contour>
      <point x="349" y="404" type="curve" smooth="yes"/>
      <point x="288" y="404"/>
      <point x="219" y="383"/>
      <point x="191" y="355" type="curve" smooth="yes"/>
      <point x="168" y="332"/>
      <point x="164" y="310"/>
      <point x="160" y="245" type="curve"/>
      <point x="216" y="267"/>
      <point x="271" y="280"/>
      <point x="320" y="280" type="curve" smooth="yes"/>
      <point x="419" y="280"/>
      <point x="470" y="234"/>
      <point x="470" y="177" type="curve" smooth="yes"/>
      <point x="470" y="160"/>
      <point x="469" y="146"/>
      <point x="464" y="132" type="curve"/>
      <point x="505" y="132"/>
      <point x="550" y="159"/>
      <point x="550" y="204" type="curve" smooth="yes"/>
      <point x="550" y="332"/>
      <point x="460" y="404"/>
    </contour>
  </outline>
</glyph>
<glyph name="eight" format="1">
  <advance width="600"/>
  <unicode hex="0038"/>
  <outline>
    <contour>
      <point x="394" y="354" type="curve" smooth="yes"/>
      <point x="299" y="388" type="line" smooth="yes"/>
      <point x="222" y="416"/>
      <point x="200" y="447"/>
      <point x="200" y="493" type="curve" smooth="yes"/>
      <point x="200" y="516"/>
      <point x="203" y="559"/>
      <point x="216" y="597" type="curve"/>
      <point x="133" y="596"/>
      <point x="65" y="575"/>
      <point x="65" y="512" type="curve" smooth="yes"/>
      <point x="65" y="443"/>
      <point x="100" y="353"/>
      <point x="252" y="297" type="curve" smooth="yes"/>
      <point x="344" y="263" type="line" smooth="yes"/>
      <point x="409" y="239"/>
      <point x="421" y="204"/>
      <point x="421" y="136" type="curve" smooth="yes"/>
      <point x="421" y="123"/>
      <point x="421" y="112"/>
      <point x="421" y="96" type="curve"/>
      <point x="479" y="96"/>
      <point x="550" y="137"/>
      <point x="550" y="174" type="curve"/>
      <point x="550" y="213"/>
      <point x="529" y="306"/>
    </contour>
    <contour>
      <point x="290" y="-20" type="curve" smooth="yes"/>
      <point x="452" y="-20"/>
      <point x="550" y="63"/>
      <point x="550" y="168" type="curve" smooth="yes"/>
      <point x="550" y="174" type="line" smooth="yes"/>
      <point x="550" y="190"/>
      <point x="498" y="225"/>
      <point x="461" y="227" type="curve"/>
      <point x="461" y="223"/>
      <point x="461" y="221"/>
      <point x="461" y="217" type="curve" smooth="yes"/>
      <point x="461" y="166"/>
      <point x="387" y="127"/>
      <point x="290" y="127" type="curve" smooth="yes"/>
      <point x="198" y="127"/>
      <point x="159" y="164"/>
      <point x="126" y="221" type="curve"/>
      <point x="26" y="123"/>
      <point x="123" y="-20"/>
    </contour>
    <contour>
      <point x="305" y="720" type="curve" smooth="yes"/>
      <point x="157" y="720"/>
      <point x="65" y="619"/>
      <point x="65" y="515" type="curve" smooth="yes"/>
      <point x="65" y="512" type="line" smooth="yes"/>
      <point x="65" y="474"/>
      <point x="132" y="426"/>
      <point x="214" y="426" type="curve"/>
      <point x="208" y="443"/>
      <point x="200" y="466"/>
      <point x="200" y="493" type="curve" smooth="yes"/>
      <point x="200" y="551"/>
      <point x="256" y="584"/>
      <point x="307" y="584" type="curve" smooth="yes"/>
      <point x="366" y="584"/>
      <point x="403" y="569"/>
      <point x="444" y="534" type="curve"/>
      <point x="515" y="600"/>
      <point x="407" y="720"/>
    </contour>
    <contour>
      <point x="369" y="330" type="curve" smooth="yes"/>
      <point x="441" y="330"/>
      <point x="539" y="411"/>
      <point x="539" y="511" type="curve" smooth="yes"/>
      <point x="539" y="516" type="line" smooth="yes"/>
      <point x="539" y="639"/>
      <point x="427" y="720"/>
      <point x="305" y="720" type="curve" smooth="yes"/>
      <point x="285" y="720"/>
      <point x="264" y="709"/>
      <point x="258" y="650" type="curve"/>
      <point x="342" y="650"/>
      <point x="400" y="599"/>
      <point x="400" y="515" type="curve" smooth="yes"/>
      <point x="400" y="511" type="line" smooth="yes"/>
      <point x="400" y="454"/>
      <point x="366" y="410"/>
      <point x="270" y="360" type="curve"/>
      <point x="298" y="342"/>
      <point x="333" y="330"/>
    </contour>
    <contour>
      <point x="359" y="53" type="curve"/>
      <point x="209" y="53"/>
      <point x="182" y="106"/>
      <point x="182" y="126" type="curve" smooth="yes"/>
      <point x="182" y="129" type="line" smooth="yes"/>
      <point x="182" y="200"/>
      <point x="238" y="269"/>
      <point x="331" y="310" type="curve"/>
      <point x="304" y="331"/>
      <point x="291" y="342"/>
      <point x="240" y="342" type="curve" smooth="yes"/>
      <point x="165" y="342"/>
      <point x="50" y="269"/>
      <point x="50" y="168" type="curve" smooth="yes"/>
      <point x="50" y="162" type="line" smooth="yes"/>
      <point x="50" y="55"/>
      <point x="144" y="-20"/>
      <point x="290" y="-20" type="curve" smooth="yes"/>
      <point x="320" y="-20"/>
      <point x="359" y="14"/>
    </contour>
  </outline>
</glyph>
<glyph name="colon" format="1">
  <advance width="600"/>
  <unicode hex="003A"/>
  <outline>
    <contour>
      <point x="404" y="341" type="curve"/>
      <point x="404" y="480" type="line" smooth="yes"/>
      <point x="404" y="543"/>
      <point x="335" y="552"/>
      <point x="274" y="552" type="curve" smooth="yes"/>
      <point x="251" y="552"/>
      <point x="221" y="550"/>
      <point x="196" y="546" type="curve"/>
      <point x="196" y="407" type="line" smooth="yes"/>
      <point x="196" y="344"/>
      <point x="265" y="335"/>
      <point x="326" y="335" type="curve" smooth="yes"/>
      <point x="349" y="335"/>
      <point x="379" y="337"/>
    </contour>
    <contour>
      <point x="404" y="-5" type="curve"/>
      <point x="404" y="134" type="line" smooth="yes"/>
      <point x="404" y="197"/>
      <point x="335" y="206"/>
      <point x="274" y="206" type="curve" smooth="yes"/>
      <point x="251" y="206"/>
      <point x="221" y="204"/>
      <point x="196" y="200" type="curve"/>
      <point x="196" y="61" type="line" smooth="yes"/>
      <point x="196" y="-2"/>
      <point x="265" y="-11"/>
      <point x="326" y="-11" type="curve" smooth="yes"/>
      <point x="349" y="-11"/>
      <point x="379" y="-9"/>
    </contour>
  </outline>
</glyph>
<glyph name="semicolon" format="1">
  <advance width="600"/>
  <unicode hex="003B"/>
  <outline>
    <contour>
      <point x="404" y="339" type="curve"/>
      <point x="404" y="478" type="line" smooth="yes"/>
      <point x="404" y="541"/>
      <point x="335" y="550"/>
      <point x="274" y="550" type="curve" smooth="yes"/>
      <point x="251" y="550"/>
      <point x="221" y="548"/>
      <point x="196" y="544" type="curve"/>
      <point x="196" y="405" type="line" smooth="yes"/>
      <point x="196" y="342"/>
      <point x="265" y="333"/>
      <point x="326" y="333" type="curve" smooth="yes"/>
      <point x="349" y="333"/>
      <point x="379" y="335"/>
    </contour>
    <contour>
      <point x="276" y="-200" type="curve" smooth="yes"/>
      <point x="298" y="-200"/>
      <point x="310" y="-196"/>
      <point x="321" y="-185" type="curve"/>
      <point x="379" y="-127"/>
      <point x="431" y="0"/>
      <point x="431" y="82" type="curve"/>
      <point x="431" y="138"/>
      <point x="396" y="160"/>
      <point x="307" y="160" type="curve" smooth="yes"/>
      <point x="282" y="160"/>
      <point x="265" y="158"/>
      <point x="236" y="153" type="curve"/>
      <point x="236" y="22"/>
      <point x="212" y="-85"/>
      <point x="165" y="-165" type="curve"/>
      <point x="196" y="-190"/>
      <point x="228" y="-200"/>
    </contour>
  </outline>
</glyph>
<glyph name="greater" format="1">
  <advance width="600"/>
  <unicode hex="003E"/>
  <outline>
    <contour>
      <point x="67" y="136" type="curve"/>
      <point x="67" y="113" type="line"/>
      <point x="67" y="70"/>
      <point x="93" y="6"/>
      <point x="132" y="6" type="curve" smooth="yes"/>
      <point x="145" y="6"/>
      <point x="173" y="13"/>
      <point x="213" y="30" type="curve" smooth="yes"/>
      <point x="341" y="84"/>
      <point x="469" y="183"/>
      <point x="532" y="269" type="curve"/>
      <point x="532" y="291" type="line"/>
      <point x="532" y="330"/>
      <point x="495" y="338"/>
      <point x="402" y="338" type="curve"/>
      <point x="330" y="248"/>
      <point x="240" y="173"/>
    </contour>
    <contour>
      <point x="78" y="598" type="curve"/>
      <point x="73" y="583"/>
      <point x="71" y="567"/>
      <point x="71" y="543" type="curve" smooth="yes"/>
      <point x="71" y="488"/>
      <point x="83" y="448"/>
      <point x="110" y="439" type="curve" smooth="yes"/>
      <point x="258" y="391"/>
      <point x="347" y="331"/>
      <point x="430" y="236" type="curve" smooth="yes"/>
      <point x="437" y="228"/>
      <point x="439" y="220"/>
      <point x="439" y="216" type="curve" smooth="yes"/>
      <point x="439" y="210"/>
      <point x="439" y="206"/>
      <point x="439" y="200" type="curve"/>
      <point x="506" y="238"/>
      <point x="532" y="270"/>
      <point x="532" y="287" type="curve" smooth="yes"/>
      <point x="532" y="296" type="line" smooth="yes"/>
      <point x="532" y="324"/>
      <point x="528" y="340"/>
      <point x="485" y="381" type="curve" smooth="yes"/>
      <point x="392" y="469"/>
      <point x="270" y="551"/>
    </contour>
  </outline>
</glyph>
<glyph name="question" format="1">
  <advance width="600"/>
  <unicode hex="003F"/>
  <outline>
    <contour>
      <point x="305" y="720" type="curve" smooth="yes"/>
      <point x="219" y="720"/>
      <point x="146" y="700"/>
      <point x="113" y="667" type="curve" smooth="yes"/>
      <point x="92" y="646"/>
      <point x="81" y="610"/>
      <point x="81" y="569" type="curve" smooth="yes"/>
      <point x="81" y="542"/>
      <point x="84" y="524"/>
      <point x="92" y="504" type="curve"/>
      <point x="96" y="504" type="line"/>
      <point x="159" y="549"/>
      <point x="227" y="570"/>
      <point x="312" y="570" type="curve" smooth="yes"/>
      <point x="397" y="570"/>
      <point x="424" y="548"/>
      <point x="424" y="518" type="curve" smooth="yes"/>
      <point x="424" y="492"/>
      <point x="421" y="474"/>
      <point x="415" y="453" type="curve"/>
      <point x="495" y="446"/>
      <point x="535" y="487"/>
      <point x="535" y="527" type="curve" smooth="yes"/>
      <point x="535" y="629"/>
      <point x="461" y="720"/>
    </contour>
    <contour>
      <point x="350" y="637" type="curve"/>
      <point x="378" y="595"/>
      <point x="384" y="577"/>
      <point x="384" y="541" type="curve" smooth="yes"/>
      <point x="384" y="512"/>
      <point x="378" y="486"/>
      <point x="322" y="447" type="curve" smooth="yes"/>
      <point x="299" y="431" type="line" smooth="yes"/>
      <point x="227" y="381"/>
      <point x="213" y="356"/>
      <point x="213" y="330" type="curve" smooth="yes"/>
      <point x="213" y="326" type="line" smooth="yes"/>
      <point x="213" y="291"/>
      <point x="255" y="252"/>
      <point x="336" y="252" type="curve" smooth="yes"/>
      <point x="344" y="252" type="line"/>
      <point x="344" y="255" type="line" smooth="yes"/>
      <point x="344" y="282"/>
      <point x="355" y="305"/>
      <point x="391" y="327" type="curve" smooth="yes"/>
      <point x="421" y="345" type="line" smooth="yes"/>
      <point x="504" y="395"/>
      <point x="535" y="461"/>
      <point x="535" y="524" type="curve" smooth="yes"/>
      <point x="535" y="527" type="line" smooth="yes"/>
      <point x="535" y="596"/>
      <point x="457" y="676"/>
    </contour>
    <contour>
      <point x="384" y="-5" type="curve"/>
      <point x="384" y="114" type="line" smooth="yes"/>
      <point x="384" y="177"/>
      <point x="315" y="186"/>
      <point x="254" y="186" type="curve" smooth="yes"/>
      <point x="231" y="186"/>
      <point x="201" y="184"/>
      <point x="176" y="180" type="curve"/>
      <point x="176" y="61" type="line" smooth="yes"/>
      <point x="176" y="-2"/>
      <point x="245" y="-11"/>
      <point x="306" y="-11" type="curve" smooth="yes"/>
      <point x="329" y="-11"/>
      <point x="359" y="-9"/>
    </contour>
  </outline>
</glyph>
<glyph name="at" format="1">
  <advance width="600"/>
  <unicode hex="0040"/>
  <outline>
    <contour>
      <point x="461" y="523" type="curve" smooth="yes"/>
      <point x="447" y="537"/>
      <point x="427" y="548"/>
      <point x="381" y="548" type="curve" smooth="yes"/>
      <point x="358" y="548"/>
      <point x="327" y="543"/>
      <point x="297" y="513" type="curve" smooth="yes"/>
      <point x="273" y="489"/>
      <point x="271" y="431"/>
      <point x="288" y="400" type="curve"/>
      <point x="332" y="427"/>
      <point x="355" y="434"/>
      <point x="396" y="434" type="curve" smooth="yes"/>
      <point x="419" y="434"/>
      <point x="441" y="431"/>
      <point x="463" y="413" type="curve"/>
      <point x="481" y="456"/>
      <point x="478" y="506"/>
    </contour>
    <contour>
      <point x="495" y="215" type="curve"/>
      <point x="460" y="165"/>
      <point x="418" y="130"/>
      <point x="386" y="130" type="curve" smooth="yes"/>
      <point x="360" y="130"/>
      <point x="348" y="161"/>
      <point x="348" y="230" type="curve" smooth="yes"/>
      <point x="348" y="237" type="line" smooth="yes"/>
      <point x="348" y="312"/>
      <point x="361" y="429"/>
      <point x="411" y="506" type="curve"/>
      <point x="372" y="534"/>
      <point x="327" y="543"/>
      <point x="297" y="513" type="curve" smooth="yes"/>
      <point x="250" y="466"/>
      <point x="218" y="371"/>
      <point x="218" y="220" type="curve" smooth="yes"/>
      <point x="218" y="211" type="line" smooth="yes"/>
      <point x="218" y="78"/>
      <point x="268" y="10"/>
      <point x="358" y="10" type="curve" smooth="yes"/>
      <point x="410" y="10"/>
      <point x="443" y="30"/>
      <point x="486" y="86" type="curve" smooth="yes"/>
      <point x="505" y="111"/>
      <point x="512" y="162"/>
    </contour>
    <contour>
      <point x="555" y="14" type="line"/>
      <point x="549" y="51"/>
      <point x="547" y="85"/>
      <point x="547" y="116" type="curve"/>
      <point x="547" y="516" type="line" smooth="yes"/>
      <point x="547" y="678"/>
      <point x="478" y="760"/>
      <point x="342" y="760" type="curve" smooth="yes"/>
      <point x="305" y="760"/>
      <point x="310" y="721"/>
      <point x="310" y="701" type="curve"/>
      <point x="400" y="703"/>
      <point x="417" y="649"/>
      <point x="417" y="571" type="curve" smooth="yes"/>
      <point x="417" y="125" type="line" smooth="yes"/>
      <point x="417" y="67"/>
      <point x="467" y="14"/>
      <point x="540" y="14" type="curve" smooth="yes"/>
    </contour>
    <contour>
      <point x="50" y="214" type="curve" smooth="yes"/>
      <point x="50" y="201" type="line" smooth="yes"/>
      <point x="50" y="22"/>
      <point x="84" y="-72"/>
      <point x="138" y="-126" type="curve" smooth="yes"/>
      <point x="171" y="-159"/>
      <point x="216" y="-153"/>
      <point x="254" y="-114" type="curve"/>
      <point x="159" y="-22"/>
      <point x="150" y="41"/>
      <point x="150" y="201" type="curve" smooth="yes"/>
      <point x="150" y="211" type="line" smooth="yes"/>
      <point x="150" y="461"/>
      <point x="225" y="660"/>
      <point x="352" y="660" type="curve" smooth="yes"/>
      <point x="407" y="660"/>
      <point x="420" y="633"/>
      <point x="433" y="594" type="curve"/>
      <point x="464" y="610"/>
      <point x="478" y="633"/>
      <point x="478" y="660" type="curve" smooth="yes"/>
      <point x="478" y="722"/>
      <point x="423" y="760"/>
      <point x="342" y="760" type="curve" smooth="yes"/>
      <point x="159" y="760"/>
      <point x="50" y="531"/>
    </contour>
    <contour>
      <point x="323" y="-190" type="curve" smooth="yes"/>
      <point x="391" y="-190"/>
      <point x="439" y="-181"/>
      <point x="457" y="-163" type="curve" smooth="yes"/>
      <point x="474" y="-146"/>
      <point x="478" y="-113"/>
      <point x="478" y="-70" type="curve" smooth="yes"/>
      <point x="478" y="-62" type="line"/>
      <point x="474" y="-62" type="line"/>
      <point x="432" y="-82"/>
      <point x="391" y="-90"/>
      <point x="328" y="-90" type="curve" smooth="yes"/>
      <point x="249" y="-90"/>
      <point x="195" y="-60"/>
      <point x="140" y="0" type="curve"/>
      <point x="111" y="-29"/>
      <point x="103" y="-91"/>
      <point x="138" y="-126" type="curve"/>
      <point x="180" y="-168"/>
      <point x="243" y="-190"/>
    </contour>
  </outline>
</glyph>
<glyph name="E" format="1">
  <advance width="600"/>
  <unicode hex="0045"/>
  <outline>
    <contour>
      <point x="25" y="700" type="line"/>
      <point x="25" y="692"/>
      <point x="25" y="683"/>
      <point x="25" y="675" type="curve" smooth="yes"/>
      <point x="25" y="627"/>
      <point x="31" y="575"/>
      <point x="48" y="558" type="curve" smooth="yes"/>
      <point x="54" y="552"/>
      <point x="57" y="550"/>
      <point x="65" y="550" type="curve" smooth="yes"/>
      <point x="543" y="550" type="line"/>
      <point x="548" y="564"/>
      <point x="550" y="583"/>
      <point x="550" y="604" type="curve" smooth="yes"/>
      <point x="550" y="625"/>
      <point x="545" y="669"/>
      <point x="526" y="688" type="curve" smooth="yes"/>
      <point x="516" y="698"/>
      <point x="509" y="700"/>
      <point x="492" y="700" type="curve" smooth="yes"/>
    </contour>
    <contour>
      <point x="235" y="95" type="curve"/>
      <point x="235" y="477" type="line" smooth="yes"/>
      <point x="235" y="558"/>
      <point x="195" y="584"/>
      <point x="75" y="584" type="curve"/>
      <point x="75" y="150" type="line"/>
      <point x="75" y="107"/>
      <point x="151" y="95"/>
    </contour>
    <contour>
      <point x="75" y="150" type="line"/>
      <point x="75" y="132" type="line" smooth="yes"/>
      <point x="75" y="73"/>
      <point x="135" y="0"/>
      <point x="183" y="0" type="curve" smooth="yes"/>
      <point x="545" y="0" type="line"/>
      <point x="549" y="15"/>
      <point x="551" y="35"/>
      <point x="551" y="58" type="curve" smooth="yes"/>
      <point x="551" y="124"/>
      <point x="533" y="150"/>
      <point x="489" y="150" type="curve" smooth="yes"/>
    </contour>
    <contour>
      <point x="145" y="400" type="line"/>
      <point x="145" y="310"/>
      <point x="157" y="270"/>
      <point x="200" y="270" type="curve" smooth="yes"/>
      <point x="500" y="270" type="line"/>
      <point x="500" y="274"/>
      <point x="500" y="280"/>
      <point x="500" y="284" type="curve" smooth="yes"/>
      <point x="500" y="315"/>
      <point x="490" y="357"/>
      <point x="465" y="382" type="curve" smooth="yes"/>
      <point x="450" y="397"/>
      <point x="438" y="400"/>
      <point x="419" y="400" type="curve" smooth="yes"/>
    </contour>
    <contour>
      <point x="300" y="712" type="move" name="top"/>
    </contour>
    <contour>
      <point x="546" y="0" type="move" name="ogonek"/>
    </contour>
    <contour>
      <point x="328" y="-1" type="move" name="bottom"/>
    </contour>
  </outline>
</glyph>
<glyph name="F" format="1">
  <advance width="600"/>
  <unicode hex="0046"/>
  <outline>
    <contour>
      <point x="263" y="-6" type="curve"/>
      <point x="257" y="31"/>
      <point x="255" y="65"/>
      <point x="255" y="96" type="curve" smooth="yes"/>
      <point x="255" y="477" type="line"/>
      <point x="255" y="558"/>
      <point x="217" y="584"/>
      <point x="95" y="584" type="curve"/>
      <point x="95" y="56" type="line" smooth="yes"/>
      <point x="95" y="11"/>
      <point x="138" y="-6"/>
      <point x="248" y="-6" type="curve" smooth="yes"/>
      <point x="253" y="-6"/>
      <point x="258" y="-6"/>
    </contour>
    <contour>
      <point x="25" y="700" type="line"/>
      <point x="25" y="692"/>
      <point x="25" y="683"/>
      <point x="25" y="675" type="curve" smooth="yes"/>
      <point x="25" y="608"/>
      <point x="35" y="577"/>
      <point x="48" y="564" type="curve" smooth="yes"/>
      <point x="58" y="554"/>
      <point x="65" y="550"/>
      <point x="85" y="550" type="curve"/>
      <point x="544" y="550" type="line"/>
      <point x="548" y="563"/>
      <point x="550" y="581"/>
      <point x="550" y="604" type="curve" smooth="yes"/>
      <point x="550" y="643"/>
      <point x="540" y="673"/>
      <point x="527" y="686" type="curve" smooth="yes"/>
      <point x="516" y="697"/>
      <point x="506" y="700"/>
      <point x="486" y="700" type="curve"/>
    </contour>
    <contour>
      <point x="115" y="350" type="line"/>
      <point x="115" y="260"/>
      <point x="127" y="200"/>
      <point x="170" y="200" type="curve"/>
      <point x="497" y="200" type="line"/>
      <point x="499" y="209"/>
      <point x="500" y="218"/>
      <point x="500" y="229" type="curve"/>
      <point x="500" y="264"/>
      <point x="483" y="305"/>
      <point x="460" y="328" type="curve" smooth="yes"/>
      <point x="440" y="348"/>
      <point x="431" y="350"/>
      <point x="401" y="350" type="curve"/>
    </contour>
  </outline>
</glyph>
<glyph name="G" format="1">
  <advance width="600"/>
  <unicode hex="0047"/>
  <outline>
    <contour>
      <point x="377" y="581" type="curve" smooth="yes"/>
      <point x="437" y="581"/>
      <point x="455" y="548"/>
      <point x="455" y="486" type="curve"/>
      <point x="507" y="486"/>
      <point x="525" y="513"/>
      <point x="525" y="528" type="curve" smooth="yes"/>
      <point x="525" y="587"/>
      <point x="521" y="622"/>
      <point x="477" y="666" type="curve" smooth="yes"/>
      <point x="447" y="696"/>
      <point x="415" y="720"/>
      <point x="371" y="720" type="curve" smooth="yes"/>
      <point x="184" y="720"/>
      <point x="50" y="567"/>
      <point x="50" y="284" type="curve" smooth="yes"/>
      <point x="50" y="277" type="line" smooth="yes"/>
      <point x="50" y="199"/>
      <point x="120" y="130"/>
      <point x="216" y="130" type="curve"/>
      <point x="207" y="155"/>
      <point x="200" y="210"/>
      <point x="200" y="267" type="curve" smooth="yes"/>
      <point x="200" y="276" type="line" smooth="yes"/>
      <point x="200" y="490"/>
      <point x="291" y="581"/>
    </contour>
    <contour>
      <point x="330" y="130" type="curve" smooth="yes"/>
      <point x="220" y="130"/>
      <point x="180" y="198"/>
      <point x="180" y="342" type="curve"/>
      <point x="101" y="343"/>
      <point x="50" y="328"/>
      <point x="50" y="277" type="curve" smooth="yes"/>
      <point x="50" y="112"/>
      <point x="139" y="-20"/>
      <point x="330" y="-20" type="curve" smooth="yes"/>
      <point x="446" y="-20"/>
      <point x="546" y="43"/>
      <point x="546" y="141" type="curve" smooth="yes"/>
      <point x="546" y="150" type="line" smooth="yes"/>
      <point x="546" y="217"/>
      <point x="506" y="286"/>
      <point x="449" y="286" type="curve"/>
      <point x="453" y="268"/>
      <point x="454" y="258"/>
      <point x="454" y="229" type="curve" smooth="yes"/>
      <point x="454" y="157"/>
      <point x="402" y="130"/>
    </contour>
    <contour>
      <point x="319" y="355" type="line"/>
      <point x="319" y="349"/>
      <point x="319" y="343"/>
      <point x="319" y="336" type="curve" smooth="yes"/>
      <point x="319" y="296"/>
      <point x="330" y="274"/>
      <point x="346" y="258" type="curve" smooth="yes"/>
      <point x="369" y="235"/>
      <point x="396" y="226"/>
      <point x="475" y="226" type="curve"/>
      <point x="575" y="226" type="line"/>
      <point x="575" y="235" type="line" smooth="yes"/>
      <point x="575" y="326"/>
      <point x="559" y="355"/>
      <point x="507" y="355" type="curve" smooth="yes"/>
    </contour>
    <contour>
      <point x="525" y="456" type="curve"/>
      <point x="525" y="528" type="line" smooth="yes"/>
      <point x="525" y="623"/>
      <point x="471" y="648"/>
      <point x="414" y="648" type="curve"/>
      <point x="390" y="600"/>
      <point x="375" y="555"/>
      <point x="375" y="517" type="curve" smooth="yes"/>
      <point x="375" y="512" type="line" smooth="yes"/>
      <point x="375" y="467"/>
      <point x="398" y="450"/>
      <point x="467" y="450" type="curve" smooth="yes"/>
      <point x="490" y="450"/>
      <point x="510" y="452"/>
    </contour>
    <contour>
      <point x="312" y="711" type="move" name="top"/>
    </contour>
    <contour>
      <point x="312" y="-1" type="move" name="bottom"/>
    </contour>
  </outline>
</glyph>
<glyph name="H" format="1">
  <advance width="600"/>
  <unicode hex="0048"/>
  <outline>
    <contour>
      <point x="62" y="703" type="curve"/>
      <point x="71" y="667"/>
      <point x="75" y="630"/>
      <point x="75" y="590" type="curve" smooth="yes"/>
      <point x="75" y="57" type="line" smooth="yes"/>
      <point x="75" y="12"/>
      <point x="116" y="-10"/>
      <point x="198" y="-10" type="curve" smooth="yes"/>
      <point x="215" y="-10"/>
      <point x="227" y="-9"/>
      <point x="235" y="-7" type="curve"/>
      <point x="235" y="640" type="line" smooth="yes"/>
      <point x="235" y="665"/>
      <point x="231" y="677"/>
      <point x="220" y="688" type="curve" smooth="yes"/>
      <point x="204" y="704"/>
      <point x="179" y="710"/>
      <point x="129" y="710" type="curve" smooth="yes"/>
      <point x="104" y="710"/>
      <point x="85" y="708"/>
    </contour>
    <contour>
      <point x="548" y="-3" type="curve"/>
      <point x="539" y="33"/>
      <point x="535" y="70"/>
      <point x="535" y="110" type="curve" smooth="yes"/>
      <point x="535" y="643" type="line" smooth="yes"/>
      <point x="535" y="687"/>
      <point x="486" y="710"/>
      <point x="392" y="710" type="curve" smooth="yes"/>
      <point x="384" y="710"/>
      <point x="379" y="710"/>
      <point x="375" y="710" type="curve"/>
      <point x="375" y="60" type="line" smooth="yes"/>
      <point x="375" y="35"/>
      <point x="379" y="23"/>
      <point x="390" y="12" type="curve" smooth="yes"/>
      <point x="406" y="-4"/>
      <point x="431" y="-10"/>
      <point x="481" y="-10" type="curve" smooth="yes"/>
      <point x="506" y="-10"/>
      <point x="525" y="-8"/>
    </contour>
    <contour>
      <point x="25" y="400" type="line"/>
      <point x="25" y="375" type="line" smooth="yes"/>
      <point x="25" y="324"/>
      <point x="38" y="283"/>
      <point x="63" y="258" type="curve" smooth="yes"/>
      <point x="70" y="251"/>
      <point x="73" y="250"/>
      <point x="80" y="250" type="curve"/>
      <point x="409" y="250" type="line"/>
      <point x="409" y="362"/>
      <point x="383" y="400"/>
      <point x="302" y="400" type="curve" smooth="yes"/>
    </contour>
    <contour>
      <point x="286" y="711" type="move" name="top"/>
    </contour>
  </outline>
</glyph>
<glyph name="J" format="1">
  <advance width="600"/>
  <unicode hex="004A"/>
  <outline>
    <contour>
      <point x="126" y="700" type="line"/>
      <point x="123" y="691"/>
      <point x="121" y="679"/>
      <point x="121" y="664" type="curve" smooth="yes"/>
      <point x="121" y="626"/>
      <point x="130" y="597"/>
      <point x="150" y="577" type="curve" smooth="yes"/>
      <point x="172" y="555"/>
      <point x="202" y="550"/>
      <point x="275" y="550" type="curve" smooth="yes"/>
      <point x="443" y="550" type="line"/>
      <point x="443" y="660"/>
      <point x="417" y="700"/>
      <point x="368" y="700" type="curve"/>
    </contour>
    <contour>
      <point x="515" y="210" type="curve" smooth="yes"/>
      <point x="515" y="650" type="line" smooth="yes"/>
      <point x="515" y="679"/>
      <point x="479" y="700"/>
      <point x="390" y="700" type="curve" smooth="yes"/>
      <point x="356" y="700" type="line"/>
      <point x="356" y="230" type="line" smooth="yes"/>
      <point x="356" y="160"/>
      <point x="351" y="122"/>
      <point x="318" y="64" type="curve"/>
      <point x="422" y="21"/>
      <point x="515" y="131"/>
    </contour>
    <contour>
      <point x="285" y="130" type="curve" smooth="yes"/>
      <point x="204" y="130"/>
      <point x="171" y="148"/>
      <point x="98" y="185" type="curve"/>
      <point x="94" y="185" type="line"/>
      <point x="91" y="169"/>
      <point x="90" y="154"/>
      <point x="90" y="138" type="curve"/>
      <point x="90" y="70"/>
      <point x="108" y="36"/>
      <point x="123" y="21" type="curve" smooth="yes"/>
      <point x="149" y="-5"/>
      <point x="202" y="-20"/>
      <point x="250" y="-20" type="curve" smooth="yes"/>
      <point x="260" y="-20" type="line" smooth="yes"/>
      <point x="413" y="-20"/>
      <point x="515" y="105"/>
      <point x="515" y="210" type="curve"/>
      <point x="515" y="227"/>
      <point x="493" y="255"/>
      <point x="460" y="255" type="curve"/>
      <point x="422" y="181"/>
      <point x="357" y="130"/>
    </contour>
    <contour>
      <point x="302" y="711" type="move" name="top"/>
    </contour>
  </outline>
</glyph>
<glyph name="L" format="1">
  <advance width="600"/>
  <unicode hex="004C"/>
  <outline>
    <contour>
      <point x="225" y="73" type="curve"/>
      <point x="225" y="640" type="line" smooth="yes"/>
      <point x="225" y="665"/>
      <point x="221" y="677"/>
      <point x="210" y="688" type="curve" smooth="yes"/>
      <point x="194" y="704"/>
      <point x="169" y="710"/>
      <point x="119" y="710" type="curve" smooth="yes"/>
      <point x="94" y="710"/>
      <point x="75" y="708"/>
      <point x="52" y="703" type="curve"/>
      <point x="61" y="668"/>
      <point x="65" y="631"/>
      <point x="65" y="590" type="curve" smooth="yes"/>
      <point x="65" y="160" type="line" smooth="yes"/>
      <point x="65" y="119"/>
      <point x="123" y="73"/>
    </contour>
    <contour>
      <point x="65" y="160" type="line"/>
      <point x="65" y="132" type="line" smooth="yes"/>
      <point x="65" y="73"/>
      <point x="125" y="0"/>
      <point x="173" y="0" type="curve" smooth="yes"/>
      <point x="555" y="0" type="line"/>
      <point x="560" y="17"/>
      <point x="561" y="41"/>
      <point x="561" y="68" type="curve" smooth="yes"/>
      <point x="561" y="134"/>
      <point x="543" y="160"/>
      <point x="499" y="160" type="curve" smooth="yes"/>
    </contour>
    <contour>
      <point x="425" y="550" type="move" name="caronslovak"/>
    </contour>
    <contour>
      <point x="146" y="711" type="move" name="top"/>
    </contour>
    <contour>
      <point x="456" y="400" type="move" name="dot"/>
    </contour>
    <contour>
      <point x="306" y="-1" type="move" name="bottom"/>
    </contour>
  </outline>
</glyph>
<glyph name="M" format="1">
  <advance width="600"/>
  <unicode hex="004D"/>
  <outline>
    <contour>
      <point x="195" y="-7" type="curve"/>
      <point x="195" y="62"/>
      <point x="195" y="131"/>
      <point x="195" y="200" type="curve" smooth="yes"/>
      <point x="195" y="312"/>
      <point x="165" y="470"/>
      <point x="165" y="665" type="curve" smooth="yes"/>
      <point x="165" y="673"/>
      <point x="163" y="686"/>
      <point x="157" y="692" type="curve" smooth="yes"/>
      <point x="143" y="706"/>
      <point x="133" y="710"/>
      <point x="109" y="710" type="curve" smooth="yes"/>
      <point x="91" y="710"/>
      <point x="72" y="709"/>
      <point x="51" y="706" type="curve"/>
      <point x="54" y="673"/>
      <point x="55" y="636"/>
      <point x="55" y="600" type="curve" smooth="yes"/>
      <point x="55" y="55" type="line" smooth="yes"/>
      <point x="55" y="37"/>
      <point x="59" y="27"/>
      <point x="70" y="16" type="curve" smooth="yes"/>
      <point x="86" y="0"/>
      <point x="130" y="-10"/>
      <point x="164" y="-10" type="curve" smooth="yes"/>
      <point x="176" y="-10"/>
      <point x="187" y="-9"/>
    </contour>
    <contour>
      <point x="554" y="-6" type="curve"/>
      <point x="547" y="28"/>
      <point x="545" y="63"/>
      <point x="545" y="100" type="curve" smooth="yes"/>
      <point x="545" y="659" type="line" smooth="yes"/>
      <point x="545" y="669"/>
      <point x="541" y="678"/>
      <point x="534" y="685" type="curve" smooth="yes"/>
      <point x="522" y="697"/>
      <point x="489" y="710"/>
      <point x="443" y="710" type="curve" smooth="yes"/>
      <point x="435" y="710" type="line"/>
      <point x="440" y="694"/>
      <point x="440" y="686"/>
      <point x="440" y="670" type="curve" smooth="yes"/>
      <point x="440" y="543"/>
      <point x="405" y="308"/>
      <point x="405" y="200" type="curve" smooth="yes"/>
      <point x="405" y="152"/>
      <point x="405" y="103"/>
      <point x="405" y="55" type="curve" smooth="yes"/>
      <point x="405" y="37"/>
      <point x="409" y="27"/>
      <point x="420" y="16" type="curve" smooth="yes"/>
      <point x="436" y="0"/>
      <point x="480" y="-10"/>
      <point x="514" y="-10" type="curve"/>
      <point x="528" y="-10"/>
      <point x="539" y="-9"/>
    </contour>
    <contour>
      <point x="109" y="710" type="line"/>
      <point x="134" y="547"/>
      <point x="224" y="310"/>
      <point x="284" y="250" type="curve"/>
      <point x="288" y="246"/>
      <point x="292" y="245"/>
      <point x="297" y="245" type="curve"/>
      <point x="311" y="245"/>
      <point x="321" y="320"/>
      <point x="321" y="386" type="curve"/>
      <point x="277" y="434"/>
      <point x="240" y="532"/>
      <point x="220" y="674" type="curve"/>
      <point x="217" y="694"/>
      <point x="170" y="710"/>
      <point x="113" y="710" type="curve"/>
    </contour>
    <contour>
      <point x="435" y="710" type="curve" smooth="yes"/>
      <point x="418" y="710"/>
      <point x="404" y="709"/>
      <point x="389" y="706" type="curve"/>
      <point x="368" y="526"/>
      <point x="322" y="419"/>
      <point x="271" y="385" type="curve"/>
      <point x="256" y="374"/>
      <point x="270" y="245"/>
      <point x="297" y="245" type="curve"/>
      <point x="306" y="245" type="line"/>
      <point x="386" y="312"/>
      <point x="455" y="514"/>
      <point x="464" y="657" type="curve"/>
      <point x="466" y="690"/>
      <point x="453" y="710"/>
    </contour>
  </outline>
</glyph>
<glyph name="N" format="1">
  <advance width="600"/>
  <unicode hex="004E"/>
  <outline>
    <contour>
      <point x="215" y="-4" type="curve"/>
      <point x="215" y="101" type="line"/>
      <point x="215" y="443"/>
      <point x="183" y="671"/>
      <point x="161" y="693" type="curve" smooth="yes"/>
      <point x="153" y="701"/>
      <point x="138" y="710"/>
      <point x="130" y="710" type="curve"/>
      <point x="105" y="710"/>
      <point x="88" y="708"/>
      <point x="62" y="701" type="curve"/>
      <point x="71" y="665"/>
      <point x="75" y="630"/>
      <point x="75" y="590" type="curve" smooth="yes"/>
      <point x="75" y="57" type="line"/>
      <point x="75" y="8"/>
      <point x="135" y="-9"/>
      <point x="178" y="-9" type="curve"/>
      <point x="194" y="-9"/>
      <point x="203" y="-8"/>
    </contour>
    <contour>
      <point x="535" y="-10" type="line"/>
      <point x="535" y="651" type="line"/>
      <point x="535" y="691"/>
      <point x="484" y="710"/>
      <point x="420" y="710" type="curve"/>
      <point x="395" y="710" type="line"/>
      <point x="395" y="470" type="line"/>
      <point x="395" y="225"/>
      <point x="412" y="51"/>
      <point x="443" y="20" type="curve" smooth="yes"/>
      <point x="464" y="-1"/>
      <point x="492" y="-10"/>
      <point x="510" y="-10" type="curve"/>
    </contour>
    <contour>
      <point x="130" y="710" type="line"/>
      <point x="157" y="683"/>
      <point x="167" y="627"/>
      <point x="176" y="579" type="curve" smooth="yes"/>
      <point x="221" y="327"/>
      <point x="317" y="104"/>
      <point x="386" y="35" type="curve"/>
      <point x="415" y="6"/>
      <point x="461" y="-10"/>
      <point x="510" y="-10" type="curve" smooth="yes"/>
      <point x="514" y="-10"/>
      <point x="515" y="-10"/>
      <point x="519" y="-10" type="curve"/>
      <point x="524" y="-10"/>
      <point x="526" y="19"/>
      <point x="526" y="71" type="curve"/>
      <point x="370" y="203"/>
      <point x="312" y="436"/>
      <point x="257" y="667" type="curve"/>
      <point x="250" y="695"/>
      <point x="188" y="710"/>
      <point x="132" y="710" type="curve"/>
    </contour>
    <contour>
      <point x="300" y="712" type="move" name="top"/>
    </contour>
    <contour>
      <point x="298" y="-1" type="move" name="bottom"/>
    </contour>
  </outline>
</glyph>
<glyph name="O" format="1">
  <advance width="600"/>
  <unicode hex="004F"/>
  <outline>
    <contour>
      <point x="296" y="720" type="curve" smooth="yes"/>
      <point x="150" y="720"/>
      <point x="50" y="588"/>
      <point x="50" y="342" type="curve" smooth="yes"/>
      <point x="50" y="326" type="line" smooth="yes"/>
      <point x="50" y="93"/>
      <point x="139" y="-20"/>
      <point x="304" y="-20" type="curve" smooth="yes"/>
      <point x="347" y="-20"/>
      <point x="375" y="28"/>
      <point x="375" y="98" type="curve"/>
      <point x="248" y="98"/>
      <point x="200" y="158"/>
      <point x="200" y="299" type="curve" smooth="yes"/>
      <point x="200" y="312" type="line" smooth="yes"/>
      <point x="200" y="480"/>
      <point x="236" y="571"/>
      <point x="308" y="571" type="curve" smooth="yes"/>
      <point x="349" y="571"/>
      <point x="378" y="556"/>
      <point x="417" y="520" type="curve"/>
      <point x="477" y="575"/>
      <point x="394" y="720"/>
    </contour>
    <contour>
      <point x="304" y="-20" type="curve" smooth="yes"/>
      <point x="450" y="-20"/>
      <point x="550" y="112"/>
      <point x="550" y="358" type="curve" smooth="yes"/>
      <point x="550" y="374" type="line" smooth="yes"/>
      <point x="550" y="607"/>
      <point x="461" y="720"/>
      <point x="296" y="720" type="curve" smooth="yes"/>
      <point x="253" y="720"/>
      <point x="225" y="672"/>
      <point x="225" y="602" type="curve"/>
      <point x="352" y="602"/>
      <point x="400" y="542"/>
      <point x="400" y="401" type="curve" smooth="yes"/>
      <point x="400" y="388" type="line" smooth="yes"/>
      <point x="400" y="220"/>
      <point x="364" y="129"/>
      <point x="292" y="129" type="curve" smooth="yes"/>
      <point x="251" y="129"/>
      <point x="218" y="141"/>
      <point x="183" y="180" type="curve"/>
      <point x="118" y="120"/>
      <point x="206" y="-20"/>
    </contour>
    <contour>
      <point x="300" y="712" type="move" name="top"/>
    </contour>
    <contour>
      <point x="418" y="19" type="move" name="ogonek"/>
    </contour>
    <contour>
      <point x="300" y="-1" type="move" name="bottom"/>
    </contour>
  </outline>
</glyph>
<glyph name="P" format="1">
  <advance width="600"/>
  <unicode hex="0050"/>
  <outline>
    <contour>
      <point x="248" y="-3" type="curve"/>
      <point x="239" y="33"/>
      <point x="235" y="70"/>
      <point x="235" y="110" type="curve" smooth="yes"/>
      <point x="235" y="495" type="line" smooth="yes"/>
      <point x="235" y="576"/>
      <point x="183" y="609"/>
      <point x="75" y="609" type="curve"/>
      <point x="75" y="60" type="line" smooth="yes"/>
      <point x="75" y="35"/>
      <point x="79" y="23"/>
      <point x="90" y="12" type="curve" smooth="yes"/>
      <point x="106" y="-4"/>
      <point x="131" y="-10"/>
      <point x="181" y="-10" type="curve" smooth="yes"/>
      <point x="206" y="-10"/>
      <point x="225" y="-8"/>
    </contour>
    <contour>
      <point x="26" y="700" type="curve"/>
      <point x="22" y="683"/>
      <point x="20" y="666"/>
      <point x="20" y="643" type="curve"/>
      <point x="20" y="600"/>
      <point x="27" y="574"/>
      <point x="41" y="559" type="curve" smooth="yes"/>
      <point x="48" y="552"/>
      <point x="54" y="550"/>
      <point x="64" y="550" type="curve" smooth="yes"/>
      <point x="74" y="550"/>
      <point x="91" y="554"/>
      <point x="129" y="559" type="curve" smooth="yes"/>
      <point x="171" y="565"/>
      <point x="216" y="570"/>
      <point x="282" y="570" type="curve" smooth="yes"/>
      <point x="367" y="570"/>
      <point x="404" y="548"/>
      <point x="444" y="499" type="curve"/>
      <point x="543" y="598"/>
      <point x="443" y="720"/>
      <point x="295" y="720" type="curve" smooth="yes"/>
      <point x="205" y="720"/>
      <point x="111" y="714"/>
    </contour>
    <contour>
      <point x="550" y="502" type="curve" smooth="yes"/>
      <point x="550" y="509" type="line" smooth="yes"/>
      <point x="550" y="629"/>
      <point x="444" y="720"/>
      <point x="295" y="720" type="curve"/>
      <point x="256" y="720"/>
      <point x="243" y="696"/>
      <point x="243" y="654" type="curve"/>
      <point x="359" y="636"/>
      <point x="392" y="595"/>
      <point x="392" y="503" type="curve" smooth="yes"/>
      <point x="392" y="488" type="line" smooth="yes"/>
      <point x="392" y="353"/>
      <point x="351" y="300"/>
      <point x="288" y="300" type="curve" smooth="yes"/>
      <point x="256" y="300"/>
      <point x="243" y="303"/>
      <point x="217" y="310" type="curve"/>
      <point x="211" y="301"/>
      <point x="208" y="293"/>
      <point x="208" y="278" type="curve" smooth="yes"/>
      <point x="208" y="232"/>
      <point x="264" y="158"/>
      <point x="326" y="158" type="curve" smooth="yes"/>
      <point x="329" y="158" type="line" smooth="yes"/>
      <point x="445" y="158"/>
      <point x="550" y="274"/>
    </contour>
  </outline>
</glyph>
<glyph name="Q" format="1">
  <advance width="600"/>
  <unicode hex="0051"/>
  <outline>
    <contour>
      <point x="296" y="720" type="curve" smooth="yes"/>
      <point x="150" y="720"/>
      <point x="50" y="588"/>
      <point x="50" y="342" type="curve" smooth="yes"/>
      <point x="50" y="326" type="line" smooth="yes"/>
      <point x="50" y="93"/>
      <point x="139" y="-20"/>
      <point x="304" y="-20" type="curve" smooth="yes"/>
      <point x="347" y="-20"/>
      <point x="375" y="28"/>
      <point x="375" y="98" type="curve"/>
      <point x="248" y="98"/>
      <point x="200" y="158"/>
      <point x="200" y="299" type="curve" smooth="yes"/>
      <point x="200" y="312" type="line" smooth="yes"/>
      <point x="200" y="480"/>
      <point x="236" y="571"/>
      <point x="308" y="571" type="curve" smooth="yes"/>
      <point x="349" y="571"/>
      <point x="378" y="556"/>
      <point x="417" y="520" type="curve"/>
      <point x="477" y="575"/>
      <point x="394" y="720"/>
    </contour>
    <contour>
      <point x="304" y="-20" type="curve" smooth="yes"/>
      <point x="450" y="-20"/>
      <point x="550" y="112"/>
      <point x="550" y="358" type="curve" smooth="yes"/>
      <point x="550" y="374" type="line" smooth="yes"/>
      <point x="550" y="607"/>
      <point x="461" y="720"/>
      <point x="296" y="720" type="curve" smooth="yes"/>
      <point x="253" y="720"/>
      <point x="225" y="672"/>
      <point x="225" y="602" type="curve"/>
      <point x="352" y="602"/>
      <point x="400" y="542"/>
      <point x="400" y="401" type="curve" smooth="yes"/>
      <point x="400" y="388" type="line" smooth="yes"/>
      <point x="400" y="220"/>
      <point x="364" y="129"/>
      <point x="292" y="129" type="curve" smooth="yes"/>
      <point x="251" y="129"/>
      <point x="218" y="141"/>
      <point x="183" y="180" type="curve"/>
      <point x="118" y="120"/>
      <point x="206" y="-20"/>
    </contour>
    <contour>
      <point x="403" y="147" type="line"/>
      <point x="309" y="97"/>
      <point x="293" y="66"/>
      <point x="309" y="35" type="curve" smooth="yes"/>
      <point x="368" y="-77" type="line" smooth="yes"/>
      <point x="405" y="-147"/>
      <point x="445" y="-186"/>
      <point x="498" y="-186" type="curve" smooth="yes"/>
      <point x="503" y="-186" type="line" smooth="yes"/>
      <point x="556" y="-186"/>
      <point x="583" y="-155"/>
      <point x="583" y="-66" type="curve" smooth="yes"/>
      <point x="583" y="-40"/>
      <point x="580" y="-20"/>
      <point x="575" y="1" type="curve"/>
      <point x="571" y="1" type="line"/>
      <point x="559" y="-6"/>
      <point x="551" y="-8"/>
      <point x="534" y="-8" type="curve" smooth="yes"/>
      <point x="499" y="-8"/>
      <point x="485" y="3"/>
      <point x="469" y="31" type="curve" smooth="yes"/>
    </contour>
  </outline>
</glyph>
<glyph name="T" format="1">
  <advance width="600"/>
  <unicode hex="0054"/>
  <outline>
    <contour>
      <point x="32" y="700" type="line"/>
      <point x="29" y="691"/>
      <point x="28" y="679"/>
      <point x="28" y="668" type="curve" smooth="yes"/>
      <point x="28" y="639"/>
      <point x="36" y="598"/>
      <point x="57" y="577" type="curve" smooth="yes"/>
      <point x="79" y="555"/>
      <point x="113" y="550"/>
      <point x="195" y="550" type="curve" smooth="yes"/>
      <point x="558" y="550" type="line"/>
      <point x="562" y="565"/>
      <point x="564" y="585"/>
      <point x="564" y="608" type="curve" smooth="yes"/>
      <point x="564" y="659"/>
      <point x="556" y="700"/>
      <point x="502" y="700" type="curve" smooth="yes"/>
    </contour>
    <contour>
      <point x="393" y="-3" type="curve"/>
      <point x="384" y="33"/>
      <point x="380" y="70"/>
      <point x="380" y="110" type="curve" smooth="yes"/>
      <point x="380" y="477" type="line" smooth="yes"/>
      <point x="380" y="558"/>
      <point x="341" y="584"/>
      <point x="220" y="584" type="curve"/>
      <point x="220" y="60" type="line" smooth="yes"/>
      <point x="220" y="35"/>
      <point x="224" y="23"/>
      <point x="235" y="12" type="curve" smooth="yes"/>
      <point x="251" y="-4"/>
      <point x="276" y="-10"/>
      <point x="326" y="-10" type="curve" smooth="yes"/>
      <point x="351" y="-10"/>
      <point x="370" y="-8"/>
    </contour>
    <contour>
      <point x="296" y="711" type="move" name="top"/>
    </contour>
    <contour>
      <point x="300" y="-1" type="move" name="bottom"/>
    </contour>
  </outline>
</glyph>
<glyph name="U" format="1">
  <advance width="600"/>
  <unicode hex="0055"/>
  <outline>
    <contour>
      <point x="47" y="703" type="curve"/>
      <point x="56" y="668"/>
      <point x="60" y="631"/>
      <point x="60" y="590" type="curve" smooth="yes"/>
      <point x="60" y="138" type="line"/>
      <point x="60" y="96"/>
      <point x="109" y="83"/>
      <point x="186" y="83" type="curve"/>
      <point x="218" y="295"/>
      <point x="229" y="413"/>
      <point x="229" y="550" type="curve" smooth="yes"/>
      <point x="229" y="560" type="line"/>
      <point x="229" y="676"/>
      <point x="193" y="710"/>
      <point x="111" y="710" type="curve"/>
      <point x="87" y="710"/>
      <point x="69" y="708"/>
    </contour>
    <contour>
      <point x="201" y="-10" type="curve" smooth="yes"/>
      <point x="266" y="-10"/>
      <point x="343" y="25"/>
      <point x="395" y="117" type="curve" smooth="yes"/>
      <point x="431" y="184"/>
      <point x="422" y="217"/>
      <point x="394" y="271" type="curve"/>
      <point x="362" y="177"/>
      <point x="297" y="160"/>
      <point x="226" y="160" type="curve" smooth="yes"/>
      <point x="195" y="160"/>
      <point x="176" y="172"/>
      <point x="166" y="202" type="curve"/>
      <point x="136" y="202"/>
      <point x="60" y="173"/>
      <point x="60" y="138" type="curve" smooth="yes"/>
      <point x="60" y="72"/>
      <point x="137" y="-10"/>
    </contour>
    <contour>
      <point x="551" y="-3" type="curve"/>
      <point x="543" y="29"/>
      <point x="540" y="64"/>
      <point x="540" y="101" type="curve" smooth="yes"/>
      <point x="540" y="651" type="line" smooth="yes"/>
      <point x="540" y="692"/>
      <point x="502" y="710"/>
      <point x="423" y="710" type="curve" smooth="yes"/>
      <point x="405" y="710"/>
      <point x="394" y="709"/>
      <point x="380" y="706" type="curve"/>
      <point x="380" y="427" type="line" smooth="yes"/>
      <point x="380" y="149"/>
      <point x="400" y="54"/>
      <point x="438" y="16" type="curve" smooth="yes"/>
      <point x="458" y="-4"/>
      <point x="479" y="-10"/>
      <point x="504" y="-10" type="curve" smooth="yes"/>
      <point x="522" y="-10"/>
      <point x="536" y="-8"/>
    </contour>
    <contour>
      <point x="300" y="712" type="move" name="top"/>
    </contour>
    <contour>
      <point x="552" y="-3" type="move" name="ogonek"/>
    </contour>
    <contour>
      <point x="299" y="711" type="move" name="ring"/>
    </contour>
    <contour>
      <point x="299" y="-1" type="move" name="bottom"/>
    </contour>
  </outline>
</glyph>
<glyph name="V" format="1">
  <advance width="600"/>
  <unicode hex="0056"/>
  <outline>
    <contour>
      <point x="73" y="710" type="curve"/>
      <point x="49" y="710" type="line"/>
      <point x="60" y="366"/>
      <point x="107" y="144"/>
      <point x="214" y="37" type="curve" smooth="yes"/>
      <point x="256" y="-5"/>
      <point x="290" y="-10"/>
      <point x="319" y="-10" type="curve" smooth="yes"/>
      <point x="337" y="-10" type="line" smooth="yes"/>
      <point x="359" y="-10"/>
      <point x="390" y="25"/>
      <point x="405" y="77" type="curve"/>
      <point x="402" y="77"/>
      <point x="400" y="77"/>
      <point x="398" y="77" type="curve" smooth="yes"/>
      <point x="390" y="77"/>
      <point x="384" y="79"/>
      <point x="371" y="88" type="curve"/>
      <point x="266" y="162"/>
      <point x="227" y="279"/>
      <point x="209" y="660" type="curve"/>
      <point x="208" y="688"/>
      <point x="138" y="710"/>
    </contour>
    <contour>
      <point x="418" y="710" type="curve"/>
      <point x="394" y="710" type="line"/>
      <point x="371" y="333"/>
      <point x="355" y="196"/>
      <point x="256" y="114" type="curve"/>
      <point x="229" y="92"/>
      <point x="266" y="-10"/>
      <point x="330" y="-10" type="curve"/>
      <point x="359" y="-10" type="line"/>
      <point x="475" y="88"/>
      <point x="532" y="325"/>
      <point x="548" y="636" type="curve"/>
      <point x="550" y="679"/>
      <point x="483" y="710"/>
    </contour>
  </outline>
</glyph>
<glyph name="W" format="1">
  <advance width="600"/>
  <unicode hex="0057"/>
  <outline>
    <contour>
      <point x="28" y="710" type="curve"/>
      <point x="28" y="237"/>
      <point x="59" y="90"/>
      <point x="137" y="12" type="curve"/>
      <point x="151" y="-2"/>
      <point x="171" y="-10"/>
      <point x="190" y="-10" type="curve"/>
      <point x="193" y="-10" type="line" smooth="yes"/>
      <point x="207" y="-10"/>
      <point x="230" y="80"/>
      <point x="230" y="116" type="curve"/>
      <point x="188" y="140"/>
      <point x="182" y="208"/>
      <point x="182" y="650" type="curve"/>
      <point x="182" y="664"/>
      <point x="178" y="672"/>
      <point x="168" y="682" type="curve" smooth="yes"/>
      <point x="154" y="696"/>
      <point x="115" y="710"/>
      <point x="52" y="710" type="curve"/>
      <point x="44" y="710"/>
      <point x="36" y="710"/>
    </contour>
    <contour>
      <point x="418" y="710" type="curve"/>
      <point x="418" y="199"/>
      <point x="409" y="146"/>
      <point x="376" y="112" type="curve"/>
      <point x="378" y="53"/>
      <point x="404" y="-10"/>
      <point x="441" y="-10" type="curve"/>
      <point x="459" y="-10" type="line"/>
      <point x="528" y="118"/>
      <point x="572" y="264"/>
      <point x="572" y="643" type="curve"/>
      <point x="572" y="662"/>
      <point x="570" y="671"/>
      <point x="558" y="683" type="curve" smooth="yes"/>
      <point x="542" y="699"/>
      <point x="506" y="710"/>
      <point x="442" y="710" type="curve"/>
      <point x="434" y="710"/>
      <point x="426" y="710"/>
    </contour>
    <contour>
      <point x="277" y="525" type="curve"/>
      <point x="257" y="525" type="line"/>
      <point x="257" y="254"/>
      <point x="217" y="180"/>
      <point x="147" y="55" type="curve"/>
      <point x="148" y="18"/>
      <point x="161" y="-10"/>
      <point x="190" y="-10" type="curve"/>
      <point x="211" y="-10" type="line"/>
      <point x="287" y="128"/>
      <point x="328" y="270"/>
      <point x="328" y="475" type="curve"/>
      <point x="328" y="508"/>
      <point x="299" y="525"/>
    </contour>
    <contour>
      <point x="277" y="525" type="curve"/>
      <point x="272" y="525" type="line"/>
      <point x="281" y="234"/>
      <point x="311" y="105"/>
      <point x="392" y="8" type="curve"/>
      <point x="402" y="-4"/>
      <point x="415" y="-10"/>
      <point x="428" y="-10" type="curve"/>
      <point x="440" y="-10" type="line"/>
      <point x="457" y="-10"/>
      <point x="476" y="30"/>
      <point x="476" y="50" type="curve"/>
      <point x="415" y="100"/>
      <point x="345" y="231"/>
      <point x="345" y="485" type="curve"/>
      <point x="345" y="507"/>
      <point x="317" y="525"/>
    </contour>
    <contour>
      <point x="300" y="711" type="move" name="top"/>
    </contour>
  </outline>
</glyph>
<glyph name="Y" format="1">
  <advance width="600"/>
  <unicode hex="0059"/>
  <outline>
    <contour>
      <point x="48" y="710" type="line"/>
      <point x="70" y="475"/>
      <point x="116" y="326"/>
      <point x="205" y="237" type="curve"/>
      <point x="247" y="195"/>
      <point x="281" y="190"/>
      <point x="310" y="190" type="curve"/>
      <point x="358" y="190"/>
      <point x="385" y="204"/>
      <point x="385" y="281" type="curve"/>
      <point x="280" y="341"/>
      <point x="239" y="432"/>
      <point x="214" y="660" type="curve"/>
      <point x="211" y="688"/>
      <point x="138" y="710"/>
      <point x="72" y="710" type="curve" smooth="yes"/>
    </contour>
    <contour>
      <point x="396" y="710" type="line"/>
      <point x="373" y="472"/>
      <point x="346" y="383"/>
      <point x="247" y="302" type="curve"/>
      <point x="221" y="281"/>
      <point x="250" y="190"/>
      <point x="310" y="190" type="curve"/>
      <point x="350" y="190" type="line"/>
      <point x="448" y="273"/>
      <point x="529" y="442"/>
      <point x="547" y="636" type="curve"/>
      <point x="551" y="679"/>
      <point x="484" y="710"/>
      <point x="420" y="710" type="curve"/>
    </contour>
    <contour>
      <point x="393" y="-3" type="curve"/>
      <point x="384" y="33"/>
      <point x="380" y="70"/>
      <point x="380" y="110" type="curve" smooth="yes"/>
      <point x="380" y="253" type="line" smooth="yes"/>
      <point x="380" y="291"/>
      <point x="312" y="320"/>
      <point x="220" y="320" type="curve"/>
      <point x="220" y="60" type="line" smooth="yes"/>
      <point x="220" y="35"/>
      <point x="224" y="23"/>
      <point x="235" y="12" type="curve" smooth="yes"/>
      <point x="251" y="-4"/>
      <point x="276" y="-10"/>
      <point x="326" y="-10" type="curve" smooth="yes"/>
      <point x="351" y="-10"/>
      <point x="370" y="-8"/>
    </contour>
    <contour>
      <point x="300" y="712" type="move" name="top"/>
    </contour>
  </outline>
</glyph>
<glyph name="Z" format="1">
  <advance width="600"/>
  <unicode hex="005A"/>
  <outline>
    <contour>
      <point x="105" y="700" type="line"/>
      <point x="102" y="691"/>
      <point x="100" y="676"/>
      <point x="100" y="662" type="curve" smooth="yes"/>
      <point x="100" y="619"/>
      <point x="110" y="586"/>
      <point x="130" y="566" type="curve" smooth="yes"/>
      <point x="143" y="553"/>
      <point x="151" y="550"/>
      <point x="172" y="550" type="curve" smooth="yes"/>
      <point x="350" y="550" type="line" smooth="yes"/>
      <point x="429" y="550"/>
      <point x="472" y="530"/>
      <point x="518" y="483" type="curve" smooth="yes"/>
      <point x="537" y="504"/>
      <point x="550" y="522"/>
      <point x="550" y="535" type="curve"/>
      <point x="550" y="544" type="line" smooth="yes"/>
      <point x="550" y="623"/>
      <point x="488" y="700"/>
      <point x="428" y="700" type="curve" smooth="yes"/>
    </contour>
    <contour>
      <point x="416" y="602" type="curve"/>
      <point x="334" y="425"/>
      <point x="270" y="344"/>
      <point x="50" y="140" type="curve"/>
      <point x="50" y="102"/>
      <point x="120" y="84"/>
      <point x="175" y="107" type="curve" smooth="yes"/>
      <point x="290" y="155"/>
      <point x="550" y="452"/>
      <point x="550" y="535" type="curve"/>
      <point x="550" y="582"/>
      <point x="509" y="602"/>
    </contour>
    <contour>
      <point x="547" y="0" type="line"/>
      <point x="549" y="8"/>
      <point x="550" y="18"/>
      <point x="550" y="31" type="curve" smooth="yes"/>
      <point x="550" y="75"/>
      <point x="538" y="107"/>
      <point x="513" y="132" type="curve" smooth="yes"/>
      <point x="499" y="146"/>
      <point x="489" y="150"/>
      <point x="465" y="150" type="curve" smooth="yes"/>
      <point x="400" y="150" type="line" smooth="yes"/>
      <point x="289" y="150"/>
      <point x="154" y="146"/>
      <point x="50" y="140" type="curve"/>
      <point x="50" y="125" type="line" smooth="yes"/>
      <point x="50" y="47"/>
      <point x="71" y="0"/>
      <point x="105" y="0" type="curve" smooth="yes"/>
    </contour>
    <contour>
      <point x="208" y="460" type="curve"/>
      <point x="208" y="566"/>
      <point x="223" y="603"/>
      <point x="223" y="666" type="curve"/>
      <point x="223" y="695"/>
      <point x="163" y="720"/>
      <point x="94" y="720" type="curve" smooth="yes"/>
      <point x="88" y="720" type="line"/>
      <point x="69" y="658"/>
      <point x="60" y="590"/>
      <point x="60" y="516" type="curve"/>
      <point x="60" y="470"/>
      <point x="83" y="454"/>
      <point x="150" y="454" type="curve" smooth="yes"/>
      <point x="173" y="454"/>
      <point x="193" y="456"/>
    </contour>
    <contour>
      <point x="300" y="711" type="move" name="top"/>
    </contour>
  </outline>
</glyph>
<glyph name="bracketleft" format="1">
  <advance width="600"/>
  <unicode hex="005B"/>
  <outline>
    <contour>
      <point x="205" y="640" type="curve" smooth="yes"/>
      <point x="205" y="-14" type="line" smooth="yes"/>
      <point x="205" y="-68"/>
      <point x="294" y="-78"/>
      <point x="365" y="-78" type="curve"/>
      <point x="365" y="690" type="line" smooth="yes"/>
      <point x="365" y="751"/>
      <point x="343" y="760"/>
      <point x="259" y="760" type="curve" smooth="yes"/>
      <point x="234" y="760"/>
      <point x="215" y="758"/>
      <point x="192" y="753" type="curve"/>
      <point x="201" y="717"/>
      <point x="205" y="680"/>
    </contour>
    <contour>
      <point x="513" y="610" type="line"/>
      <point x="518" y="624"/>
      <point x="520" y="643"/>
      <point x="520" y="664" type="curve" smooth="yes"/>
      <point x="520" y="685"/>
      <point x="515" y="729"/>
      <point x="496" y="748" type="curve" smooth="yes"/>
      <point x="486" y="758"/>
      <point x="479" y="760"/>
      <point x="462" y="760" type="curve" smooth="yes"/>
      <point x="259" y="760" type="line"/>
      <point x="259" y="659"/>
      <point x="313" y="610"/>
      <point x="429" y="610" type="curve"/>
    </contour>
    <contour>
      <point x="515" y="-161" type="line"/>
      <point x="519" y="-146"/>
      <point x="521" y="-126"/>
      <point x="521" y="-103" type="curve" smooth="yes"/>
      <point x="521" y="-37"/>
      <point x="503" y="-11"/>
      <point x="459" y="-11" type="curve" smooth="yes"/>
      <point x="205" y="-11" type="line"/>
      <point x="205" y="-29" type="line" smooth="yes"/>
      <point x="205" y="-88"/>
      <point x="265" y="-161"/>
      <point x="313" y="-161" type="curve" smooth="yes"/>
    </contour>
  </outline>
</glyph>
<glyph name="b" format="1">
  <advance width="600"/>
  <unicode hex="0062"/>
  <outline>
    <contour>
      <point x="65" y="0" type="line"/>
      <point x="80" y="-4"/>
      <point x="100" y="-6"/>
      <point x="123" y="-6" type="curve" smooth="yes"/>
      <point x="189" y="-6"/>
      <point x="215" y="21"/>
      <point x="215" y="79" type="curve" smooth="yes"/>
      <point x="215" y="617" type="line"/>
      <point x="215" y="716"/>
      <point x="186" y="756"/>
      <point x="90" y="756" type="curve" smooth="yes"/>
      <point x="77" y="756"/>
      <point x="65" y="755"/>
      <point x="52" y="752" type="curve"/>
      <point x="61" y="716"/>
      <point x="65" y="685"/>
      <point x="65" y="646" type="curve" smooth="yes"/>
    </contour>
    <contour>
      <point x="405" y="552" type="curve" smooth="yes"/>
      <point x="312" y="552"/>
      <point x="216" y="461"/>
      <point x="192" y="363" type="curve" smooth="yes"/>
      <point x="180" y="314"/>
      <point x="186" y="244"/>
      <point x="204" y="206" type="curve"/>
      <point x="245" y="343"/>
      <point x="305" y="391"/>
      <point x="386" y="391" type="curve" smooth="yes"/>
      <point x="410" y="391"/>
      <point x="448" y="377"/>
      <point x="512" y="319" type="curve"/>
      <point x="545" y="323"/>
      <point x="560" y="334"/>
      <point x="560" y="344" type="curve" smooth="yes"/>
      <point x="560" y="456"/>
      <point x="483" y="552"/>
    </contour>
    <contour>
      <point x="350" y="-12" type="curve" smooth="yes"/>
      <point x="449" y="-12"/>
      <point x="560" y="85"/>
      <point x="560" y="322" type="curve" smooth="yes"/>
      <point x="560" y="344" type="line" smooth="yes"/>
      <point x="560" y="396"/>
      <point x="518" y="474"/>
      <point x="431" y="474" type="curve"/>
      <point x="404" y="474"/>
      <point x="382" y="458"/>
      <point x="382" y="413" type="curve"/>
      <point x="400" y="395"/>
      <point x="405" y="378"/>
      <point x="405" y="310" type="curve" smooth="yes"/>
      <point x="405" y="299" type="line" smooth="yes"/>
      <point x="405" y="191"/>
      <point x="369" y="132"/>
      <point x="295" y="132" type="curve" smooth="yes"/>
      <point x="252" y="132"/>
      <point x="222" y="146"/>
      <point x="198" y="172" type="curve"/>
      <point x="185" y="142"/>
      <point x="183" y="94"/>
      <point x="205" y="62" type="curve" smooth="yes"/>
      <point x="230" y="26"/>
      <point x="282" y="-12"/>
    </contour>
  </outline>
</glyph>
<glyph name="d" format="1">
  <advance width="600"/>
  <unicode hex="0064"/>
  <outline>
    <contour>
      <point x="250" y="552" type="curve" smooth="yes"/>
      <point x="151" y="552"/>
      <point x="40" y="455"/>
      <point x="40" y="218" type="curve" smooth="yes"/>
      <point x="40" y="196" type="line" smooth="yes"/>
      <point x="40" y="144"/>
      <point x="82" y="66"/>
      <point x="169" y="66" type="curve" smooth="yes"/>
      <point x="196" y="66"/>
      <point x="218" y="82"/>
      <point x="218" y="127" type="curve"/>
      <point x="200" y="145"/>
      <point x="195" y="162"/>
      <point x="195" y="230" type="curve" smooth="yes"/>
      <point x="195" y="241" type="line" smooth="yes"/>
      <point x="195" y="349"/>
      <point x="231" y="408"/>
      <point x="305" y="408" type="curve" smooth="yes"/>
      <point x="348" y="408"/>
      <point x="378" y="394"/>
      <point x="402" y="368" type="curve"/>
      <point x="415" y="398"/>
      <point x="417" y="446"/>
      <point x="395" y="478" type="curve" smooth="yes"/>
      <point x="370" y="514"/>
      <point x="318" y="552"/>
    </contour>
    <contour>
      <point x="195" y="-12" type="curve" smooth="yes"/>
      <point x="288" y="-12"/>
      <point x="384" y="79"/>
      <point x="408" y="177" type="curve" smooth="yes"/>
      <point x="420" y="226"/>
      <point x="414" y="296"/>
      <point x="396" y="334" type="curve"/>
      <point x="355" y="197"/>
      <point x="295" y="149"/>
      <point x="214" y="149" type="curve" smooth="yes"/>
      <point x="190" y="149"/>
      <point x="152" y="163"/>
      <point x="88" y="221" type="curve"/>
      <point x="55" y="217"/>
      <point x="40" y="206"/>
      <point x="40" y="196" type="curve" smooth="yes"/>
      <point x="40" y="84"/>
      <point x="117" y="-12"/>
    </contour>
    <contour>
      <point x="374" y="750" type="curve"/>
      <point x="382" y="714"/>
      <point x="385" y="684"/>
      <point x="385" y="646" type="curve" smooth="yes"/>
      <point x="385" y="213" type="line"/>
      <point x="385" y="119"/>
      <point x="412" y="54"/>
      <point x="441" y="25" type="curve" smooth="yes"/>
      <point x="461" y="5"/>
      <point x="485" y="-4"/>
      <point x="510" y="-4" type="curve" smooth="yes"/>
      <point x="524" y="-4"/>
      <point x="534" y="-3"/>
      <point x="548" y="0" type="curve"/>
      <point x="539" y="36"/>
      <point x="535" y="67"/>
      <point x="535" y="106" type="curve" smooth="yes"/>
      <point x="535" y="694" type="line"/>
      <point x="535" y="711"/>
      <point x="530" y="724"/>
      <point x="521" y="733" type="curve" smooth="yes"/>
      <point x="502" y="752"/>
      <point x="476" y="756"/>
      <point x="437" y="756" type="curve" smooth="yes"/>
      <point x="414" y="756"/>
      <point x="392" y="754"/>
    </contour>
    <contour>
      <point x="444" y="711" type="move" name="caronslovak"/>
    </contour>
  </outline>
</glyph>
<glyph name="h" format="1">
  <advance width="600"/>
  <unicode hex="0068"/>
  <outline>
    <contour>
      <point x="224" y="0" type="curve"/>
      <point x="224" y="617" type="line" smooth="yes"/>
      <point x="224" y="677"/>
      <point x="215" y="704"/>
      <point x="195" y="724" type="curve" smooth="yes"/>
      <point x="172" y="747"/>
      <point x="145" y="756"/>
      <point x="94" y="756" type="curve" smooth="yes"/>
      <point x="81" y="756"/>
      <point x="69" y="755"/>
      <point x="56" y="752" type="curve"/>
      <point x="65" y="716"/>
      <point x="69" y="685"/>
      <point x="69" y="646" type="curve" smooth="yes"/>
      <point x="69" y="56" type="line" smooth="yes"/>
      <point x="69" y="2"/>
      <point x="111" y="-6"/>
      <point x="168" y="-6" type="curve" smooth="yes"/>
      <point x="190" y="-6"/>
      <point x="209" y="-4"/>
    </contour>
    <contour>
      <point x="420" y="552" type="curve" smooth="yes"/>
      <point x="327" y="552"/>
      <point x="238" y="454"/>
      <point x="212" y="338" type="curve" smooth="yes"/>
      <point x="193" y="251"/>
      <point x="195" y="163"/>
      <point x="215" y="106" type="curve"/>
      <point x="252" y="336"/>
      <point x="307" y="385"/>
      <point x="363" y="385" type="curve" smooth="yes"/>
      <point x="388" y="385"/>
      <point x="412" y="363"/>
      <point x="430" y="318" type="curve"/>
      <point x="488" y="318"/>
      <point x="529" y="349"/>
      <point x="529" y="384" type="curve" smooth="yes"/>
      <point x="529" y="461"/>
      <point x="478" y="552"/>
    </contour>
    <contour>
      <point x="550" y="0" type="curve"/>
      <point x="534" y="59"/>
      <point x="529" y="95"/>
      <point x="529" y="159" type="curve" smooth="yes"/>
      <point x="529" y="384" type="line"/>
      <point x="529" y="411"/>
      <point x="500" y="427"/>
      <point x="404" y="424" type="curve"/>
      <point x="382" y="319"/>
      <point x="363" y="217"/>
      <point x="363" y="134" type="curve" smooth="yes"/>
      <point x="363" y="129" type="line" smooth="yes"/>
      <point x="363" y="22"/>
      <point x="407" y="-6"/>
      <point x="492" y="-6" type="curve" smooth="yes"/>
      <point x="513" y="-6"/>
      <point x="530" y="-4"/>
    </contour>
    <contour>
      <point x="143" y="730" type="move" name="top"/>
    </contour>
  </outline>
</glyph>
<glyph name="i" format="1">
  <advance width="600"/>
  <unicode hex="0069"/>
  <outline>
    <contour>
      <point x="56" y="540" type="curve"/>
      <point x="52" y="525"/>
      <point x="50" y="505"/>
      <point x="50" y="482" type="curve" smooth="yes"/>
      <point x="50" y="424"/>
      <point x="66" y="390"/>
      <point x="93" y="390" type="curve" smooth="yes"/>
      <point x="138" y="390"/>
      <point x="176" y="398"/>
      <point x="283" y="438" type="curve"/>
      <point x="283" y="516"/>
      <point x="276" y="550"/>
      <point x="240" y="550" type="curve" smooth="yes"/>
      <point x="174" y="550"/>
      <point x="112" y="547"/>
    </contour>
    <contour>
      <point x="374" y="518" type="curve" smooth="yes"/>
      <point x="354" y="538"/>
      <point x="307" y="550"/>
      <point x="250" y="550" type="curve" smooth="yes"/>
      <point x="240" y="550" type="line"/>
      <point x="240" y="245" type="line" smooth="yes"/>
      <point x="240" y="125"/>
      <point x="283" y="77"/>
      <point x="390" y="77" type="curve"/>
      <point x="390" y="479" type="line" smooth="yes"/>
      <point x="390" y="498"/>
      <point x="387" y="505"/>
    </contour>
    <contour>
      <point x="50" y="150" type="line"/>
      <point x="50" y="144"/>
      <point x="50" y="138"/>
      <point x="50" y="131" type="curve" smooth="yes"/>
      <point x="50" y="72"/>
      <point x="58" y="38"/>
      <point x="76" y="20" type="curve" smooth="yes"/>
      <point x="91" y="5"/>
      <point x="111" y="0"/>
      <point x="157" y="0" type="curve"/>
      <point x="555" y="0" type="line"/>
      <point x="560" y="14"/>
      <point x="562" y="27"/>
      <point x="562" y="43" type="curve" smooth="yes"/>
      <point x="562" y="106"/>
      <point x="506" y="150"/>
      <point x="355" y="150" type="curve"/>
    </contour>
    <contour>
      <point x="405" y="625" type="curve"/>
      <point x="405" y="708" type="line" smooth="yes"/>
      <point x="405" y="762"/>
      <point x="356" y="770"/>
      <point x="295" y="770" type="curve" smooth="yes"/>
      <point x="272" y="770"/>
      <point x="242" y="768"/>
      <point x="217" y="764" type="curve"/>
      <point x="217" y="681" type="line" smooth="yes"/>
      <point x="217" y="627"/>
      <point x="266" y="619"/>
      <point x="327" y="619" type="curve" smooth="yes"/>
      <point x="350" y="619"/>
      <point x="380" y="621"/>
    </contour>
    <contour>
      <point x="556" y="0" type="move" name="ogonek"/>
    </contour>
    <contour>
      <point x="306" y="-1" type="move" name="bottom"/>
    </contour>
  </outline>
</glyph>
<glyph name="j" format="1">
  <advance width="600"/>
  <unicode hex="006A"/>
  <outline>
    <contour>
      <point x="56" y="540" type="curve"/>
      <point x="52" y="525"/>
      <point x="50" y="505"/>
      <point x="50" y="482" type="curve" smooth="yes"/>
      <point x="50" y="415"/>
      <point x="70" y="385"/>
      <point x="99" y="385" type="curve" smooth="yes"/>
      <point x="145" y="385"/>
      <point x="213" y="392"/>
      <point x="343" y="418" type="curve"/>
      <point x="343" y="501"/>
      <point x="333" y="550"/>
      <point x="300" y="550" type="curve" smooth="yes"/>
      <point x="237" y="550"/>
      <point x="115" y="547"/>
    </contour>
    <contour>
      <point x="450" y="-6" type="curve" smooth="yes"/>
      <point x="450" y="479" type="line" smooth="yes"/>
      <point x="450" y="498"/>
      <point x="447" y="505"/>
      <point x="434" y="518" type="curve" smooth="yes"/>
      <point x="413" y="539"/>
      <point x="363" y="550"/>
      <point x="310" y="550" type="curve" smooth="yes"/>
      <point x="300" y="550" type="line"/>
      <point x="300" y="0" type="line" smooth="yes"/>
      <point x="300" y="-81"/>
      <point x="294" y="-113"/>
      <point x="261" y="-162" type="curve"/>
      <point x="321" y="-200"/>
      <point x="450" y="-105"/>
    </contour>
    <contour>
      <point x="197" y="-100" type="curve" smooth="yes"/>
      <point x="120" y="-100"/>
      <point x="74" y="-91"/>
      <point x="28" y="-71" type="curve"/>
      <point x="24" y="-71" type="line"/>
      <point x="21" y="-83"/>
      <point x="20" y="-95"/>
      <point x="20" y="-109" type="curve" smooth="yes"/>
      <point x="20" y="-153"/>
      <point x="31" y="-199"/>
      <point x="52" y="-220" type="curve" smooth="yes"/>
      <point x="70" y="-238"/>
      <point x="117" y="-250"/>
      <point x="209" y="-250" type="curve" smooth="yes"/>
      <point x="338" y="-250"/>
      <point x="452" y="-146"/>
      <point x="450" y="-6" type="curve" smooth="yes"/>
      <point x="450" y="7"/>
      <point x="432" y="24"/>
      <point x="403" y="24" type="curve"/>
      <point x="369" y="-83"/>
      <point x="278" y="-100"/>
    </contour>
    <contour>
      <point x="462" y="625" type="curve"/>
      <point x="462" y="708" type="line" smooth="yes"/>
      <point x="462" y="762"/>
      <point x="413" y="770"/>
      <point x="352" y="770" type="curve" smooth="yes"/>
      <point x="329" y="770"/>
      <point x="299" y="768"/>
      <point x="274" y="764" type="curve"/>
      <point x="274" y="681" type="line" smooth="yes"/>
      <point x="274" y="627"/>
      <point x="323" y="619"/>
      <point x="384" y="619" type="curve" smooth="yes"/>
      <point x="407" y="619"/>
      <point x="437" y="621"/>
    </contour>
  </outline>
</glyph>
<glyph name="l" format="1">
  <advance width="600"/>
  <unicode hex="006C"/>
  <outline>
    <contour>
      <point x="56" y="750" type="curve"/>
      <point x="52" y="735"/>
      <point x="50" y="715"/>
      <point x="50" y="692" type="curve" smooth="yes"/>
      <point x="50" y="634"/>
      <point x="66" y="600"/>
      <point x="93" y="600" type="curve" smooth="yes"/>
      <point x="138" y="600"/>
      <point x="176" y="608"/>
      <point x="283" y="648" type="curve"/>
      <point x="283" y="726"/>
      <point x="276" y="760"/>
      <point x="240" y="760" type="curve" smooth="yes"/>
      <point x="174" y="760"/>
      <point x="112" y="757"/>
    </contour>
    <contour>
      <point x="374" y="728" type="curve" smooth="yes"/>
      <point x="354" y="748"/>
      <point x="307" y="760"/>
      <point x="250" y="760" type="curve" smooth="yes"/>
      <point x="240" y="760" type="line"/>
      <point x="240" y="245" type="line" smooth="yes"/>
      <point x="240" y="125"/>
      <point x="283" y="77"/>
      <point x="390" y="77" type="curve"/>
      <point x="390" y="689" type="line" smooth="yes"/>
      <point x="390" y="708"/>
      <point x="387" y="715"/>
    </contour>
    <contour>
      <point x="50" y="150" type="line"/>
      <point x="50" y="144"/>
      <point x="50" y="138"/>
      <point x="50" y="131" type="curve" smooth="yes"/>
      <point x="50" y="72"/>
      <point x="58" y="38"/>
      <point x="76" y="20" type="curve" smooth="yes"/>
      <point x="91" y="5"/>
      <point x="111" y="0"/>
      <point x="157" y="0" type="curve"/>
      <point x="555" y="0" type="line"/>
      <point x="560" y="14"/>
      <point x="562" y="27"/>
      <point x="562" y="43" type="curve" smooth="yes"/>
      <point x="562" y="106"/>
      <point x="506" y="150"/>
      <point x="355" y="150" type="curve"/>
    </contour>
    <contour>
      <point x="510" y="700" type="move" name="caronslovak"/>
    </contour>
    <contour>
      <point x="321" y="761" type="move" name="top"/>
    </contour>
    <contour>
      <point x="506" y="400" type="move" name="dot"/>
    </contour>
    <contour>
      <point x="306" y="-1" type="move" name="bottom"/>
    </contour>
  </outline>
</glyph>
<glyph name="m" format="1">
  <advance width="600"/>
  <unicode hex="006D"/>
  <outline>
    <contour>
      <point x="180" y="0" type="curve"/>
      <point x="180" y="409" type="line" smooth="yes"/>
      <point x="180" y="491"/>
      <point x="169" y="506"/>
      <point x="152" y="523" type="curve" smooth="yes"/>
      <point x="132" y="543"/>
      <point x="100" y="546"/>
      <point x="69" y="546" type="curve" smooth="yes"/>
      <point x="55" y="546"/>
      <point x="41" y="545"/>
      <point x="27" y="542" type="curve"/>
      <point x="36" y="506"/>
      <point x="40" y="475"/>
      <point x="40" y="436" type="curve" smooth="yes"/>
      <point x="40" y="56" type="line" smooth="yes"/>
      <point x="40" y="2"/>
      <point x="65" y="-6"/>
      <point x="122" y="-6" type="curve" smooth="yes"/>
      <point x="145" y="-6"/>
      <point x="165" y="-4"/>
    </contour>
    <contour>
      <point x="275" y="550" type="curve" smooth="yes"/>
      <point x="224" y="550"/>
      <point x="175" y="472"/>
      <point x="164" y="391" type="curve" smooth="yes"/>
      <point x="160" y="365"/>
      <point x="162" y="329"/>
      <point x="172" y="301" type="curve"/>
      <point x="195" y="362"/>
      <point x="219" y="397"/>
      <point x="248" y="397" type="curve" smooth="yes"/>
      <point x="260" y="397"/>
      <point x="270" y="390"/>
      <point x="282" y="370" type="curve"/>
      <point x="304" y="389"/>
      <point x="342" y="418"/>
      <point x="342" y="438" type="curve" smooth="yes"/>
      <point x="342" y="503"/>
      <point x="304" y="550"/>
    </contour>
    <contour>
      <point x="342" y="0" type="curve"/>
      <point x="342" y="438" type="line" smooth="yes"/>
      <point x="342" y="478"/>
      <point x="329" y="485"/>
      <point x="278" y="471" type="curve"/>
      <point x="254" y="293"/>
      <point x="247" y="192"/>
      <point x="247" y="98" type="curve" smooth="yes"/>
      <point x="247" y="94" type="line" smooth="yes"/>
      <point x="247" y="28"/>
      <point x="270" y="-3"/>
      <point x="327" y="-3" type="curve" smooth="yes"/>
      <point x="332" y="-3"/>
      <point x="337" y="-2"/>
    </contour>
    <contour>
      <point x="463" y="552" type="curve" smooth="yes"/>
      <point x="409" y="552"/>
      <point x="343" y="480"/>
      <point x="322" y="407" type="curve" smooth="yes"/>
      <point x="313" y="375"/>
      <point x="312" y="342"/>
      <point x="334" y="301" type="curve"/>
      <point x="350" y="363"/>
      <point x="379" y="397"/>
      <point x="415" y="397" type="curve" smooth="yes"/>
      <point x="436" y="397"/>
      <point x="447" y="388"/>
      <point x="456" y="367" type="curve"/>
      <point x="533" y="383"/>
      <point x="560" y="400"/>
      <point x="560" y="428" type="curve" smooth="yes"/>
      <point x="560" y="473"/>
      <point x="508" y="552"/>
    </contour>
    <contour>
      <point x="581" y="0" type="curve"/>
      <point x="565" y="59"/>
      <point x="560" y="95"/>
      <point x="560" y="159" type="curve" smooth="yes"/>
      <point x="560" y="428" type="line" smooth="yes"/>
      <point x="560" y="444"/>
      <point x="524" y="457"/>
      <point x="443" y="457" type="curve"/>
      <point x="420" y="326"/>
      <point x="410" y="220"/>
      <point x="410" y="134" type="curve" smooth="yes"/>
      <point x="410" y="129" type="line" smooth="yes"/>
      <point x="410" y="22"/>
      <point x="438" y="-6"/>
      <point x="523" y="-6" type="curve" smooth="yes"/>
      <point x="544" y="-6"/>
      <point x="561" y="-4"/>
    </contour>
  </outline>
</glyph>
<glyph name="n" format="1">
  <advance width="600"/>
  <unicode hex="006E"/>
  <outline>
    <contour>
      <point x="218" y="0" type="curve"/>
      <point x="218" y="362" type="line" smooth="yes"/>
      <point x="218" y="442"/>
      <point x="202" y="484"/>
      <point x="172" y="514" type="curve" smooth="yes"/>
      <point x="148" y="538"/>
      <point x="122" y="546"/>
      <point x="89" y="546" type="curve" smooth="yes"/>
      <point x="76" y="546"/>
      <point x="64" y="545"/>
      <point x="51" y="542" type="curve"/>
      <point x="60" y="506"/>
      <point x="64" y="475"/>
      <point x="64" y="436" type="curve" smooth="yes"/>
      <point x="64" y="56" type="line" smooth="yes"/>
      <point x="64" y="2"/>
      <point x="104" y="-6"/>
      <point x="160" y="-6" type="curve" smooth="yes"/>
      <point x="183" y="-6"/>
      <point x="203" y="-4"/>
    </contour>
    <contour>
      <point x="420" y="552" type="curve" smooth="yes"/>
      <point x="323" y="552"/>
      <point x="228" y="457"/>
      <point x="203" y="343" type="curve" smooth="yes"/>
      <point x="183" y="252"/>
      <point x="187" y="179"/>
      <point x="209" y="114" type="curve"/>
      <point x="245" y="333"/>
      <point x="305" y="385"/>
      <point x="363" y="385" type="curve" smooth="yes"/>
      <point x="388" y="385"/>
      <point x="412" y="363"/>
      <point x="430" y="318" type="curve"/>
      <point x="488" y="318"/>
      <point x="529" y="349"/>
      <point x="529" y="384" type="curve" smooth="yes"/>
      <point x="529" y="461"/>
      <point x="478" y="552"/>
    </contour>
    <contour>
      <point x="550" y="0" type="curve"/>
      <point x="534" y="59"/>
      <point x="529" y="95"/>
      <point x="529" y="159" type="curve" smooth="yes"/>
      <point x="529" y="384" type="line"/>
      <point x="529" y="411"/>
      <point x="500" y="427"/>
      <point x="404" y="424" type="curve"/>
      <point x="382" y="319"/>
      <point x="363" y="217"/>
      <point x="363" y="134" type="curve" smooth="yes"/>
      <point x="363" y="129" type="line" smooth="yes"/>
      <point x="363" y="22"/>
      <point x="407" y="-6"/>
      <point x="492" y="-6" type="curve" smooth="yes"/>
      <point x="513" y="-6"/>
      <point x="530" y="-4"/>
    </contour>
    <contour>
      <point x="98" y="711" type="move" name="caronslovak"/>
    </contour>
    <contour>
      <point x="300" y="551" type="move" name="top"/>
    </contour>
    <contour>
      <point x="303" y="-1" type="move" name="bottom"/>
    </contour>
  </outline>
</glyph>
<glyph name="p" format="1">
  <advance width="600"/>
  <unicode hex="0070"/>
  <outline>
    <contour>
      <point x="215" y="-200" type="curve"/>
      <point x="215" y="329" type="line" smooth="yes"/>
      <point x="215" y="440"/>
      <point x="203" y="479"/>
      <point x="168" y="514" type="curve" smooth="yes"/>
      <point x="147" y="535"/>
      <point x="119" y="546"/>
      <point x="90" y="546" type="curve"/>
      <point x="76" y="546"/>
      <point x="66" y="545"/>
      <point x="52" y="542" type="curve"/>
      <point x="61" y="506"/>
      <point x="65" y="475"/>
      <point x="65" y="436" type="curve" smooth="yes"/>
      <point x="65" y="-144" type="line" smooth="yes"/>
      <point x="65" y="-198"/>
      <point x="106" y="-206"/>
      <point x="157" y="-206" type="curve"/>
      <point x="180" y="-206"/>
      <point x="200" y="-204"/>
    </contour>
    <contour>
      <point x="405" y="552" type="curve" smooth="yes"/>
      <point x="312" y="552"/>
      <point x="216" y="461"/>
      <point x="192" y="363" type="curve" smooth="yes"/>
      <point x="180" y="314"/>
      <point x="186" y="244"/>
      <point x="204" y="206" type="curve"/>
      <point x="245" y="343"/>
      <point x="305" y="391"/>
      <point x="386" y="391" type="curve" smooth="yes"/>
      <point x="410" y="391"/>
      <point x="448" y="377"/>
      <point x="512" y="319" type="curve"/>
      <point x="545" y="323"/>
      <point x="560" y="334"/>
      <point x="560" y="344" type="curve" smooth="yes"/>
      <point x="560" y="456"/>
      <point x="483" y="552"/>
    </contour>
    <contour>
      <point x="350" y="-12" type="curve" smooth="yes"/>
      <point x="449" y="-12"/>
      <point x="560" y="85"/>
      <point x="560" y="322" type="curve" smooth="yes"/>
      <point x="560" y="344" type="line" smooth="yes"/>
      <point x="560" y="396"/>
      <point x="518" y="474"/>
      <point x="431" y="474" type="curve" smooth="yes"/>
      <point x="404" y="474"/>
      <point x="382" y="458"/>
      <point x="382" y="413" type="curve"/>
      <point x="400" y="395"/>
      <point x="405" y="378"/>
      <point x="405" y="310" type="curve" smooth="yes"/>
      <point x="405" y="299" type="line" smooth="yes"/>
      <point x="405" y="191"/>
      <point x="369" y="132"/>
      <point x="295" y="132" type="curve" smooth="yes"/>
      <point x="252" y="132"/>
      <point x="222" y="146"/>
      <point x="198" y="172" type="curve"/>
      <point x="185" y="142"/>
      <point x="183" y="94"/>
      <point x="205" y="62" type="curve" smooth="yes"/>
      <point x="230" y="26"/>
      <point x="282" y="-12"/>
    </contour>
  </outline>
</glyph>
<glyph name="r" format="1">
  <advance width="600"/>
  <unicode hex="0072"/>
  <outline>
    <contour>
      <point x="51" y="540" type="curve"/>
      <point x="46" y="511"/>
      <point x="44" y="492"/>
      <point x="44" y="467" type="curve" smooth="yes"/>
      <point x="44" y="418"/>
      <point x="59" y="390"/>
      <point x="86" y="390" type="curve" smooth="yes"/>
      <point x="125" y="390"/>
      <point x="172" y="413"/>
      <point x="243" y="413" type="curve"/>
      <point x="243" y="508"/>
      <point x="228" y="550"/>
      <point x="193" y="550" type="curve" smooth="yes"/>
      <point x="145" y="550"/>
      <point x="87" y="547"/>
    </contour>
    <contour>
      <point x="320" y="77" type="curve"/>
      <point x="320" y="423" type="line" smooth="yes"/>
      <point x="320" y="499"/>
      <point x="264" y="550"/>
      <point x="193" y="550" type="curve" smooth="yes"/>
      <point x="184" y="550"/>
      <point x="177" y="547"/>
      <point x="170" y="540" type="curve"/>
      <point x="170" y="232" type="line" smooth="yes"/>
      <point x="170" y="125"/>
      <point x="217" y="77"/>
    </contour>
    <contour>
      <point x="50" y="150" type="line"/>
      <point x="50" y="144"/>
      <point x="50" y="138"/>
      <point x="50" y="131" type="curve" smooth="yes"/>
      <point x="50" y="72"/>
      <point x="58" y="38"/>
      <point x="76" y="20" type="curve" smooth="yes"/>
      <point x="91" y="5"/>
      <point x="111" y="0"/>
      <point x="157" y="0" type="curve"/>
      <point x="495" y="0" type="line"/>
      <point x="500" y="14"/>
      <point x="502" y="27"/>
      <point x="502" y="43" type="curve" smooth="yes"/>
      <point x="502" y="99"/>
      <point x="406" y="150"/>
      <point x="320" y="150" type="curve"/>
    </contour>
    <contour>
      <point x="313" y="193" type="curve"/>
      <point x="354" y="340"/>
      <point x="408" y="370"/>
      <point x="468" y="370" type="curve" smooth="yes"/>
      <point x="502" y="370"/>
      <point x="524" y="361"/>
      <point x="557" y="341" type="curve"/>
      <point x="561" y="341" type="line"/>
      <point x="568" y="368"/>
      <point x="572" y="397"/>
      <point x="572" y="430" type="curve"/>
      <point x="572" y="526"/>
      <point x="550" y="560"/>
      <point x="508" y="560" type="curve" smooth="yes"/>
      <point x="506" y="560" type="line" smooth="yes"/>
      <point x="430" y="560"/>
      <point x="325" y="475"/>
      <point x="291" y="305" type="curve" smooth="yes"/>
      <point x="286" y="280"/>
      <point x="291" y="252"/>
    </contour>
    <contour>
      <point x="308" y="551" type="move" name="top"/>
    </contour>
    <contour>
      <point x="308" y="-1" type="move" name="bottom"/>
    </contour>
  </outline>
</glyph>
<glyph name="t" format="1">
  <advance width="600"/>
  <unicode hex="0074"/>
  <outline>
    <contour>
      <point x="175" y="700" type="curve"/>
      <point x="175" y="163" type="line" smooth="yes"/>
      <point x="175" y="79"/>
      <point x="261" y="9"/>
      <point x="361" y="34" type="curve"/>
      <point x="335" y="75"/>
      <point x="325" y="125"/>
      <point x="325" y="175" type="curve" smooth="yes"/>
      <point x="325" y="644" type="line" smooth="yes"/>
      <point x="325" y="698"/>
      <point x="284" y="706"/>
      <point x="233" y="706" type="curve" smooth="yes"/>
      <point x="210" y="706"/>
      <point x="190" y="704"/>
    </contour>
    <contour>
      <point x="546" y="167" type="curve"/>
      <point x="542" y="167" type="line"/>
      <point x="491" y="145"/>
      <point x="453" y="138"/>
      <point x="385" y="138" type="curve" smooth="yes"/>
      <point x="321" y="138"/>
      <point x="262" y="155"/>
      <point x="226" y="202" type="curve"/>
      <point x="189" y="196"/>
      <point x="175" y="183"/>
      <point x="175" y="163" type="curve" smooth="yes"/>
      <point x="175" y="59"/>
      <point x="266" y="-12"/>
      <point x="380" y="-12" type="curve" smooth="yes"/>
      <point x="390" y="-12" type="line" smooth="yes"/>
      <point x="478" y="-12"/>
      <point x="508" y="18"/>
      <point x="518" y="28" type="curve" smooth="yes"/>
      <point x="536" y="46"/>
      <point x="550" y="80"/>
      <point x="550" y="129" type="curve" smooth="yes"/>
      <point x="550" y="141"/>
      <point x="549" y="154"/>
    </contour>
    <contour>
      <point x="41" y="540" type="line"/>
      <point x="41" y="534"/>
      <point x="41" y="528"/>
      <point x="41" y="521" type="curve" smooth="yes"/>
      <point x="41" y="470"/>
      <point x="50" y="440"/>
      <point x="68" y="422" type="curve" smooth="yes"/>
      <point x="93" y="397"/>
      <point x="126" y="390"/>
      <point x="217" y="390" type="curve" smooth="yes"/>
      <point x="545" y="390" type="line"/>
      <point x="549" y="407"/>
      <point x="552" y="430"/>
      <point x="552" y="453" type="curve" smooth="yes"/>
      <point x="552" y="519"/>
      <point x="535" y="540"/>
      <point x="479" y="540" type="curve" smooth="yes"/>
    </contour>
    <contour>
      <point x="470" y="700" type="move" name="caronslovak"/>
    </contour>
    <contour>
      <point x="376" y="-1" type="move" name="bottom"/>
    </contour>
  </outline>
</glyph>
<glyph name="v" format="1">
  <advance width="600"/>
  <unicode hex="0076"/>
  <outline>
    <contour>
      <point x="417" y="552" type="curve" smooth="yes"/>
      <point x="393" y="552" type="line"/>
      <point x="368" y="297"/>
      <point x="345" y="188"/>
      <point x="254" y="114" type="curve"/>
      <point x="227" y="92"/>
      <point x="257" y="-10"/>
      <point x="317" y="-10" type="curve"/>
      <point x="357" y="-10" type="line"/>
      <point x="458" y="75"/>
      <point x="527" y="265"/>
      <point x="547" y="478" type="curve"/>
      <point x="551" y="521"/>
      <point x="482" y="552"/>
    </contour>
    <contour>
      <point x="72" y="552" type="curve" smooth="yes"/>
      <point x="48" y="552" type="line"/>
      <point x="72" y="296"/>
      <point x="120" y="129"/>
      <point x="212" y="37" type="curve"/>
      <point x="254" y="-5"/>
      <point x="285" y="-10"/>
      <point x="314" y="-10" type="curve" smooth="yes"/>
      <point x="325" y="-10" type="line" smooth="yes"/>
      <point x="363" y="-10"/>
      <point x="391" y="23"/>
      <point x="407" y="72" type="curve"/>
      <point x="400" y="72"/>
      <point x="397" y="72"/>
      <point x="390" y="72" type="curve" smooth="yes"/>
      <point x="382" y="72"/>
      <point x="372" y="75"/>
      <point x="358" y="86" type="curve"/>
      <point x="279" y="149"/>
      <point x="238" y="266"/>
      <point x="212" y="502" type="curve"/>
      <point x="209" y="530"/>
      <point x="137" y="552"/>
    </contour>
  </outline>
</glyph>
<glyph name="w" format="1">
  <advance width="600"/>
  <unicode hex="0077"/>
  <outline>
    <contour>
      <point x="38" y="552" type="curve"/>
      <point x="38" y="244"/>
      <point x="59" y="91"/>
      <point x="138" y="12" type="curve" smooth="yes"/>
      <point x="152" y="-2"/>
      <point x="172" y="-10"/>
      <point x="191" y="-10" type="curve" smooth="yes"/>
      <point x="194" y="-10" type="line" smooth="yes"/>
      <point x="207" y="-10"/>
      <point x="231" y="48"/>
      <point x="231" y="86" type="curve" smooth="yes"/>
      <point x="185" y="112"/>
      <point x="172" y="208"/>
      <point x="172" y="498" type="curve"/>
      <point x="172" y="507"/>
      <point x="170" y="511"/>
      <point x="163" y="520" type="curve" smooth="yes"/>
      <point x="147" y="540"/>
      <point x="107" y="552"/>
      <point x="62" y="552" type="curve"/>
      <point x="54" y="552"/>
      <point x="46" y="552"/>
    </contour>
    <contour>
      <point x="269" y="425" type="curve" smooth="yes"/>
      <point x="257" y="425" type="line"/>
      <point x="257" y="212"/>
      <point x="214" y="147"/>
      <point x="148" y="55" type="curve"/>
      <point x="149" y="18"/>
      <point x="162" y="-10"/>
      <point x="191" y="-10" type="curve"/>
      <point x="212" y="-10" type="line"/>
      <point x="288" y="111"/>
      <point x="320" y="210"/>
      <point x="320" y="375" type="curve" smooth="yes"/>
      <point x="320" y="408"/>
      <point x="291" y="425"/>
    </contour>
    <contour>
      <point x="269" y="425" type="curve" smooth="yes"/>
      <point x="264" y="425" type="line"/>
      <point x="264" y="268"/>
      <point x="315" y="89"/>
      <point x="383" y="8" type="curve" smooth="yes"/>
      <point x="393" y="-4"/>
      <point x="406" y="-10"/>
      <point x="419" y="-10" type="curve" smooth="yes"/>
      <point x="429" y="-10" type="line" smooth="yes"/>
      <point x="455" y="-10"/>
      <point x="467" y="24"/>
      <point x="467" y="50" type="curve" smooth="yes"/>
      <point x="407" y="93"/>
      <point x="342" y="196"/>
      <point x="342" y="385" type="curve" smooth="yes"/>
      <point x="342" y="405"/>
      <point x="307" y="425"/>
    </contour>
    <contour>
      <point x="425" y="552" type="curve"/>
      <point x="425" y="217"/>
      <point x="416" y="150"/>
      <point x="377" y="82" type="curve"/>
      <point x="379" y="30"/>
      <point x="393" y="-10"/>
      <point x="424" y="-10" type="curve"/>
      <point x="448" y="-10" type="line"/>
      <point x="538" y="99"/>
      <point x="559" y="241"/>
      <point x="559" y="488" type="curve"/>
      <point x="559" y="502"/>
      <point x="558" y="507"/>
      <point x="553" y="512" type="curve" smooth="yes"/>
      <point x="528" y="537"/>
      <point x="483" y="552"/>
      <point x="449" y="552" type="curve"/>
      <point x="441" y="552"/>
      <point x="433" y="552"/>
    </contour>
    <contour>
      <point x="298" y="551" type="move" name="top"/>
    </contour>
  </outline>
</glyph>
<glyph name="y" format="1">
  <advance width="600"/>
  <unicode hex="0079"/>
  <outline>
    <contour>
      <point x="449" y="548" type="curve" smooth="yes"/>
      <point x="432" y="548"/>
      <point x="414" y="546"/>
      <point x="402" y="540" type="curve"/>
      <point x="371" y="158"/>
      <point x="312" y="26"/>
      <point x="242" y="-44" type="curve" smooth="yes"/>
      <point x="200" y="-86"/>
      <point x="149" y="-101"/>
      <point x="101" y="-101" type="curve" smooth="yes"/>
      <point x="76" y="-101" type="line"/>
      <point x="76" y="-105" type="line" smooth="yes"/>
      <point x="76" y="-188"/>
      <point x="107" y="-250"/>
      <point x="161" y="-250" type="curve" smooth="yes"/>
      <point x="163" y="-250" type="line" smooth="yes"/>
      <point x="227" y="-250"/>
      <point x="287" y="-221"/>
      <point x="341" y="-167" type="curve" smooth="yes"/>
      <point x="447" y="-61"/>
      <point x="536" y="182"/>
      <point x="558" y="487" type="curve" smooth="yes"/>
      <point x="561" y="527"/>
      <point x="516" y="548"/>
    </contour>
    <contour>
      <point x="91" y="547" type="curve" smooth="yes"/>
      <point x="72" y="547"/>
      <point x="55" y="545"/>
      <point x="38" y="540" type="curve"/>
      <point x="60" y="259"/>
      <point x="109" y="150"/>
      <point x="180" y="79" type="curve" smooth="yes"/>
      <point x="224" y="35"/>
      <point x="276" y="10"/>
      <point x="333" y="10" type="curve" smooth="yes"/>
      <point x="340" y="10" type="line" smooth="yes"/>
      <point x="372" y="10"/>
      <point x="391" y="33"/>
      <point x="391" y="98" type="curve"/>
      <point x="368" y="110" type="line"/>
      <point x="344" y="125"/>
      <point x="323" y="141"/>
      <point x="302" y="162" type="curve" smooth="yes"/>
      <point x="243" y="221"/>
      <point x="223" y="329"/>
      <point x="213" y="491" type="curve" smooth="yes"/>
      <point x="210" y="528"/>
      <point x="170" y="547"/>
    </contour>
    <contour>
      <point x="300" y="551" type="move" name="top"/>
    </contour>
  </outline>
</glyph>
<glyph name="z" format="1">
  <advance width="600"/>
  <unicode hex="007A"/>
  <outline>
    <contour>
      <point x="55" y="540" type="line"/>
      <point x="51" y="528"/>
      <point x="50" y="515"/>
      <point x="50" y="500" type="curve" smooth="yes"/>
      <point x="50" y="459"/>
      <point x="62" y="424"/>
      <point x="79" y="407" type="curve" smooth="yes"/>
      <point x="91" y="395"/>
      <point x="100" y="390"/>
      <point x="122" y="390" type="curve" smooth="yes"/>
      <point x="200" y="390" type="line" smooth="yes"/>
      <point x="297" y="390"/>
      <point x="456" y="393"/>
      <point x="550" y="407" type="curve"/>
      <point x="550" y="415" type="line" smooth="yes"/>
      <point x="550" y="457"/>
      <point x="529" y="495"/>
      <point x="501" y="523" type="curve" smooth="yes"/>
      <point x="488" y="536"/>
      <point x="476" y="540"/>
      <point x="452" y="540" type="curve" smooth="yes"/>
    </contour>
    <contour>
      <point x="427" y="467" type="curve"/>
      <point x="334" y="339"/>
      <point x="202" y="229"/>
      <point x="50" y="140" type="curve"/>
      <point x="50" y="99"/>
      <point x="121" y="85"/>
      <point x="175" y="107" type="curve" smooth="yes"/>
      <point x="315" y="166"/>
      <point x="550" y="355"/>
      <point x="550" y="407" type="curve"/>
      <point x="550" y="449"/>
      <point x="505" y="467"/>
    </contour>
    <contour>
      <point x="543" y="0" type="line"/>
      <point x="547" y="17"/>
      <point x="550" y="40"/>
      <point x="550" y="63" type="curve"/>
      <point x="550" y="129"/>
      <point x="533" y="150"/>
      <point x="475" y="150" type="curve" smooth="yes"/>
      <point x="400" y="150" type="line" smooth="yes"/>
      <point x="287" y="150"/>
      <point x="152" y="146"/>
      <point x="50" y="140" type="curve"/>
      <point x="50" y="125" type="line" smooth="yes"/>
      <point x="50" y="77"/>
      <point x="62" y="34"/>
      <point x="85" y="11" type="curve" smooth="yes"/>
      <point x="93" y="3"/>
      <point x="102" y="0"/>
      <point x="115" y="0" type="curve" smooth="yes"/>
    </contour>
    <contour>
      <point x="300" y="551" type="move" name="top"/>
    </contour>
  </outline>
</glyph>
<glyph name="braceleft" format="1">
  <advance width="600"/>
  <unicode hex="007B"/>
  <outline>
    <contour>
      <point x="440" y="620" type="curve" smooth="yes"/>
      <point x="470" y="620"/>
      <point x="497" y="617"/>
      <point x="513" y="612" type="curve"/>
      <point x="517" y="612" type="line"/>
      <point x="521" y="628"/>
      <point x="523" y="641"/>
      <point x="523" y="664" type="curve"/>
      <point x="523" y="721"/>
      <point x="487" y="770"/>
      <point x="448" y="770" type="curve" smooth="yes"/>
      <point x="444" y="770" type="line" smooth="yes"/>
      <point x="322" y="770"/>
      <point x="231" y="720"/>
      <point x="231" y="648" type="curve" smooth="yes"/>
      <point x="231" y="645" type="line" smooth="yes"/>
      <point x="231" y="608"/>
      <point x="268" y="575"/>
      <point x="310" y="571" type="curve"/>
      <point x="345" y="608"/>
      <point x="388" y="620"/>
    </contour>
    <contour>
      <point x="403" y="424" type="curve" smooth="yes"/>
      <point x="403" y="534"/>
      <point x="338" y="587"/>
      <point x="338" y="628" type="curve" smooth="yes"/>
      <point x="338" y="648"/>
      <point x="342" y="664"/>
      <point x="353" y="683" type="curve"/>
      <point x="291" y="700"/>
      <point x="231" y="690"/>
      <point x="231" y="645" type="curve" smooth="yes"/>
      <point x="231" y="640" type="line" smooth="yes"/>
      <point x="231" y="594"/>
      <point x="262" y="536"/>
      <point x="262" y="458" type="curve" smooth="yes"/>
      <point x="262" y="394"/>
      <point x="219" y="368"/>
      <point x="115" y="368" type="curve" smooth="yes"/>
      <point x="108" y="368" type="line"/>
      <point x="108" y="357" type="line" smooth="yes"/>
      <point x="108" y="322"/>
      <point x="117" y="284"/>
      <point x="161" y="284" type="curve" smooth="yes"/>
      <point x="185" y="284" type="line" smooth="yes"/>
      <point x="303" y="284"/>
      <point x="403" y="342"/>
    </contour>
    <contour>
      <point x="403" y="175" type="curve" smooth="yes"/>
      <point x="403" y="267"/>
      <point x="310" y="313"/>
      <point x="189" y="313" type="curve" smooth="yes"/>
      <point x="138" y="313"/>
      <point x="123" y="340"/>
      <point x="108" y="362" type="curve"/>
      <point x="108" y="354" type="line" smooth="yes"/>
      <point x="108" y="287"/>
      <point x="133" y="231"/>
      <point x="170" y="231" type="curve" smooth="yes"/>
      <point x="173" y="231" type="line" smooth="yes"/>
      <point x="221" y="231"/>
      <point x="262" y="204"/>
      <point x="262" y="141" type="curve" smooth="yes"/>
      <point x="262" y="63"/>
      <point x="231" y="1"/>
      <point x="231" y="-45" type="curve" smooth="yes"/>
      <point x="231" y="-50" type="line" smooth="yes"/>
      <point x="231" y="-95"/>
      <point x="291" y="-105"/>
      <point x="353" y="-88" type="curve"/>
      <point x="342" y="-69"/>
      <point x="338" y="-53"/>
      <point x="338" y="-33" type="curve" smooth="yes"/>
      <point x="338" y="8"/>
      <point x="403" y="71"/>
    </contour>
    <contour>
      <point x="418" y="-21" type="curve" smooth="yes"/>
      <point x="379" y="-21"/>
      <point x="337" y="-10"/>
      <point x="310" y="17" type="curve"/>
      <point x="263" y="10"/>
      <point x="231" y="-24"/>
      <point x="231" y="-47" type="curve" smooth="yes"/>
      <point x="231" y="-52" type="line" smooth="yes"/>
      <point x="231" y="-123"/>
      <point x="288" y="-172"/>
      <point x="435" y="-172" type="curve" smooth="yes"/>
      <point x="440" y="-172" type="line" smooth="yes"/>
      <point x="489" y="-172"/>
      <point x="520" y="-111"/>
      <point x="520" y="-16" type="curve"/>
      <point x="520" y="-8" type="line"/>
      <point x="516" y="-8" type="line"/>
      <point x="481" y="-17"/>
      <point x="458" y="-21"/>
    </contour>
  </outline>
</glyph>
<glyph name="yen" format="1">
  <advance width="600"/>
  <unicode hex="00A5"/>
  <outline>
    <contour>
      <point x="5" y="430" type="line"/>
      <point x="5" y="424"/>
      <point x="5" y="418"/>
      <point x="5" y="411" type="curve" smooth="yes"/>
      <point x="5" y="363"/>
      <point x="15" y="336"/>
      <point x="31" y="320" type="curve" smooth="yes"/>
      <point x="46" y="305"/>
      <point x="66" y="300"/>
      <point x="112" y="300" type="curve"/>
      <point x="195" y="300" type="line"/>
      <point x="199" y="321"/>
      <point x="202" y="344"/>
      <point x="202" y="363" type="curve" smooth="yes"/>
      <point x="202" y="413"/>
      <point x="185" y="430"/>
      <point x="129" y="430" type="curve"/>
    </contour>
    <contour>
      <point x="363" y="430" type="line"/>
      <point x="357" y="409"/>
      <point x="353" y="393"/>
      <point x="353" y="368" type="curve" smooth="yes"/>
      <point x="353" y="329"/>
      <point x="384" y="300"/>
      <point x="415" y="300" type="curve"/>
      <point x="588" y="300" type="line"/>
      <point x="592" y="321"/>
      <point x="595" y="344"/>
      <point x="595" y="363" type="curve" smooth="yes"/>
      <point x="595" y="413"/>
      <point x="578" y="430"/>
      <point x="522" y="430" type="curve"/>
    </contour>
    <contour>
      <point x="582" y="95" type="line"/>
      <point x="584" y="104"/>
      <point x="585" y="116"/>
      <point x="585" y="127" type="curve" smooth="yes"/>
      <point x="585" y="166"/>
      <point x="575" y="189"/>
      <point x="559" y="205" type="curve" smooth="yes"/>
      <point x="544" y="220"/>
      <point x="524" y="225"/>
      <point x="478" y="225" type="curve"/>
      <point x="22" y="225" type="line"/>
      <point x="18" y="204"/>
      <point x="15" y="181"/>
      <point x="15" y="162" type="curve" smooth="yes"/>
      <point x="15" y="111"/>
      <point x="32" y="95"/>
      <point x="88" y="95" type="curve"/>
    </contour>
    <contour>
      <point x="48" y="710" type="line"/>
      <point x="70" y="475"/>
      <point x="116" y="326"/>
      <point x="205" y="237" type="curve"/>
      <point x="247" y="195"/>
      <point x="281" y="190"/>
      <point x="310" y="190" type="curve"/>
      <point x="358" y="190"/>
      <point x="385" y="204"/>
      <point x="385" y="281" type="curve"/>
      <point x="280" y="341"/>
      <point x="239" y="432"/>
      <point x="214" y="660" type="curve"/>
      <point x="211" y="688"/>
      <point x="138" y="710"/>
      <point x="72" y="710" type="curve" smooth="yes"/>
    </contour>
    <contour>
      <point x="396" y="710" type="line"/>
      <point x="373" y="472"/>
      <point x="346" y="383"/>
      <point x="247" y="302" type="curve"/>
      <point x="221" y="281"/>
      <point x="250" y="190"/>
      <point x="310" y="190" type="curve"/>
      <point x="350" y="190" type="line"/>
      <point x="448" y="273"/>
      <point x="529" y="442"/>
      <point x="547" y="636" type="curve"/>
      <point x="551" y="679"/>
      <point x="484" y="710"/>
      <point x="420" y="710" type="curve"/>
    </contour>
    <contour>
      <point x="393" y="-3" type="curve"/>
      <point x="384" y="33"/>
      <point x="380" y="70"/>
      <point x="380" y="110" type="curve" smooth="yes"/>
      <point x="380" y="253" type="line" smooth="yes"/>
      <point x="380" y="291"/>
      <point x="312" y="320"/>
      <point x="220" y="320" type="curve"/>
      <point x="220" y="60" type="line" smooth="yes"/>
      <point x="220" y="35"/>
      <point x="224" y="23"/>
      <point x="235" y="12" type="curve" smooth="yes"/>
      <point x="251" y="-4"/>
      <point x="276" y="-10"/>
      <point x="326" y="-10" type="curve" smooth="yes"/>
      <point x="351" y="-10"/>
      <point x="370" y="-8"/>
    </contour>
  </outline>
</glyph>
<glyph name="acute" format="1">
  <advance width="600"/>
  <unicode hex="00B4"/>
  <outline>
    <contour>
      <point x="300" y="611" type="curve" smooth="yes"/>
      <point x="332" y="611"/>
      <point x="355" y="618"/>
      <point x="370" y="627" type="curve" smooth="yes"/>
      <point x="419" y="655"/>
      <point x="439" y="683"/>
      <point x="462" y="747" type="curve"/>
      <point x="468" y="763"/>
      <point x="464" y="782"/>
      <point x="447" y="790" type="curve" smooth="yes"/>
      <point x="410" y="808"/>
      <point x="378" y="814"/>
      <point x="332" y="814" type="curve"/>
      <point x="311" y="730"/>
      <point x="281" y="692"/>
      <point x="220" y="627" type="curve"/>
      <point x="252" y="614"/>
      <point x="271" y="611"/>
    </contour>
  </outline>
</glyph>
<glyph name="paragraph" format="1">
  <advance width="600"/>
  <unicode hex="00B6"/>
  <outline>
    <contour>
      <point x="332" y="-150" type="curve"/>
      <point x="332" y="460" type="line"/>
      <point x="332" y="599"/>
      <point x="296" y="630"/>
      <point x="246" y="630" type="curve" smooth="yes"/>
      <point x="231" y="630"/>
      <point x="223" y="626"/>
      <point x="210" y="617" type="curve"/>
      <point x="210" y="-74" type="line" smooth="yes"/>
      <point x="210" y="-134"/>
      <point x="231" y="-160"/>
      <point x="288" y="-160" type="curve" smooth="yes"/>
      <point x="308" y="-160"/>
      <point x="320" y="-157"/>
    </contour>
    <contour>
      <point x="538" y="-153" type="curve"/>
      <point x="529" y="-117"/>
      <point x="525" y="-80"/>
      <point x="525" y="-40" type="curve" smooth="yes"/>
      <point x="525" y="564" type="line" smooth="yes"/>
      <point x="525" y="608"/>
      <point x="491" y="631"/>
      <point x="420" y="631" type="curve" smooth="yes"/>
      <point x="412" y="631"/>
      <point x="407" y="631"/>
      <point x="403" y="631" type="curve"/>
      <point x="403" y="-70" type="line" smooth="yes"/>
      <point x="403" y="-134"/>
      <point x="427" y="-160"/>
      <point x="482" y="-160" type="curve" smooth="yes"/>
      <point x="505" y="-160"/>
      <point x="520" y="-158"/>
    </contour>
    <contour>
      <point x="377" y="710" type="line" smooth="yes"/>
      <point x="172" y="710"/>
      <point x="31" y="589"/>
      <point x="31" y="412" type="curve" smooth="yes"/>
      <point x="31" y="402" type="line" smooth="yes"/>
      <point x="31" y="294"/>
      <point x="86" y="226"/>
      <point x="169" y="226" type="curve" smooth="yes"/>
      <point x="175" y="226" type="line" smooth="yes"/>
      <point x="220" y="226"/>
      <point x="325" y="248"/>
      <point x="325" y="343" type="curve"/>
      <point x="315" y="343" type="line" smooth="yes"/>
      <point x="282" y="343"/>
      <point x="270" y="367"/>
      <point x="270" y="410" type="curve" smooth="yes"/>
      <point x="270" y="418" type="line" smooth="yes"/>
      <point x="270" y="509"/>
      <point x="298" y="573"/>
      <point x="369" y="573" type="curve" smooth="yes"/>
      <point x="450" y="573"/>
      <point x="503" y="566"/>
      <point x="568" y="544" type="curve"/>
      <point x="572" y="544" type="line"/>
      <point x="577" y="564"/>
      <point x="579" y="581"/>
      <point x="579" y="601" type="curve" smooth="yes"/>
      <point x="579" y="631"/>
      <point x="571" y="652"/>
      <point x="554" y="669" type="curve" smooth="yes"/>
      <point x="530" y="693"/>
      <point x="479" y="710"/>
      <point x="380" y="710" type="curve" smooth="yes"/>
    </contour>
  </outline>
</glyph>
<glyph name="onequarter" format="1">
  <advance width="600"/>
  <unicode hex="00BC"/>
  <outline>
    <contour>
      <point x="220" y="428" type="curve"/>
      <point x="220" y="510"/>
      <point x="220" y="595"/>
      <point x="220" y="674" type="curve" smooth="yes"/>
      <point x="220" y="701"/>
      <point x="183" y="710"/>
      <point x="126" y="710" type="curve" smooth="yes"/>
      <point x="123" y="710" type="line"/>
      <point x="123" y="650"/>
      <point x="123" y="586"/>
      <point x="123" y="527" type="curve" smooth="yes"/>
      <point x="123" y="448"/>
      <point x="164" y="428"/>
    </contour>
    <contour>
      <point x="18" y="473" type="line"/>
      <point x="16" y="463"/>
      <point x="15" y="453"/>
      <point x="15" y="443" type="curve" smooth="yes"/>
      <point x="15" y="382"/>
      <point x="33" y="366"/>
      <point x="92" y="366" type="curve" smooth="yes"/>
      <point x="294" y="366" type="line"/>
      <point x="297" y="378"/>
      <point x="299" y="395"/>
      <point x="299" y="411" type="curve" smooth="yes"/>
      <point x="299" y="458"/>
      <point x="287" y="473"/>
      <point x="247" y="473" type="curve" smooth="yes"/>
    </contour>
    <contour>
      <point x="63" y="533" type="curve" smooth="yes"/>
      <point x="110" y="533"/>
      <point x="170" y="629"/>
      <point x="170" y="660" type="curve" smooth="yes"/>
      <point x="170" y="685"/>
      <point x="171" y="710"/>
      <point x="124" y="710" type="curve"/>
      <point x="117" y="710" type="line"/>
      <point x="91" y="671"/>
      <point x="64" y="648"/>
      <point x="22" y="627" type="curve"/>
      <point x="22" y="606" type="line" smooth="yes"/>
      <point x="22" y="562"/>
      <point x="38" y="533"/>
    </contour>
    <contour>
      <point x="360" y="115" type="curve"/>
      <point x="372" y="189"/>
      <point x="442" y="268"/>
      <point x="535" y="306" type="curve"/>
      <point x="535" y="309" type="line"/>
      <point x="516" y="334"/>
      <point x="485" y="344"/>
      <point x="438" y="344" type="curve" smooth="yes"/>
      <point x="398" y="344"/>
      <point x="378" y="336"/>
      <point x="357" y="315" type="curve" smooth="yes"/>
      <point x="312" y="270"/>
      <point x="274" y="189"/>
      <point x="274" y="137" type="curve" smooth="yes"/>
      <point x="274" y="122"/>
      <point x="305" y="115"/>
    </contour>
    <contour>
      <point x="588" y="68" type="line"/>
      <point x="591" y="77"/>
      <point x="592" y="89"/>
      <point x="592" y="99" type="curve" smooth="yes"/>
      <point x="592" y="134"/>
      <point x="585" y="167"/>
      <point x="559" y="167" type="curve" smooth="yes"/>
      <point x="471" y="167" type="line" smooth="yes"/>
      <point x="418" y="167"/>
      <point x="333" y="155"/>
      <point x="274" y="137" type="curve"/>
      <point x="274" y="133" type="line" smooth="yes"/>
      <point x="274" y="108"/>
      <point x="297" y="68"/>
      <point x="325" y="68" type="curve" smooth="yes"/>
    </contour>
    <contour>
      <point x="556" y="-3" type="curve"/>
      <point x="551" y="16"/>
      <point x="549" y="32"/>
      <point x="549" y="52" type="curve" smooth="yes"/>
      <point x="549" y="200" type="line" smooth="yes"/>
      <point x="549" y="219"/>
      <point x="516" y="237"/>
      <point x="485" y="237" type="curve" smooth="yes"/>
      <point x="483" y="237" type="line"/>
      <point x="454" y="207"/>
      <point x="443" y="160"/>
      <point x="443" y="131" type="curve" smooth="yes"/>
      <point x="443" y="29" type="line" smooth="yes"/>
      <point x="443" y="3"/>
      <point x="485" y="-6"/>
      <point x="522" y="-6" type="curve" smooth="yes"/>
      <point x="534" y="-6"/>
      <point x="546" y="-5"/>
    </contour>
    <contour>
      <point x="346" y="411" type="curve"/>
      <point x="361" y="402"/>
      <point x="383" y="397"/>
      <point x="411" y="397" type="curve" smooth="yes"/>
      <point x="444" y="397"/>
      <point x="458" y="403"/>
      <point x="481" y="426" type="curve" smooth="yes"/>
      <point x="546" y="491"/>
      <point x="575" y="581"/>
      <point x="575" y="650" type="curve" smooth="yes"/>
      <point x="575" y="691"/>
      <point x="546" y="713"/>
      <point x="487" y="713" type="curve" smooth="yes"/>
      <point x="462" y="713"/>
      <point x="450" y="712"/>
      <point x="434" y="707" type="curve"/>
      <point x="423" y="605"/>
      <point x="401" y="500"/>
    </contour>
    <contour>
      <point x="254" y="289" type="curve"/>
      <point x="239" y="298"/>
      <point x="217" y="303"/>
      <point x="189" y="303" type="curve" smooth="yes"/>
      <point x="156" y="303"/>
      <point x="142" y="297"/>
      <point x="119" y="274" type="curve" smooth="yes"/>
      <point x="54" y="209"/>
      <point x="25" y="119"/>
      <point x="25" y="50" type="curve" smooth="yes"/>
      <point x="25" y="9"/>
      <point x="54" y="-13"/>
      <point x="113" y="-13" type="curve" smooth="yes"/>
      <point x="138" y="-13"/>
      <point x="150" y="-12"/>
      <point x="166" y="-7" type="curve"/>
      <point x="177" y="95"/>
      <point x="199" y="200"/>
    </contour>
  </outline>
</glyph>
<glyph name="questiondown" format="1">
  <advance width="600"/>
  <unicode hex="00BF"/>
  <outline>
    <contour>
      <point x="311" y="-185" type="curve" smooth="yes"/>
      <point x="397" y="-185"/>
      <point x="470" y="-165"/>
      <point x="503" y="-132" type="curve" smooth="yes"/>
      <point x="524" y="-111"/>
      <point x="535" y="-75"/>
      <point x="535" y="-34" type="curve" smooth="yes"/>
      <point x="535" y="-7"/>
      <point x="532" y="11"/>
      <point x="524" y="31" type="curve"/>
      <point x="520" y="31" type="line"/>
      <point x="457" y="-14"/>
      <point x="389" y="-35"/>
      <point x="304" y="-35" type="curve" smooth="yes"/>
      <point x="219" y="-35"/>
      <point x="192" y="-13"/>
      <point x="192" y="17" type="curve" smooth="yes"/>
      <point x="192" y="43"/>
      <point x="195" y="61"/>
      <point x="201" y="82" type="curve"/>
      <point x="121" y="89"/>
      <point x="81" y="48"/>
      <point x="81" y="8" type="curve" smooth="yes"/>
      <point x="81" y="-94"/>
      <point x="155" y="-185"/>
    </contour>
    <contour>
      <point x="266" y="-102" type="curve"/>
      <point x="238" y="-60"/>
      <point x="232" y="-42"/>
      <point x="232" y="-6" type="curve" smooth="yes"/>
      <point x="232" y="23"/>
      <point x="238" y="49"/>
      <point x="294" y="88" type="curve" smooth="yes"/>
      <point x="317" y="104" type="line" smooth="yes"/>
      <point x="389" y="154"/>
      <point x="403" y="179"/>
      <point x="403" y="205" type="curve" smooth="yes"/>
      <point x="403" y="209" type="line" smooth="yes"/>
      <point x="403" y="244"/>
      <point x="361" y="283"/>
      <point x="280" y="283" type="curve" smooth="yes"/>
      <point x="272" y="283" type="line"/>
      <point x="272" y="280" type="line" smooth="yes"/>
      <point x="272" y="253"/>
      <point x="261" y="230"/>
      <point x="225" y="208" type="curve" smooth="yes"/>
      <point x="195" y="190" type="line" smooth="yes"/>
      <point x="112" y="140"/>
      <point x="81" y="74"/>
      <point x="81" y="11" type="curve" smooth="yes"/>
      <point x="81" y="8" type="line" smooth="yes"/>
      <point x="81" y="-61"/>
      <point x="159" y="-141"/>
    </contour>
    <contour>
      <point x="232" y="540" type="curve"/>
      <point x="232" y="421" type="line" smooth="yes"/>
      <point x="232" y="358"/>
      <point x="301" y="349"/>
      <point x="362" y="349" type="curve" smooth="yes"/>
      <point x="385" y="349"/>
      <point x="415" y="351"/>
      <point x="440" y="355" type="curve"/>
      <point x="440" y="474" type="line" smooth="yes"/>
      <point x="440" y="537"/>
      <point x="371" y="546"/>
      <point x="310" y="546" type="curve" smooth="yes"/>
      <point x="287" y="546"/>
      <point x="257" y="544"/>
    </contour>
  </outline>
</glyph>
<glyph name="Agrave" format="1">
  <advance width="600"/>
  <unicode hex="00C0"/>
  <outline>
    <contour>
      <point x="212" y="-7" type="curve"/>
      <point x="232" y="400"/>
      <point x="250" y="504"/>
      <point x="339" y="594" type="curve"/>
      <point x="369" y="624"/>
      <point x="348" y="710"/>
      <point x="269" y="710" type="curve"/>
      <point x="239" y="710" type="line"/>
      <point x="126" y="615"/>
      <point x="52" y="338"/>
      <point x="52" y="57" type="curve"/>
      <point x="52" y="8"/>
      <point x="101" y="-10"/>
      <point x="175" y="-10" type="curve" smooth="yes"/>
      <point x="193" y="-10"/>
      <point x="201" y="-9"/>
    </contour>
    <contour>
      <point x="550" y="-6" type="curve"/>
      <point x="540" y="247"/>
      <point x="516" y="435"/>
      <point x="462" y="563" type="curve"/>
      <point x="441" y="612"/>
      <point x="415" y="652"/>
      <point x="384" y="683" type="curve" smooth="yes"/>
      <point x="370" y="697"/>
      <point x="324" y="710"/>
      <point x="269" y="710" type="curve"/>
      <point x="238" y="710"/>
      <point x="200" y="650"/>
      <point x="200" y="611" type="curve"/>
      <point x="211" y="611"/>
      <point x="219" y="611"/>
      <point x="228" y="611" type="curve" smooth="yes"/>
      <point x="255" y="611"/>
      <point x="265" y="607"/>
      <point x="274" y="595" type="curve"/>
      <point x="348" y="504"/>
      <point x="366" y="412"/>
      <point x="384" y="58" type="curve"/>
      <point x="385" y="40"/>
      <point x="387" y="32"/>
      <point x="397" y="22" type="curve" smooth="yes"/>
      <point x="418" y="1"/>
      <point x="464" y="-10"/>
      <point x="508" y="-10" type="curve" smooth="yes"/>
      <point x="526" y="-10"/>
      <point x="538" y="-9"/>
    </contour>
    <contour>
      <point x="25" y="290" type="line"/>
      <point x="25" y="265" type="line" smooth="yes"/>
      <point x="25" y="221"/>
      <point x="32" y="180"/>
      <point x="54" y="158" type="curve" smooth="yes"/>
      <point x="60" y="152"/>
      <point x="63" y="150"/>
      <point x="71" y="150" type="curve"/>
      <point x="425" y="150" type="line"/>
      <point x="425" y="240"/>
      <point x="375" y="290"/>
      <point x="270" y="290" type="curve" smooth="yes"/>
    </contour>
    <contour>
      <point x="382" y="770" type="curve"/>
      <point x="321" y="822"/>
      <point x="282" y="866"/>
      <point x="261" y="933" type="curve"/>
      <point x="207" y="933"/>
      <point x="176" y="928"/>
      <point x="136" y="914" type="curve" smooth="yes"/>
      <point x="121" y="908"/>
      <point x="116" y="893"/>
      <point x="122" y="878" type="curve" smooth="yes"/>
      <point x="146" y="821"/>
      <point x="165" y="801"/>
      <point x="220" y="771" type="curve" smooth="yes"/>
      <point x="236" y="763"/>
      <point x="255" y="757"/>
      <point x="292" y="757" type="curve" smooth="yes"/>
      <point x="325" y="757"/>
      <point x="346" y="760"/>
    </contour>
  </outline>
</glyph>
<glyph name="AE" format="1">
  <advance width="600"/>
  <unicode hex="00C6"/>
  <outline>
    <contour>
      <point x="168" y="-2" type="curve"/>
      <point x="183" y="402"/>
      <point x="230" y="544"/>
      <point x="299" y="614" type="curve"/>
      <point x="322" y="637"/>
      <point x="329" y="700"/>
      <point x="250" y="700" type="curve"/>
      <point x="190" y="700" type="line"/>
      <point x="99" y="570"/>
      <point x="33" y="338"/>
      <point x="33" y="57" type="curve"/>
      <point x="33" y="8"/>
      <point x="56" y="-10"/>
      <point x="116" y="-10" type="curve" smooth="yes"/>
      <point x="136" y="-10"/>
      <point x="152" y="-7"/>
    </contour>
    <contour>
      <point x="450" y="8" type="curve"/>
      <point x="450" y="268"/>
      <point x="437" y="456"/>
      <point x="396" y="613" type="curve"/>
      <point x="376" y="678"/>
      <point x="338" y="700"/>
      <point x="249" y="700" type="curve"/>
      <point x="223" y="700"/>
      <point x="199" y="638"/>
      <point x="199" y="550" type="curve"/>
      <point x="258" y="550" type="line"/>
      <point x="271" y="550"/>
      <point x="275" y="547"/>
      <point x="280" y="517" type="curve"/>
      <point x="301" y="407"/>
      <point x="308" y="193"/>
      <point x="308" y="50" type="curve" smooth="yes"/>
      <point x="308" y="12"/>
      <point x="356" y="0"/>
      <point x="400" y="0" type="curve" smooth="yes"/>
      <point x="422" y="0"/>
      <point x="433" y="2"/>
    </contour>
    <contour>
      <point x="15" y="310" type="line"/>
      <point x="15" y="285" type="line"/>
      <point x="15" y="208"/>
      <point x="30" y="170"/>
      <point x="61" y="170" type="curve"/>
      <point x="334" y="170" type="line"/>
      <point x="334" y="189" type="line"/>
      <point x="334" y="267"/>
      <point x="294" y="310"/>
      <point x="229" y="310" type="curve"/>
    </contour>
    <contour>
      <point x="235" y="700" type="line"/>
      <point x="235" y="675" type="line"/>
      <point x="235" y="591"/>
      <point x="289" y="550"/>
      <point x="312" y="550" type="curve" smooth="yes"/>
      <point x="580" y="550" type="line"/>
      <point x="585" y="564"/>
      <point x="587" y="583"/>
      <point x="587" y="604" type="curve" smooth="yes"/>
      <point x="587" y="625"/>
      <point x="582" y="669"/>
      <point x="563" y="688" type="curve" smooth="yes"/>
      <point x="553" y="698"/>
      <point x="546" y="700"/>
      <point x="529" y="700" type="curve"/>
    </contour>
    <contour>
      <point x="384" y="373" type="line"/>
      <point x="384" y="357" type="line"/>
      <point x="384" y="278"/>
      <point x="396" y="240"/>
      <point x="429" y="240" type="curve" smooth="yes"/>
      <point x="552" y="240" type="line"/>
      <point x="555" y="252"/>
      <point x="557" y="269"/>
      <point x="557" y="285" type="curve" smooth="yes"/>
      <point x="557" y="332"/>
      <point x="542" y="373"/>
      <point x="496" y="373" type="curve"/>
    </contour>
    <contour>
      <point x="325" y="150" type="line"/>
      <point x="325" y="132" type="line" smooth="yes"/>
      <point x="325" y="55"/>
      <point x="351" y="0"/>
      <point x="400" y="0" type="curve" smooth="yes"/>
      <point x="581" y="0" type="line"/>
      <point x="585" y="15"/>
      <point x="587" y="35"/>
      <point x="587" y="58" type="curve" smooth="yes"/>
      <point x="587" y="124"/>
      <point x="569" y="150"/>
      <point x="525" y="150" type="curve" smooth="yes"/>
    </contour>
    <contour>
      <point x="361" y="711" type="move" name="top"/>
    </contour>
  </outline>
</glyph>
<glyph name="Ccedilla" format="1">
  <advance width="600"/>
  <unicode hex="00C7"/>
  <outline>
    <contour>
      <point x="363" y="584" type="curve" smooth="yes"/>
      <point x="402" y="584"/>
      <point x="442" y="577"/>
      <point x="467" y="451" type="curve"/>
      <point x="523" y="451"/>
      <point x="535" y="456"/>
      <point x="535" y="472" type="curve" smooth="yes"/>
      <point x="535" y="570"/>
      <point x="517" y="635"/>
      <point x="479" y="673" type="curve" smooth="yes"/>
      <point x="447" y="705"/>
      <point x="405" y="720"/>
      <point x="343" y="720" type="curve" smooth="yes"/>
      <point x="176" y="720"/>
      <point x="56" y="543"/>
      <point x="56" y="294" type="curve" smooth="yes"/>
      <point x="56" y="268" type="line" smooth="yes"/>
      <point x="56" y="203"/>
      <point x="128" y="150"/>
      <point x="218" y="150" type="curve"/>
      <point x="209" y="175"/>
      <point x="202" y="228"/>
      <point x="202" y="278" type="curve" smooth="yes"/>
      <point x="202" y="296" type="line" smooth="yes"/>
      <point x="202" y="456"/>
      <point x="274" y="584"/>
    </contour>
    <contour>
      <point x="332" y="-20" type="curve" smooth="yes"/>
      <point x="410" y="-20"/>
      <point x="480" y="2"/>
      <point x="515" y="37" type="curve" smooth="yes"/>
      <point x="538" y="60"/>
      <point x="550" y="103"/>
      <point x="550" y="162" type="curve" smooth="yes"/>
      <point x="550" y="179"/>
      <point x="548" y="196"/>
      <point x="545" y="218" type="curve"/>
      <point x="541" y="218" type="line"/>
      <point x="487" y="159"/>
      <point x="416" y="130"/>
      <point x="330" y="130" type="curve" smooth="yes"/>
      <point x="232" y="130"/>
      <point x="195" y="188"/>
      <point x="195" y="342" type="curve"/>
      <point x="93" y="343"/>
      <point x="56" y="323"/>
      <point x="56" y="268" type="curve" smooth="yes"/>
      <point x="56" y="90"/>
      <point x="162" y="-20"/>
    </contour>
    <contour>
      <point x="535" y="400" type="curve"/>
      <point x="535" y="472" type="line" smooth="yes"/>
      <point x="535" y="594"/>
      <point x="487" y="645"/>
      <point x="410" y="645" type="curve"/>
      <point x="383" y="567"/>
      <point x="375" y="528"/>
      <point x="375" y="461" type="curve" smooth="yes"/>
      <point x="375" y="456" type="line"/>
      <point x="375" y="438"/>
      <point x="380" y="424"/>
      <point x="389" y="415" type="curve" smooth="yes"/>
      <point x="404" y="400"/>
      <point x="429" y="394"/>
      <point x="477" y="394" type="curve"/>
      <point x="500" y="394"/>
      <point x="520" y="396"/>
    </contour>
    <contour>
      <point x="452" y="-106" type="curve" smooth="yes"/>
      <point x="452" y="-36"/>
      <point x="403" y="-4"/>
      <point x="358" y="0" type="curve"/>
      <point x="358" y="18"/>
      <point x="359" y="31"/>
      <point x="362" y="44" type="curve"/>
      <point x="307" y="44"/>
      <point x="294" y="38"/>
      <point x="288" y="29" type="curve" smooth="yes"/>
      <point x="274" y="9"/>
      <point x="269" y="-15"/>
      <point x="269" y="-29" type="curve" smooth="yes"/>
      <point x="269" y="-36"/>
      <point x="272" y="-38"/>
      <point x="279" y="-38" type="curve" smooth="yes"/>
      <point x="311" y="-38"/>
      <point x="326" y="-51"/>
      <point x="326" y="-76" type="curve" smooth="yes"/>
      <point x="326" y="-102"/>
      <point x="307" y="-117"/>
      <point x="274" y="-117" type="curve" smooth="yes"/>
      <point x="241" y="-117"/>
      <point x="221" y="-112"/>
      <point x="200" y="-97" type="curve"/>
      <point x="196" y="-97" type="line"/>
      <point x="189" y="-116"/>
      <point x="187" y="-136"/>
      <point x="187" y="-156" type="curve" smooth="yes"/>
      <point x="187" y="-207"/>
      <point x="212" y="-247"/>
      <point x="287" y="-247" type="curve" smooth="yes"/>
      <point x="406" y="-247"/>
      <point x="452" y="-177"/>
    </contour>
  </outline>
</glyph>
<glyph name="Egrave" format="1">
  <advance width="600"/>
  <unicode hex="00C8"/>
  <outline>
    <contour>
      <point x="25" y="700" type="line"/>
      <point x="25" y="692"/>
      <point x="25" y="683"/>
      <point x="25" y="675" type="curve" smooth="yes"/>
      <point x="25" y="627"/>
      <point x="31" y="575"/>
      <point x="48" y="558" type="curve" smooth="yes"/>
      <point x="54" y="552"/>
      <point x="57" y="550"/>
      <point x="65" y="550" type="curve" smooth="yes"/>
      <point x="543" y="550" type="line"/>
      <point x="548" y="564"/>
      <point x="550" y="583"/>
      <point x="550" y="604" type="curve" smooth="yes"/>
      <point x="550" y="625"/>
      <point x="545" y="669"/>
      <point x="526" y="688" type="curve" smooth="yes"/>
      <point x="516" y="698"/>
      <point x="509" y="700"/>
      <point x="492" y="700" type="curve" smooth="yes"/>
    </contour>
    <contour>
      <point x="235" y="95" type="curve"/>
      <point x="235" y="477" type="line" smooth="yes"/>
      <point x="235" y="558"/>
      <point x="195" y="584"/>
      <point x="75" y="584" type="curve"/>
      <point x="75" y="150" type="line"/>
      <point x="75" y="107"/>
      <point x="151" y="95"/>
    </contour>
    <contour>
      <point x="75" y="150" type="line"/>
      <point x="75" y="132" type="line" smooth="yes"/>
      <point x="75" y="73"/>
      <point x="135" y="0"/>
      <point x="183" y="0" type="curve" smooth="yes"/>
      <point x="545" y="0" type="line"/>
      <point x="549" y="15"/>
      <point x="551" y="35"/>
      <point x="551" y="58" type="curve" smooth="yes"/>
      <point x="551" y="124"/>
      <point x="533" y="150"/>
      <point x="489" y="150" type="curve" smooth="yes"/>
    </contour>
    <contour>
      <point x="145" y="400" type="line"/>
      <point x="145" y="310"/>
      <point x="157" y="270"/>
      <point x="200" y="270" type="curve" smooth="yes"/>
      <point x="500" y="270" type="line"/>
      <point x="500" y="274"/>
      <point x="500" y="280"/>
      <point x="500" y="284" type="curve" smooth="yes"/>
      <point x="500" y="315"/>
      <point x="490" y="357"/>
      <point x="465" y="382" type="curve" smooth="yes"/>
      <point x="450" y="397"/>
      <point x="438" y="400"/>
      <point x="419" y="400" type="curve" smooth="yes"/>
    </contour>
    <contour>
      <point x="382" y="771" type="curve"/>
      <point x="321" y="823"/>
      <point x="282" y="867"/>
      <point x="261" y="934" type="curve"/>
      <point x="207" y="934"/>
      <point x="176" y="929"/>
      <point x="136" y="915" type="curve" smooth="yes"/>
      <point x="121" y="909"/>
      <point x="116" y="894"/>
      <point x="122" y="879" type="curve" smooth="yes"/>
      <point x="146" y="822"/>
      <point x="165" y="802"/>
      <point x="220" y="772" type="curve" smooth="yes"/>
      <point x="236" y="764"/>
      <point x="255" y="758"/>
      <point x="292" y="758" type="curve" smooth="yes"/>
      <point x="325" y="758"/>
      <point x="346" y="761"/>
    </contour>
  </outline>
</glyph>
<glyph name="Eacute" format="1">
  <advance width="600"/>
  <unicode hex="00C9"/>
  <outline>
    <contour>
      <point x="25" y="700" type="line"/>
      <point x="25" y="692"/>
      <point x="25" y="683"/>
      <point x="25" y="675" type="curve" smooth="yes"/>
      <point x="25" y="627"/>
      <point x="31" y="575"/>
      <point x="48" y="558" type="curve" smooth="yes"/>
      <point x="54" y="552"/>
      <point x="57" y="550"/>
      <point x="65" y="550" type="curve" smooth="yes"/>
      <point x="543" y="550" type="line"/>
      <point x="548" y="564"/>
      <point x="550" y="583"/>
      <point x="550" y="604" type="curve" smooth="yes"/>
      <point x="550" y="625"/>
      <point x="545" y="669"/>
      <point x="526" y="688" type="curve" smooth="yes"/>
      <point x="516" y="698"/>
      <point x="509" y="700"/>
      <point x="492" y="700" type="curve" smooth="yes"/>
    </contour>
    <contour>
      <point x="235" y="95" type="curve"/>
      <point x="235" y="477" type="line" smooth="yes"/>
      <point x="235" y="558"/>
      <point x="195" y="584"/>
      <point x="75" y="584" type="curve"/>
      <point x="75" y="150" type="line"/>
      <point x="75" y="107"/>
      <point x="151" y="95"/>
    </contour>
    <contour>
      <point x="75" y="150" type="line"/>
      <point x="75" y="132" type="line" smooth="yes"/>
      <point x="75" y="73"/>
      <point x="135" y="0"/>
      <point x="183" y="0" type="curve" smooth="yes"/>
      <point x="545" y="0" type="line"/>
      <point x="549" y="15"/>
      <point x="551" y="35"/>
      <point x="551" y="58" type="curve" smooth="yes"/>
      <point x="551" y="124"/>
      <point x="533" y="150"/>
      <point x="489" y="150" type="curve" smooth="yes"/>
    </contour>
    <contour>
      <point x="145" y="400" type="line"/>
      <point x="145" y="310"/>
      <point x="157" y="270"/>
      <point x="200" y="270" type="curve" smooth="yes"/>
      <point x="500" y="270" type="line"/>
      <point x="500" y="274"/>
      <point x="500" y="280"/>
      <point x="500" y="284" type="curve" smooth="yes"/>
      <point x="500" y="315"/>
      <point x="490" y="357"/>
      <point x="465" y="382" type="curve" smooth="yes"/>
      <point x="450" y="397"/>
      <point x="438" y="400"/>
      <point x="419" y="400" type="curve" smooth="yes"/>
    </contour>
    <contour>
      <point x="308" y="758" type="curve" smooth="yes"/>
      <point x="345" y="758"/>
      <point x="364" y="763"/>
      <point x="379" y="771" type="curve" smooth="yes"/>
      <point x="430" y="799"/>
      <point x="456" y="827"/>
      <point x="478" y="880" type="curve" smooth="yes"/>
      <point x="484" y="894"/>
      <point x="479" y="909"/>
      <point x="464" y="915" type="curve" smooth="yes"/>
      <point x="424" y="929"/>
      <point x="393" y="934"/>
      <point x="339" y="934" type="curve"/>
      <point x="318" y="867"/>
      <point x="279" y="823"/>
      <point x="218" y="771" type="curve"/>
      <point x="254" y="761"/>
      <point x="275" y="758"/>
    </contour>
  </outline>
</glyph>
<glyph name="Igrave" format="1">
  <advance width="600"/>
  <unicode hex="00CC"/>
  <outline>
    <contour>
      <point x="375" y="86" type="curve"/>
      <point x="375" y="477" type="line" smooth="yes"/>
      <point x="375" y="558"/>
      <point x="337" y="584"/>
      <point x="215" y="584" type="curve"/>
      <point x="215" y="228" type="line" smooth="yes"/>
      <point x="215" y="130"/>
      <point x="253" y="86"/>
    </contour>
    <contour>
      <point x="46" y="700" type="line"/>
      <point x="43" y="691"/>
      <point x="41" y="679"/>
      <point x="41" y="664" type="curve"/>
      <point x="41" y="626"/>
      <point x="50" y="597"/>
      <point x="70" y="577" type="curve" smooth="yes"/>
      <point x="92" y="555"/>
      <point x="122" y="550"/>
      <point x="195" y="550" type="curve" smooth="yes"/>
      <point x="544" y="550" type="line"/>
      <point x="549" y="570"/>
      <point x="551" y="590"/>
      <point x="551" y="608" type="curve" smooth="yes"/>
      <point x="551" y="659"/>
      <point x="543" y="700"/>
      <point x="489" y="700" type="curve" smooth="yes"/>
    </contour>
    <contour>
      <point x="48" y="150" type="line"/>
      <point x="43" y="134"/>
      <point x="41" y="116"/>
      <point x="41" y="97" type="curve"/>
      <point x="41" y="67"/>
      <point x="45" y="36"/>
      <point x="63" y="18" type="curve" smooth="yes"/>
      <point x="77" y="4"/>
      <point x="89" y="0"/>
      <point x="129" y="0" type="curve" smooth="yes"/>
      <point x="544" y="0" type="line"/>
      <point x="548" y="15"/>
      <point x="551" y="35"/>
      <point x="551" y="58" type="curve" smooth="yes"/>
      <point x="551" y="109"/>
      <point x="543" y="150"/>
      <point x="489" y="150" type="curve" smooth="yes"/>
    </contour>
    <contour>
      <point x="382" y="771" type="curve"/>
      <point x="321" y="823"/>
      <point x="282" y="867"/>
      <point x="261" y="934" type="curve"/>
      <point x="207" y="934"/>
      <point x="176" y="929"/>
      <point x="136" y="915" type="curve" smooth="yes"/>
      <point x="121" y="909"/>
      <point x="116" y="894"/>
      <point x="122" y="879" type="curve" smooth="yes"/>
      <point x="146" y="822"/>
      <point x="165" y="802"/>
      <point x="220" y="772" type="curve" smooth="yes"/>
      <point x="236" y="764"/>
      <point x="255" y="758"/>
      <point x="292" y="758" type="curve" smooth="yes"/>
      <point x="325" y="758"/>
      <point x="346" y="761"/>
    </contour>
  </outline>
</glyph>
<glyph name="Idieresis" format="1">
  <advance width="600"/>
  <unicode hex="00CF"/>
  <outline>
    <contour>
      <point x="375" y="86" type="curve"/>
      <point x="375" y="477" type="line" smooth="yes"/>
      <point x="375" y="558"/>
      <point x="337" y="584"/>
      <point x="215" y="584" type="curve"/>
      <point x="215" y="228" type="line" smooth="yes"/>
      <point x="215" y="130"/>
      <point x="253" y="86"/>
    </contour>
    <contour>
      <point x="46" y="700" type="line"/>
      <point x="43" y="691"/>
      <point x="41" y="679"/>
      <point x="41" y="664" type="curve"/>
      <point x="41" y="626"/>
      <point x="50" y="597"/>
      <point x="70" y="577" type="curve" smooth="yes"/>
      <point x="92" y="555"/>
      <point x="122" y="550"/>
      <point x="195" y="550" type="curve" smooth="yes"/>
      <point x="544" y="550" type="line"/>
      <point x="549" y="570"/>
      <point x="551" y="590"/>
      <point x="551" y="608" type="curve" smooth="yes"/>
      <point x="551" y="659"/>
      <point x="543" y="700"/>
      <point x="489" y="700" type="curve" smooth="yes"/>
    </contour>
    <contour>
      <point x="48" y="150" type="line"/>
      <point x="43" y="134"/>
      <point x="41" y="116"/>
      <point x="41" y="97" type="curve"/>
      <point x="41" y="67"/>
      <point x="45" y="36"/>
      <point x="63" y="18" type="curve" smooth="yes"/>
      <point x="77" y="4"/>
      <point x="89" y="0"/>
      <point x="129" y="0" type="curve" smooth="yes"/>
      <point x="544" y="0" type="line"/>
      <point x="548" y="15"/>
      <point x="551" y="35"/>
      <point x="551" y="58" type="curve" smooth="yes"/>
      <point x="551" y="109"/>
      <point x="543" y="150"/>
      <point x="489" y="150" type="curve" smooth="yes"/>
    </contour>
    <contour>
      <point x="268" y="790" type="curve"/>
      <point x="268" y="888" type="line" smooth="yes"/>
      <point x="268" y="932"/>
      <point x="219" y="937"/>
      <point x="176" y="937" type="curve" smooth="yes"/>
      <point x="158" y="937"/>
      <point x="133" y="936"/>
      <point x="112" y="934" type="curve"/>
      <point x="112" y="837" type="line" smooth="yes"/>
      <point x="112" y="793"/>
      <point x="161" y="786"/>
      <point x="203" y="786" type="curve" smooth="yes"/>
      <point x="222" y="786"/>
      <point x="247" y="786"/>
    </contour>
    <contour>
      <point x="488" y="790" type="curve"/>
      <point x="488" y="888" type="line" smooth="yes"/>
      <point x="488" y="932"/>
      <point x="439" y="937"/>
      <point x="396" y="937" type="curve" smooth="yes"/>
      <point x="378" y="937"/>
      <point x="353" y="936"/>
      <point x="332" y="934" type="curve"/>
      <point x="332" y="837" type="line" smooth="yes"/>
      <point x="332" y="793"/>
      <point x="381" y="786"/>
      <point x="423" y="786" type="curve" smooth="yes"/>
      <point x="442" y="786"/>
      <point x="467" y="786"/>
    </contour>
  </outline>
</glyph>
<glyph name="Eth" format="1">
  <advance width="600"/>
  <unicode hex="00D0"/>
  <outline>
    <contour>
      <point x="5" y="390" type="line"/>
      <point x="5" y="386"/>
      <point x="5" y="382"/>
      <point x="5" y="377" type="curve" smooth="yes"/>
      <point x="5" y="302"/>
      <point x="17" y="288"/>
      <point x="50" y="288" type="curve" smooth="yes"/>
      <point x="316" y="288" type="line"/>
      <point x="318" y="302"/>
      <point x="320" y="318"/>
      <point x="320" y="331" type="curve" smooth="yes"/>
      <point x="320" y="375"/>
      <point x="308" y="390"/>
      <point x="270" y="390" type="curve"/>
    </contour>
    <contour>
      <point x="235" y="40" type="curve"/>
      <point x="235" y="495" type="line" smooth="yes"/>
      <point x="235" y="576"/>
      <point x="183" y="609"/>
      <point x="75" y="609" type="curve"/>
      <point x="75" y="95" type="line" smooth="yes"/>
      <point x="75" y="64"/>
      <point x="146" y="40"/>
    </contour>
    <contour>
      <point x="26" y="700" type="curve"/>
      <point x="22" y="683"/>
      <point x="20" y="666"/>
      <point x="20" y="643" type="curve"/>
      <point x="20" y="600"/>
      <point x="27" y="574"/>
      <point x="41" y="559" type="curve" smooth="yes"/>
      <point x="48" y="552"/>
      <point x="54" y="550"/>
      <point x="64" y="550" type="curve" smooth="yes"/>
      <point x="74" y="550"/>
      <point x="91" y="554"/>
      <point x="129" y="559" type="curve" smooth="yes"/>
      <point x="171" y="565"/>
      <point x="216" y="570"/>
      <point x="282" y="570" type="curve" smooth="yes"/>
      <point x="366" y="570"/>
      <point x="404" y="543"/>
      <point x="454" y="504" type="curve"/>
      <point x="543" y="593"/>
      <point x="440" y="720"/>
      <point x="295" y="720" type="curve" smooth="yes"/>
      <point x="205" y="720"/>
      <point x="111" y="714"/>
    </contour>
    <contour>
      <point x="558" y="403" type="curve" smooth="yes"/>
      <point x="558" y="428" type="line" smooth="yes"/>
      <point x="558" y="620"/>
      <point x="454" y="720"/>
      <point x="295" y="720" type="curve"/>
      <point x="266" y="720"/>
      <point x="250" y="695"/>
      <point x="250" y="652" type="curve"/>
      <point x="384" y="604"/>
      <point x="400" y="563"/>
      <point x="400" y="403" type="curve" smooth="yes"/>
      <point x="400" y="393" type="line" smooth="yes"/>
      <point x="400" y="234"/>
      <point x="345" y="145"/>
      <point x="246" y="145" type="curve" smooth="yes"/>
      <point x="176" y="145"/>
      <point x="158" y="148"/>
      <point x="103" y="173" type="curve"/>
      <point x="83" y="157"/>
      <point x="75" y="135"/>
      <point x="75" y="95" type="curve" smooth="yes"/>
      <point x="75" y="50"/>
      <point x="175" y="-10"/>
      <point x="248" y="-10" type="curve" smooth="yes"/>
      <point x="252" y="-10" type="line" smooth="yes"/>
      <point x="442" y="-10"/>
      <point x="558" y="147"/>
    </contour>
  </outline>
</glyph>
<glyph name="Ograve" format="1">
  <advance width="600"/>
  <unicode hex="00D2"/>
  <outline>
    <contour>
      <point x="296" y="720" type="curve" smooth="yes"/>
      <point x="150" y="720"/>
      <point x="50" y="588"/>
      <point x="50" y="342" type="curve" smooth="yes"/>
      <point x="50" y="326" type="line" smooth="yes"/>
      <point x="50" y="93"/>
      <point x="139" y="-20"/>
      <point x="304" y="-20" type="curve" smooth="yes"/>
      <point x="347" y="-20"/>
      <point x="375" y="28"/>
      <point x="375" y="98" type="curve"/>
      <point x="248" y="98"/>
      <point x="200" y="158"/>
      <point x="200" y="299" type="curve" smooth="yes"/>
      <point x="200" y="312" type="line" smooth="yes"/>
      <point x="200" y="480"/>
      <point x="236" y="571"/>
      <point x="308" y="571" type="curve" smooth="yes"/>
      <point x="349" y="571"/>
      <point x="378" y="556"/>
      <point x="417" y="520" type="curve"/>
      <point x="477" y="575"/>
      <point x="394" y="720"/>
    </contour>
    <contour>
      <point x="304" y="-20" type="curve" smooth="yes"/>
      <point x="450" y="-20"/>
      <point x="550" y="112"/>
      <point x="550" y="358" type="curve" smooth="yes"/>
      <point x="550" y="374" type="line" smooth="yes"/>
      <point x="550" y="607"/>
      <point x="461" y="720"/>
      <point x="296" y="720" type="curve" smooth="yes"/>
      <point x="253" y="720"/>
      <point x="225" y="672"/>
      <point x="225" y="602" type="curve"/>
      <point x="352" y="602"/>
      <point x="400" y="542"/>
      <point x="400" y="401" type="curve" smooth="yes"/>
      <point x="400" y="388" type="line" smooth="yes"/>
      <point x="400" y="220"/>
      <point x="364" y="129"/>
      <point x="292" y="129" type="curve" smooth="yes"/>
      <point x="251" y="129"/>
      <point x="218" y="141"/>
      <point x="183" y="180" type="curve"/>
      <point x="118" y="120"/>
      <point x="206" y="-20"/>
    </contour>
    <contour>
      <point x="382" y="771" type="curve"/>
      <point x="321" y="823"/>
      <point x="282" y="867"/>
      <point x="261" y="934" type="curve"/>
      <point x="207" y="934"/>
      <point x="176" y="929"/>
      <point x="136" y="915" type="curve" smooth="yes"/>
      <point x="121" y="909"/>
      <point x="116" y="894"/>
      <point x="122" y="879" type="curve" smooth="yes"/>
      <point x="146" y="822"/>
      <point x="165" y="802"/>
      <point x="220" y="772" type="curve" smooth="yes"/>
      <point x="236" y="764"/>
      <point x="255" y="758"/>
      <point x="292" y="758" type="curve" smooth="yes"/>
      <point x="325" y="758"/>
      <point x="346" y="761"/>
    </contour>
  </outline>
</glyph>
<glyph name="Odieresis" format="1">
  <advance width="600"/>
  <unicode hex="00D6"/>
  <outline>
    <contour>
      <point x="296" y="720" type="curve" smooth="yes"/>
      <point x="150" y="720"/>
      <point x="50" y="588"/>
      <point x="50" y="342" type="curve" smooth="yes"/>
      <point x="50" y="326" type="line" smooth="yes"/>
      <point x="50" y="93"/>
      <point x="139" y="-20"/>
      <point x="304" y="-20" type="curve" smooth="yes"/>
      <point x="347" y="-20"/>
      <point x="375" y="28"/>
      <point x="375" y="98" type="curve"/>
      <point x="248" y="98"/>
      <point x="200" y="158"/>
      <point x="200" y="299" type="curve" smooth="yes"/>
      <point x="200" y="312" type="line" smooth="yes"/>
      <point x="200" y="480"/>
      <point x="236" y="571"/>
      <point x="308" y="571" type="curve" smooth="yes"/>
      <point x="349" y="571"/>
      <point x="378" y="556"/>
      <point x="417" y="520" type="curve"/>
      <point x="477" y="575"/>
      <point x="394" y="720"/>
    </contour>
    <contour>
      <point x="304" y="-20" type="curve" smooth="yes"/>
      <point x="450" y="-20"/>
      <point x="550" y="112"/>
      <point x="550" y="358" type="curve" smooth="yes"/>
      <point x="550" y="374" type="line" smooth="yes"/>
      <point x="550" y="607"/>
      <point x="461" y="720"/>
      <point x="296" y="720" type="curve" smooth="yes"/>
      <point x="253" y="720"/>
      <point x="225" y="672"/>
      <point x="225" y="602" type="curve"/>
      <point x="352" y="602"/>
      <point x="400" y="542"/>
      <point x="400" y="401" type="curve" smooth="yes"/>
      <point x="400" y="388" type="line" smooth="yes"/>
      <point x="400" y="220"/>
      <point x="364" y="129"/>
      <point x="292" y="129" type="curve" smooth="yes"/>
      <point x="251" y="129"/>
      <point x="218" y="141"/>
      <point x="183" y="180" type="curve"/>
      <point x="118" y="120"/>
      <point x="206" y="-20"/>
    </contour>
    <contour>
      <point x="268" y="790" type="curve"/>
      <point x="268" y="888" type="line" smooth="yes"/>
      <point x="268" y="932"/>
      <point x="219" y="937"/>
      <point x="176" y="937" type="curve" smooth="yes"/>
      <point x="158" y="937"/>
      <point x="133" y="936"/>
      <point x="112" y="934" type="curve"/>
      <point x="112" y="837" type="line" smooth="yes"/>
      <point x="112" y="793"/>
      <point x="161" y="786"/>
      <point x="203" y="786" type="curve" smooth="yes"/>
      <point x="222" y="786"/>
      <point x="247" y="786"/>
    </contour>
    <contour>
      <point x="488" y="790" type="curve"/>
      <point x="488" y="888" type="line" smooth="yes"/>
      <point x="488" y="932"/>
      <point x="439" y="937"/>
      <point x="396" y="937" type="curve" smooth="yes"/>
      <point x="378" y="937"/>
      <point x="353" y="936"/>
      <point x="332" y="934" type="curve"/>
      <point x="332" y="837" type="line" smooth="yes"/>
      <point x="332" y="793"/>
      <point x="381" y="786"/>
      <point x="423" y="786" type="curve" smooth="yes"/>
      <point x="442" y="786"/>
      <point x="467" y="786"/>
    </contour>
  </outline>
</glyph>
<glyph name="Oslash" format="1">
  <advance width="600"/>
  <unicode hex="00D8"/>
  <outline>
    <contour>
      <point x="493" y="763" type="curve"/>
      <point x="474" y="772"/>
      <point x="458" y="776"/>
      <point x="431" y="776" type="curve" smooth="yes"/>
      <point x="385" y="776"/>
      <point x="356" y="759"/>
      <point x="353" y="728" type="curve" smooth="yes"/>
      <point x="323" y="489"/>
      <point x="268" y="284"/>
      <point x="173" y="91" type="curve"/>
      <point x="185" y="84"/>
      <point x="189" y="82"/>
      <point x="202" y="82" type="curve" smooth="yes"/>
      <point x="226" y="82"/>
      <point x="238" y="89"/>
      <point x="258" y="121" type="curve" smooth="yes"/>
      <point x="337" y="261"/>
      <point x="428" y="494"/>
    </contour>
    <contour>
      <point x="147" y="72" type="curve"/>
      <point x="128" y="43"/>
      <point x="93" y="0"/>
      <point x="48" y="-39" type="curve"/>
      <point x="70" y="-59"/>
      <point x="101" y="-69"/>
      <point x="137" y="-69" type="curve" smooth="yes"/>
      <point x="162" y="-69"/>
      <point x="177" y="-61"/>
      <point x="188" y="-49" type="curve"/>
      <point x="210" y="-24"/>
      <point x="232" y="13"/>
      <point x="247" y="43" type="curve"/>
      <point x="219" y="70"/>
      <point x="160" y="93"/>
    </contour>
    <contour>
      <point x="296" y="720" type="curve" smooth="yes"/>
      <point x="150" y="720"/>
      <point x="50" y="588"/>
      <point x="50" y="342" type="curve" smooth="yes"/>
      <point x="50" y="326" type="line" smooth="yes"/>
      <point x="50" y="93"/>
      <point x="139" y="-20"/>
      <point x="304" y="-20" type="curve" smooth="yes"/>
      <point x="347" y="-20"/>
      <point x="375" y="28"/>
      <point x="375" y="98" type="curve"/>
      <point x="248" y="98"/>
      <point x="200" y="158"/>
      <point x="200" y="299" type="curve" smooth="yes"/>
      <point x="200" y="312" type="line" smooth="yes"/>
      <point x="200" y="480"/>
      <point x="236" y="571"/>
      <point x="308" y="571" type="curve" smooth="yes"/>
      <point x="349" y="571"/>
      <point x="378" y="556"/>
      <point x="417" y="520" type="curve"/>
      <point x="477" y="575"/>
      <point x="394" y="720"/>
    </contour>
    <contour>
      <point x="304" y="-20" type="curve" smooth="yes"/>
      <point x="450" y="-20"/>
      <point x="550" y="112"/>
      <point x="550" y="358" type="curve" smooth="yes"/>
      <point x="550" y="374" type="line" smooth="yes"/>
      <point x="550" y="607"/>
      <point x="461" y="720"/>
      <point x="296" y="720" type="curve" smooth="yes"/>
      <point x="253" y="720"/>
      <point x="225" y="672"/>
      <point x="225" y="602" type="curve"/>
      <point x="352" y="602"/>
      <point x="400" y="542"/>
      <point x="400" y="401" type="curve" smooth="yes"/>
      <point x="400" y="388" type="line" smooth="yes"/>
      <point x="400" y="220"/>
      <point x="364" y="129"/>
      <point x="292" y="129" type="curve" smooth="yes"/>
      <point x="251" y="129"/>
      <point x="218" y="141"/>
      <point x="183" y="180" type="curve"/>
      <point x="118" y="120"/>
      <point x="206" y="-20"/>
    </contour>
    <contour>
      <point x="266" y="751" type="move" name="top"/>
    </contour>
  </outline>
</glyph>
<glyph name="Thorn" format="1">
  <advance width="600"/>
  <unicode hex="00DE"/>
  <outline>
    <contour>
      <point x="62" y="703" type="curve"/>
      <point x="71" y="667"/>
      <point x="75" y="630"/>
      <point x="75" y="590" type="curve" smooth="yes"/>
      <point x="75" y="57" type="line" smooth="yes"/>
      <point x="75" y="12"/>
      <point x="116" y="-10"/>
      <point x="198" y="-10" type="curve" smooth="yes"/>
      <point x="215" y="-10"/>
      <point x="227" y="-9"/>
      <point x="235" y="-7" type="curve"/>
      <point x="235" y="640" type="line" smooth="yes"/>
      <point x="235" y="665"/>
      <point x="231" y="677"/>
      <point x="220" y="688" type="curve" smooth="yes"/>
      <point x="204" y="704"/>
      <point x="179" y="710"/>
      <point x="129" y="710" type="curve" smooth="yes"/>
      <point x="104" y="710"/>
      <point x="85" y="708"/>
    </contour>
    <contour>
      <point x="153" y="572" type="curve"/>
      <point x="149" y="555"/>
      <point x="147" y="538"/>
      <point x="147" y="515" type="curve"/>
      <point x="147" y="476"/>
      <point x="155" y="452"/>
      <point x="168" y="438" type="curve" smooth="yes"/>
      <point x="175" y="431"/>
      <point x="181" y="429"/>
      <point x="191" y="429" type="curve" smooth="yes"/>
      <point x="201" y="429"/>
      <point x="219" y="431"/>
      <point x="256" y="438" type="curve" smooth="yes"/>
      <point x="274" y="441"/>
      <point x="294" y="444"/>
      <point x="326" y="444" type="curve" smooth="yes"/>
      <point x="386" y="444"/>
      <point x="408" y="418"/>
      <point x="444" y="373" type="curve"/>
      <point x="531" y="460"/>
      <point x="443" y="587"/>
      <point x="332" y="587" type="curve" smooth="yes"/>
      <point x="272" y="587"/>
      <point x="210" y="581"/>
    </contour>
    <contour>
      <point x="550" y="369" type="curve" smooth="yes"/>
      <point x="550" y="376" type="line" smooth="yes"/>
      <point x="550" y="496"/>
      <point x="459" y="587"/>
      <point x="332" y="587" type="curve"/>
      <point x="280" y="587"/>
      <point x="263" y="563"/>
      <point x="263" y="521" type="curve"/>
      <point x="364" y="505"/>
      <point x="392" y="462"/>
      <point x="392" y="370" type="curve" smooth="yes"/>
      <point x="392" y="362" type="line" smooth="yes"/>
      <point x="392" y="287"/>
      <point x="351" y="257"/>
      <point x="288" y="257" type="curve" smooth="yes"/>
      <point x="256" y="257"/>
      <point x="243" y="260"/>
      <point x="217" y="267" type="curve"/>
      <point x="211" y="258"/>
      <point x="208" y="250"/>
      <point x="208" y="235" type="curve" smooth="yes"/>
      <point x="208" y="188"/>
      <point x="264" y="112"/>
      <point x="326" y="112" type="curve" smooth="yes"/>
      <point x="329" y="112" type="line" smooth="yes"/>
      <point x="445" y="112"/>
      <point x="550" y="199"/>
    </contour>
  </outline>
</glyph>
<glyph name="ae" format="1">
  <advance width="600"/>
  <unicode hex="00E6"/>
  <outline>
    <contour>
      <point x="177" y="550" type="curve" smooth="yes"/>
      <point x="108" y="550"/>
      <point x="75" y="541"/>
      <point x="54" y="520" type="curve" smooth="yes"/>
      <point x="36" y="502"/>
      <point x="30" y="469"/>
      <point x="30" y="442" type="curve" smooth="yes"/>
      <point x="30" y="420"/>
      <point x="31" y="401"/>
      <point x="35" y="387" type="curve"/>
      <point x="39" y="387" type="line"/>
      <point x="85" y="410"/>
      <point x="117" y="419"/>
      <point x="167" y="419" type="curve" smooth="yes"/>
      <point x="226" y="419"/>
      <point x="245" y="392"/>
      <point x="245" y="332" type="curve" smooth="yes"/>
      <point x="245" y="120" type="line"/>
      <point x="286" y="120"/>
      <point x="350" y="135"/>
      <point x="350" y="197" type="curve"/>
      <point x="350" y="322" type="line" smooth="yes"/>
      <point x="350" y="439"/>
      <point x="275" y="550"/>
    </contour>
    <contour>
      <point x="144" y="165" type="curve" smooth="yes"/>
      <point x="144" y="173" type="line" smooth="yes"/>
      <point x="144" y="217"/>
      <point x="149" y="238"/>
      <point x="164" y="273" type="curve"/>
      <point x="120" y="293"/>
      <point x="13" y="228"/>
      <point x="13" y="172" type="curve" smooth="yes"/>
      <point x="13" y="156" type="line" smooth="yes"/>
      <point x="13" y="44"/>
      <point x="69" y="-10"/>
      <point x="168" y="-10" type="curve" smooth="yes"/>
      <point x="254" y="-10"/>
      <point x="347" y="84"/>
      <point x="347" y="169" type="curve" smooth="yes"/>
      <point x="347" y="180"/>
      <point x="324" y="191"/>
      <point x="252" y="196" type="curve"/>
      <point x="242" y="128"/>
      <point x="217" y="111"/>
      <point x="189" y="111" type="curve" smooth="yes"/>
      <point x="186" y="111" type="line" smooth="yes"/>
      <point x="158" y="111"/>
      <point x="144" y="125"/>
    </contour>
    <contour>
      <point x="279" y="315" type="curve" smooth="yes"/>
      <point x="257" y="326"/>
      <point x="229" y="338"/>
      <point x="171" y="338" type="curve" smooth="yes"/>
      <point x="97" y="338"/>
      <point x="13" y="246"/>
      <point x="13" y="172" type="curve" smooth="yes"/>
      <point x="13" y="145"/>
      <point x="31" y="126"/>
      <point x="62" y="126" type="curve"/>
      <point x="103" y="203"/>
      <point x="145" y="235"/>
      <point x="206" y="235" type="curve" smooth="yes"/>
      <point x="237" y="235"/>
      <point x="261" y="228"/>
      <point x="300" y="217" type="curve"/>
      <point x="300" y="271"/>
      <point x="294" y="308"/>
    </contour>
    <contour>
      <point x="426" y="196" type="line" smooth="yes"/>
      <point x="526" y="196"/>
      <point x="585" y="243"/>
      <point x="585" y="346" type="curve" smooth="yes"/>
      <point x="585" y="362" type="line" smooth="yes"/>
      <point x="585" y="479"/>
      <point x="510" y="552"/>
      <point x="419" y="552" type="curve" smooth="yes"/>
      <point x="397" y="552"/>
      <point x="394" y="538"/>
      <point x="394" y="466" type="curve"/>
      <point x="453" y="466"/>
      <point x="465" y="417"/>
      <point x="465" y="363" type="curve" smooth="yes"/>
      <point x="465" y="351" type="line" smooth="yes"/>
      <point x="465" y="312"/>
      <point x="449" y="297"/>
      <point x="414" y="297" type="curve" smooth="yes"/>
      <point x="381" y="297"/>
      <point x="362" y="300"/>
      <point x="329" y="310" type="curve"/>
      <point x="321" y="250"/>
      <point x="328" y="232"/>
      <point x="344" y="216" type="curve" smooth="yes"/>
      <point x="356" y="204"/>
      <point x="384" y="196"/>
      <point x="416" y="196" type="curve" smooth="yes"/>
    </contour>
    <contour>
      <point x="422" y="432" type="curve" smooth="yes"/>
      <point x="446" y="432"/>
      <point x="463" y="426"/>
      <point x="490" y="400" type="curve"/>
      <point x="527" y="485"/>
      <point x="478" y="552"/>
      <point x="419" y="552" type="curve"/>
      <point x="315" y="552"/>
      <point x="260" y="448"/>
      <point x="260" y="246" type="curve" smooth="yes"/>
      <point x="260" y="228" type="line" smooth="yes"/>
      <point x="260" y="88"/>
      <point x="322" y="-12"/>
      <point x="448" y="-12" type="curve" smooth="yes"/>
      <point x="456" y="-12"/>
      <point x="475" y="6"/>
      <point x="475" y="78" type="curve"/>
      <point x="405" y="79"/>
      <point x="360" y="129"/>
      <point x="360" y="203" type="curve" smooth="yes"/>
      <point x="360" y="315" type="line" smooth="yes"/>
      <point x="360" y="403"/>
      <point x="375" y="432"/>
    </contour>
    <contour>
      <point x="558" y="15" type="curve" smooth="yes"/>
      <point x="566" y="22"/>
      <point x="582" y="36"/>
      <point x="582" y="81" type="curve" smooth="yes"/>
      <point x="582" y="107"/>
      <point x="580" y="126"/>
      <point x="575" y="146" type="curve"/>
      <point x="571" y="146" type="line"/>
      <point x="531" y="125"/>
      <point x="496" y="117"/>
      <point x="445" y="117" type="curve" smooth="yes"/>
      <point x="407" y="117"/>
      <point x="381" y="126"/>
      <point x="359" y="147" type="curve"/>
      <point x="328" y="52"/>
      <point x="402" y="-12"/>
      <point x="448" y="-12" type="curve" smooth="yes"/>
      <point x="494" y="-12"/>
      <point x="537" y="-3"/>
    </contour>
    <contour>
      <point x="299" y="551" type="move" name="top"/>
    </contour>
  </outline>
</glyph>
<glyph name="ccedilla" format="1">
  <advance width="600"/>
  <unicode hex="00E7"/>
  <outline>
    <contour>
      <point x="360" y="552" type="curve" smooth="yes"/>
      <point x="176" y="552"/>
      <point x="51" y="426"/>
      <point x="51" y="241" type="curve" smooth="yes"/>
      <point x="51" y="231" type="line" smooth="yes"/>
      <point x="51" y="91"/>
      <point x="183" y="-12"/>
      <point x="321" y="-12" type="curve" smooth="yes"/>
      <point x="346" y="-12"/>
      <point x="353" y="5"/>
      <point x="354" y="46" type="curve"/>
      <point x="217" y="107"/>
      <point x="201" y="175"/>
      <point x="201" y="234" type="curve" smooth="yes"/>
      <point x="201" y="242" type="line" smooth="yes"/>
      <point x="201" y="333"/>
      <point x="263" y="398"/>
      <point x="350" y="398" type="curve" smooth="yes"/>
      <point x="419" y="398"/>
      <point x="458" y="381"/>
      <point x="510" y="337" type="curve"/>
      <point x="514" y="337" type="line"/>
      <point x="526" y="369"/>
      <point x="531" y="396"/>
      <point x="531" y="431" type="curve" smooth="yes"/>
      <point x="531" y="475"/>
      <point x="524" y="493"/>
      <point x="505" y="512" type="curve" smooth="yes"/>
      <point x="483" y="534"/>
      <point x="432" y="552"/>
    </contour>
    <contour>
      <point x="161" y="242" type="curve"/>
      <point x="87" y="140"/>
      <point x="186" y="-12"/>
      <point x="321" y="-12" type="curve" smooth="yes"/>
      <point x="432" y="-12"/>
      <point x="477" y="8"/>
      <point x="502" y="33" type="curve" smooth="yes"/>
      <point x="522" y="53"/>
      <point x="539" y="101"/>
      <point x="539" y="140" type="curve"/>
      <point x="539" y="162"/>
      <point x="538" y="175"/>
      <point x="535" y="190" type="curve"/>
      <point x="531" y="190" type="line"/>
      <point x="473" y="151"/>
      <point x="417" y="133"/>
      <point x="332" y="133" type="curve" smooth="yes"/>
      <point x="243" y="133"/>
      <point x="209" y="155"/>
    </contour>
    <contour>
      <point x="448" y="-106" type="curve" smooth="yes"/>
      <point x="448" y="-36"/>
      <point x="403" y="-4"/>
      <point x="361" y="0" type="curve"/>
      <point x="361" y="18"/>
      <point x="362" y="31"/>
      <point x="365" y="44" type="curve"/>
      <point x="310" y="44"/>
      <point x="297" y="38"/>
      <point x="291" y="29" type="curve" smooth="yes"/>
      <point x="277" y="9"/>
      <point x="272" y="-15"/>
      <point x="272" y="-29" type="curve" smooth="yes"/>
      <point x="272" y="-36"/>
      <point x="275" y="-38"/>
      <point x="282" y="-38" type="curve" smooth="yes"/>
      <point x="313" y="-38"/>
      <point x="327" y="-51"/>
      <point x="327" y="-76" type="curve" smooth="yes"/>
      <point x="327" y="-102"/>
      <point x="309" y="-117"/>
      <point x="277" y="-117" type="curve" smooth="yes"/>
      <point x="246" y="-117"/>
      <point x="228" y="-111"/>
      <point x="208" y="-97" type="curve"/>
      <point x="204" y="-97" type="line"/>
      <point x="197" y="-116"/>
      <point x="195" y="-136"/>
      <point x="195" y="-156" type="curve" smooth="yes"/>
      <point x="195" y="-207"/>
      <point x="219" y="-247"/>
      <point x="290" y="-247" type="curve" smooth="yes"/>
      <point x="404" y="-247"/>
      <point x="448" y="-177"/>
    </contour>
  </outline>
</glyph>
<glyph name="eacute" format="1">
  <advance width="600"/>
  <unicode hex="00E9"/>
  <outline>
    <contour>
      <point x="345" y="415" type="curve" smooth="yes"/>
      <point x="365" y="415"/>
      <point x="381" y="411"/>
      <point x="402" y="403" type="curve"/>
      <point x="426" y="421"/>
      <point x="437" y="449"/>
      <point x="437" y="474" type="curve"/>
      <point x="437" y="531"/>
      <point x="387" y="552"/>
      <point x="339" y="552" type="curve"/>
      <point x="163" y="552"/>
      <point x="50" y="426"/>
      <point x="50" y="262" type="curve" smooth="yes"/>
      <point x="50" y="259" type="line" smooth="yes"/>
      <point x="50" y="86"/>
      <point x="163" y="-20"/>
      <point x="332" y="-20" type="curve" smooth="yes"/>
      <point x="382" y="-20"/>
      <point x="393" y="20"/>
      <point x="394" y="69" type="curve"/>
      <point x="217" y="69"/>
      <point x="200" y="172"/>
      <point x="200" y="227" type="curve" smooth="yes"/>
      <point x="200" y="230" type="line" smooth="yes"/>
      <point x="200" y="355"/>
      <point x="258" y="415"/>
    </contour>
    <contour>
      <point x="498" y="21" type="curve" smooth="yes"/>
      <point x="516" y="39"/>
      <point x="530" y="83"/>
      <point x="530" y="132" type="curve" smooth="yes"/>
      <point x="530" y="144"/>
      <point x="529" y="157"/>
      <point x="526" y="170" type="curve"/>
      <point x="522" y="170" type="line"/>
      <point x="459" y="134"/>
      <point x="394" y="120"/>
      <point x="314" y="120" type="curve" smooth="yes"/>
      <point x="225" y="120"/>
      <point x="188" y="140"/>
      <point x="116" y="205" type="curve"/>
      <point x="63" y="77"/>
      <point x="213" y="-20"/>
      <point x="332" y="-20" type="curve" smooth="yes"/>
      <point x="404" y="-20"/>
      <point x="474" y="-3"/>
    </contour>
    <contour>
      <point x="330" y="209" type="line" smooth="yes"/>
      <point x="487" y="209"/>
      <point x="550" y="259"/>
      <point x="550" y="358" type="curve" smooth="yes"/>
      <point x="550" y="361" type="line" smooth="yes"/>
      <point x="550" y="464"/>
      <point x="468" y="552"/>
      <point x="339" y="552" type="curve" smooth="yes"/>
      <point x="316" y="552"/>
      <point x="299" y="513"/>
      <point x="299" y="458" type="curve"/>
      <point x="363" y="458"/>
      <point x="392" y="428"/>
      <point x="392" y="365" type="curve" smooth="yes"/>
      <point x="392" y="362" type="line" smooth="yes"/>
      <point x="392" y="324"/>
      <point x="363" y="304"/>
      <point x="295" y="304" type="curve" smooth="yes"/>
      <point x="223" y="304"/>
      <point x="190" y="310"/>
      <point x="172" y="317" type="curve"/>
      <point x="163" y="288"/>
      <point x="164" y="267"/>
      <point x="186" y="245" type="curve" smooth="yes"/>
      <point x="206" y="225"/>
      <point x="246" y="209"/>
      <point x="326" y="209" type="curve" smooth="yes"/>
    </contour>
    <contour>
      <point x="329" y="613" type="curve" smooth="yes"/>
      <point x="361" y="613"/>
      <point x="384" y="620"/>
      <point x="399" y="629" type="curve" smooth="yes"/>
      <point x="448" y="657"/>
      <point x="468" y="685"/>
      <point x="491" y="749" type="curve"/>
      <point x="497" y="765"/>
      <point x="493" y="784"/>
      <point x="476" y="792" type="curve" smooth="yes"/>
      <point x="439" y="810"/>
      <point x="407" y="816"/>
      <point x="361" y="816" type="curve"/>
      <point x="340" y="732"/>
      <point x="310" y="694"/>
      <point x="249" y="629" type="curve"/>
      <point x="281" y="616"/>
      <point x="300" y="613"/>
    </contour>
  </outline>
</glyph>
<glyph name="iacute" format="1">
  <advance width="600"/>
  <unicode hex="00ED"/>
  <outline>
    <contour>
      <point x="56" y="540" type="curve"/>
      <point x="52" y="525"/>
      <point x="50" y="505"/>
      <point x="50" y="482" type="curve" smooth="yes"/>
      <point x="50" y="424"/>
      <point x="66" y="390"/>
      <point x="93" y="390" type="curve" smooth="yes"/>
      <point x="138" y="390"/>
      <point x="176" y="398"/>
      <point x="283" y="438" type="curve"/>
      <point x="283" y="516"/>
      <point x="276" y="550"/>
      <point x="240" y="550" type="curve" smooth="yes"/>
      <point x="174" y="550"/>
      <point x="112" y="547"/>
    </contour>
    <contour>
      <point x="374" y="518" type="curve" smooth="yes"/>
      <point x="354" y="538"/>
      <point x="307" y="550"/>
      <point x="250" y="550" type="curve" smooth="yes"/>
      <point x="240" y="550" type="line"/>
      <point x="240" y="245" type="line" smooth="yes"/>
      <point x="240" y="125"/>
      <point x="283" y="77"/>
      <point x="390" y="77" type="curve"/>
      <point x="390" y="479" type="line" smooth="yes"/>
      <point x="390" y="498"/>
      <point x="387" y="505"/>
    </contour>
    <contour>
      <point x="50" y="150" type="line"/>
      <point x="50" y="144"/>
      <point x="50" y="138"/>
      <point x="50" y="131" type="curve" smooth="yes"/>
      <point x="50" y="72"/>
      <point x="58" y="38"/>
      <point x="76" y="20" type="curve" smooth="yes"/>
      <point x="91" y="5"/>
      <point x="111" y="0"/>
      <point x="157" y="0" type="curve"/>
      <point x="555" y="0" type="line"/>
      <point x="560" y="14"/>
      <point x="562" y="27"/>
      <point x="562" y="43" type="curve" smooth="yes"/>
      <point x="562" y="106"/>
      <point x="506" y="150"/>
      <point x="355" y="150" type="curve"/>
    </contour>
    <contour>
      <point x="309" y="613" type="curve" smooth="yes"/>
      <point x="341" y="613"/>
      <point x="364" y="620"/>
      <point x="379" y="629" type="curve" smooth="yes"/>
      <point x="428" y="657"/>
      <point x="448" y="685"/>
      <point x="471" y="749" type="curve"/>
      <point x="477" y="765"/>
      <point x="473" y="784"/>
      <point x="456" y="792" type="curve" smooth="yes"/>
      <point x="419" y="810"/>
      <point x="387" y="816"/>
      <point x="341" y="816" type="curve"/>
      <point x="320" y="732"/>
      <point x="290" y="694"/>
      <point x="229" y="629" type="curve"/>
      <point x="261" y="616"/>
      <point x="280" y="613"/>
    </contour>
  </outline>
</glyph>
<glyph name="odieresis" format="1">
  <advance width="600"/>
  <unicode hex="00F6"/>
  <outline>
    <contour>
      <point x="304" y="552" type="curve" smooth="yes"/>
      <point x="153" y="552"/>
      <point x="50" y="433"/>
      <point x="50" y="258" type="curve" smooth="yes"/>
      <point x="50" y="244" type="line" smooth="yes"/>
      <point x="50" y="68"/>
      <point x="163" y="-12"/>
      <point x="295" y="-12" type="curve" smooth="yes"/>
      <point x="329" y="-12"/>
      <point x="351" y="14"/>
      <point x="351" y="52" type="curve"/>
      <point x="249" y="52"/>
      <point x="195" y="106"/>
      <point x="195" y="239" type="curve" smooth="yes"/>
      <point x="195" y="246" type="line" smooth="yes"/>
      <point x="195" y="365"/>
      <point x="237" y="412"/>
      <point x="323" y="412" type="curve" smooth="yes"/>
      <point x="377" y="412"/>
      <point x="397" y="401"/>
      <point x="435" y="371" type="curve"/>
      <point x="531" y="424"/>
      <point x="413" y="552"/>
    </contour>
    <contour>
      <point x="295" y="-12" type="curve" smooth="yes"/>
      <point x="446" y="-12"/>
      <point x="550" y="91"/>
      <point x="550" y="242" type="curve" smooth="yes"/>
      <point x="550" y="256" type="line" smooth="yes"/>
      <point x="550" y="460"/>
      <point x="434" y="552"/>
      <point x="304" y="552" type="curve" smooth="yes"/>
      <point x="276" y="552"/>
      <point x="258" y="526"/>
      <point x="258" y="488" type="curve"/>
      <point x="354" y="488"/>
      <point x="405" y="422"/>
      <point x="405" y="261" type="curve" smooth="yes"/>
      <point x="405" y="254" type="line" smooth="yes"/>
      <point x="405" y="163"/>
      <point x="363" y="128"/>
      <point x="272" y="128" type="curve" smooth="yes"/>
      <point x="219" y="128"/>
      <point x="195" y="141"/>
      <point x="155" y="169" type="curve"/>
      <point x="96" y="110"/>
      <point x="180" y="-12"/>
    </contour>
    <contour>
      <point x="268" y="615" type="curve"/>
      <point x="268" y="723" type="line" smooth="yes"/>
      <point x="268" y="767"/>
      <point x="219" y="772"/>
      <point x="176" y="772" type="curve" smooth="yes"/>
      <point x="158" y="772"/>
      <point x="133" y="771"/>
      <point x="112" y="769" type="curve"/>
      <point x="112" y="662" type="line" smooth="yes"/>
      <point x="112" y="618"/>
      <point x="161" y="611"/>
      <point x="203" y="611" type="curve" smooth="yes"/>
      <point x="222" y="611"/>
      <point x="247" y="611"/>
    </contour>
    <contour>
      <point x="488" y="615" type="curve"/>
      <point x="488" y="723" type="line" smooth="yes"/>
      <point x="488" y="767"/>
      <point x="439" y="772"/>
      <point x="396" y="772" type="curve" smooth="yes"/>
      <point x="378" y="772"/>
      <point x="353" y="771"/>
      <point x="332" y="769" type="curve"/>
      <point x="332" y="662" type="line" smooth="yes"/>
      <point x="332" y="618"/>
      <point x="381" y="611"/>
      <point x="423" y="611" type="curve" smooth="yes"/>
      <point x="442" y="611"/>
      <point x="467" y="611"/>
    </contour>
  </outline>
</glyph>
<glyph name="divide" format="1">
  <advance width="600"/>
  <unicode hex="00F7"/>
  <outline>
    <contour>
      <point x="50" y="375" type="line"/>
      <point x="50" y="369"/>
      <point x="50" y="363"/>
      <point x="50" y="356" type="curve" smooth="yes"/>
      <point x="50" y="297"/>
      <point x="58" y="263"/>
      <point x="76" y="245" type="curve" smooth="yes"/>
      <point x="91" y="230"/>
      <point x="111" y="225"/>
      <point x="157" y="225" type="curve"/>
      <point x="547" y="225" type="line"/>
      <point x="551" y="246"/>
      <point x="554" y="269"/>
      <point x="554" y="288" type="curve" smooth="yes"/>
      <point x="554" y="354"/>
      <point x="537" y="375"/>
      <point x="481" y="375" type="curve"/>
    </contour>
    <contour>
      <point x="384" y="430" type="curve"/>
      <point x="384" y="509" type="line" smooth="yes"/>
      <point x="384" y="572"/>
      <point x="336" y="581"/>
      <point x="294" y="581" type="curve" smooth="yes"/>
      <point x="271" y="581"/>
      <point x="241" y="579"/>
      <point x="216" y="575" type="curve"/>
      <point x="216" y="496" type="line" smooth="yes"/>
      <point x="216" y="433"/>
      <point x="264" y="424"/>
      <point x="306" y="424" type="curve" smooth="yes"/>
      <point x="329" y="424"/>
      <point x="359" y="426"/>
    </contour>
    <contour>
      <point x="384" y="25" type="curve"/>
      <point x="384" y="104" type="line" smooth="yes"/>
      <point x="384" y="167"/>
      <point x="336" y="176"/>
      <point x="294" y="176" type="curve" smooth="yes"/>
      <point x="271" y="176"/>
      <point x="241" y="174"/>
      <point x="216" y="170" type="curve"/>
      <point x="216" y="91" type="line" smooth="yes"/>
      <point x="216" y="28"/>
      <point x="264" y="19"/>
      <point x="306" y="19" type="curve" smooth="yes"/>
      <point x="329" y="19"/>
      <point x="359" y="21"/>
    </contour>
  </outline>
</glyph>
<glyph name="uacute" format="1">
  <advance width="600"/>
  <unicode hex="00FA"/>
  <outline>
    <contour>
      <point x="377" y="542" type="curve"/>
      <point x="377" y="180" type="line" smooth="yes"/>
      <point x="377" y="100"/>
      <point x="393" y="58"/>
      <point x="423" y="28" type="curve" smooth="yes"/>
      <point x="447" y="4"/>
      <point x="473" y="-4"/>
      <point x="506" y="-4" type="curve" smooth="yes"/>
      <point x="519" y="-4"/>
      <point x="531" y="-3"/>
      <point x="544" y="0" type="curve"/>
      <point x="535" y="36"/>
      <point x="531" y="67"/>
      <point x="531" y="106" type="curve" smooth="yes"/>
      <point x="531" y="486" type="line" smooth="yes"/>
      <point x="531" y="540"/>
      <point x="491" y="548"/>
      <point x="435" y="548" type="curve" smooth="yes"/>
      <point x="412" y="548"/>
      <point x="392" y="546"/>
    </contour>
    <contour>
      <point x="175" y="-10" type="curve" smooth="yes"/>
      <point x="272" y="-10"/>
      <point x="367" y="85"/>
      <point x="392" y="199" type="curve" smooth="yes"/>
      <point x="412" y="290"/>
      <point x="408" y="363"/>
      <point x="386" y="428" type="curve"/>
      <point x="350" y="209"/>
      <point x="290" y="157"/>
      <point x="232" y="157" type="curve" smooth="yes"/>
      <point x="207" y="157"/>
      <point x="183" y="179"/>
      <point x="165" y="224" type="curve"/>
      <point x="107" y="224"/>
      <point x="66" y="193"/>
      <point x="66" y="158" type="curve" smooth="yes"/>
      <point x="66" y="81"/>
      <point x="117" y="-10"/>
    </contour>
    <contour>
      <point x="45" y="542" type="curve"/>
      <point x="61" y="483"/>
      <point x="66" y="447"/>
      <point x="66" y="383" type="curve" smooth="yes"/>
      <point x="66" y="158" type="line"/>
      <point x="66" y="131"/>
      <point x="95" y="115"/>
      <point x="191" y="118" type="curve"/>
      <point x="213" y="223"/>
      <point x="232" y="325"/>
      <point x="232" y="408" type="curve" smooth="yes"/>
      <point x="232" y="413" type="line" smooth="yes"/>
      <point x="232" y="520"/>
      <point x="188" y="548"/>
      <point x="103" y="548" type="curve" smooth="yes"/>
      <point x="82" y="548"/>
      <point x="65" y="546"/>
    </contour>
    <contour>
      <point x="309" y="613" type="curve" smooth="yes"/>
      <point x="341" y="613"/>
      <point x="364" y="620"/>
      <point x="379" y="629" type="curve" smooth="yes"/>
      <point x="428" y="657"/>
      <point x="448" y="685"/>
      <point x="471" y="749" type="curve"/>
      <point x="477" y="765"/>
      <point x="473" y="784"/>
      <point x="456" y="792" type="curve" smooth="yes"/>
      <point x="419" y="810"/>
      <point x="387" y="816"/>
      <point x="341" y="816" type="curve"/>
      <point x="320" y="732"/>
      <point x="290" y="694"/>
      <point x="229" y="629" type="curve"/>
      <point x="261" y="616"/>
      <point x="280" y="613"/>
    </contour>
  </outline>
</glyph>
<glyph name="ucircumflex" format="1">
  <advance width="600"/>
  <unicode hex="00FB"/>
  <outline>
    <contour>
      <point x="377" y="542" type="curve"/>
      <point x="377" y="180" type="line" smooth="yes"/>
      <point x="377" y="100"/>
      <point x="393" y="58"/>
      <point x="423" y="28" type="curve" smooth="yes"/>
      <point x="447" y="4"/>
      <point x="473" y="-4"/>
      <point x="506" y="-4" type="curve" smooth="yes"/>
      <point x="519" y="-4"/>
      <point x="531" y="-3"/>
      <point x="544" y="0" type="curve"/>
      <point x="535" y="36"/>
      <point x="531" y="67"/>
      <point x="531" y="106" type="curve" smooth="yes"/>
      <point x="531" y="486" type="line" smooth="yes"/>
      <point x="531" y="540"/>
      <point x="491" y="548"/>
      <point x="435" y="548" type="curve" smooth="yes"/>
      <point x="412" y="548"/>
      <point x="392" y="546"/>
    </contour>
    <contour>
      <point x="175" y="-10" type="curve" smooth="yes"/>
      <point x="272" y="-10"/>
      <point x="367" y="85"/>
      <point x="392" y="199" type="curve" smooth="yes"/>
      <point x="412" y="290"/>
      <point x="408" y="363"/>
      <point x="386" y="428" type="curve"/>
      <point x="350" y="209"/>
      <point x="290" y="157"/>
      <point x="232" y="157" type="curve" smooth="yes"/>
      <point x="207" y="157"/>
      <point x="183" y="179"/>
      <point x="165" y="224" type="curve"/>
      <point x="107" y="224"/>
      <point x="66" y="193"/>
      <point x="66" y="158" type="curve" smooth="yes"/>
      <point x="66" y="81"/>
      <point x="117" y="-10"/>
    </contour>
    <contour>
      <point x="45" y="542" type="curve"/>
      <point x="61" y="483"/>
      <point x="66" y="447"/>
      <point x="66" y="383" type="curve" smooth="yes"/>
      <point x="66" y="158" type="line"/>
      <point x="66" y="131"/>
      <point x="95" y="115"/>
      <point x="191" y="118" type="curve"/>
      <point x="213" y="223"/>
      <point x="232" y="325"/>
      <point x="232" y="408" type="curve" smooth="yes"/>
      <point x="232" y="413" type="line" smooth="yes"/>
      <point x="232" y="520"/>
      <point x="188" y="548"/>
      <point x="103" y="548" type="curve" smooth="yes"/>
      <point x="82" y="548"/>
      <point x="65" y="546"/>
    </contour>
    <contour>
      <point x="211" y="610" type="line"/>
      <point x="239" y="663"/>
      <point x="293" y="712"/>
      <point x="358" y="733" type="curve"/>
      <point x="358" y="791"/>
      <point x="330" y="812"/>
      <point x="285" y="812" type="curve"/>
      <point x="261" y="812" type="line"/>
      <point x="216" y="791"/>
      <point x="151" y="744"/>
      <point x="122" y="700" type="curve" smooth="yes"/>
      <point x="106" y="675"/>
      <point x="99" y="657"/>
      <point x="99" y="649" type="curve" smooth="yes"/>
      <point x="99" y="626"/>
      <point x="155" y="610"/>
      <point x="205" y="610" type="curve"/>
    </contour>
    <contour>
      <point x="515" y="626" type="curve"/>
      <point x="484" y="695"/>
      <point x="442" y="742"/>
      <point x="393" y="779" type="curve" smooth="yes"/>
      <point x="350" y="811"/>
      <point x="320" y="812"/>
      <point x="290" y="812" type="curve" smooth="yes"/>
      <point x="282" y="812" type="line"/>
      <point x="263" y="812"/>
      <point x="248" y="793"/>
      <point x="236" y="731" type="curve"/>
      <point x="311" y="707"/>
      <point x="340" y="683"/>
      <point x="372" y="639" type="curve" smooth="yes"/>
      <point x="383" y="620"/>
      <point x="400" y="610"/>
      <point x="433" y="610" type="curve" smooth="yes"/>
      <point x="467" y="610"/>
      <point x="490" y="615"/>
    </contour>
  </outline>
</glyph>
